<svg width="85" height="85" viewBox="0 0 85 85" fill="none" xmlns="http://www.w3.org/2000/svg">
<path d="M74.5946 49.1406L68.8394 27.965L80.7642 24.0975C73.8969 9.85292 59.3725 0 42.5 0C25.5744 0 11.0004 9.92021 4.165 24.2427L16.1571 27.965L10.4019 49.1406L0 46.4242C1.98333 68.0567 20.354 85 42.5 85C64.646 85 83.0131 68.0567 85 46.4242L74.5946 49.1406ZM22.0858 55.675C20.9738 54.8569 20.7329 53.2915 21.551 52.1794L24.4056 48.326C25.2202 47.2175 26.7785 46.9696 27.8977 47.7913C29.0169 48.6094 29.2542 50.1712 28.436 51.2869L25.5779 55.1367C24.8094 56.1921 23.1448 56.4471 22.0858 55.675ZM27.1292 59.3583C26.0206 58.5367 25.7585 57.0067 26.5767 55.8946L29.4525 52.0129C30.2635 50.9044 31.8254 50.6635 32.9375 51.4781C34.0531 52.2927 34.301 53.8617 33.4758 54.9702L30.6 58.8554C29.8492 59.8896 28.22 60.1517 27.1292 59.3583ZM32.1796 63.0417C31.071 62.2235 30.8231 60.6581 31.6448 59.5425L34.4958 55.6963C35.321 54.5806 36.8829 54.3433 37.9915 55.1579C39.1035 55.976 39.3479 57.5415 38.5263 58.6535L35.6752 62.5069C34.9031 63.5552 33.2456 63.8244 32.1796 63.0417ZM43.5731 62.3298L40.715 66.1973C39.9535 67.2385 38.2996 67.5219 37.2229 66.7321C36.1108 65.914 35.8665 64.3521 36.6846 63.24L39.5498 59.3725C40.3608 58.271 41.9227 58.0196 43.0419 58.8448C44.154 59.6523 44.3948 61.2213 43.5731 62.3298ZM46.2046 67.2917C45.7017 67.2917 45.1563 67.1748 44.6073 66.8915C45.4396 65.7652 46.6579 64.2635 47.1113 63.194L47.6744 63.7571C49.3992 65.4819 48.1242 67.2917 46.2046 67.2917ZM63.6367 56.741C62.6627 57.7185 61.076 57.7185 60.1021 56.741L52.9302 49.5692C52.7 49.3319 52.314 49.3248 52.0696 49.5515C51.804 49.7888 51.7933 50.2031 52.0483 50.4546L58.689 57.0988C59.6665 58.0763 59.6665 59.6558 58.689 60.6333C57.715 61.6108 56.1283 61.6108 55.1544 60.6333L49.7604 55.2358C49.5196 54.995 49.13 54.9915 48.8856 55.2288C48.6306 55.4731 48.6306 55.8769 48.875 56.1213L53.3517 60.6015C54.3292 61.579 54.3292 63.1585 53.3517 64.1396C52.3813 65.1135 50.7946 65.1171 49.8206 64.1396L47.5044 61.8233C48.1065 58.1329 45.3971 55.126 42.0856 54.8392C41.2073 52.746 39.2417 51.3506 37.0494 51.1594C36.2065 49.1371 34.2727 47.6744 32.006 47.476C30.214 43.1977 24.3631 42.4044 21.5581 46.2329L19.9998 48.3402C18.4096 47.7417 16.6919 47.2423 14.7263 46.7783L19.2348 30.1856C25.9604 30.1254 31.2623 23.7504 37.4708 27.6746C35.4379 30.1892 33.7698 32.1973 31.2552 33.6635C29.2471 34.8394 28.305 37.1379 28.9177 39.3869C29.6827 42.2096 32.5444 44.1823 35.8877 44.1823C40.3077 44.1823 44.8835 40.5521 48.3579 37.9454C50.405 39.989 61.926 51.3152 63.6402 53.21C64.6106 54.1804 64.6106 55.76 63.6367 56.741ZM65.3898 49.8206C65.3898 49.8206 54.3221 38.8981 51.0354 35.6079C49.2788 33.8583 48.0675 33.6175 46.0417 35.2502C43.4633 37.3256 40.3077 39.4365 37.9773 40.2546C33.405 41.8554 30.9081 37.9631 33.0331 36.7165C37.354 34.1983 39.4577 30.5646 43.0879 26.4527C44.0938 25.3123 45.2944 24.8908 46.5198 24.8908C47.8515 24.8908 49.215 25.3867 50.3979 25.9958C55.7706 28.7725 60.6581 30.6673 65.8077 30.2883L70.3977 47.175C68.7544 47.9117 67.1004 48.7688 65.3898 49.8206Z" fill="#2A2E53"/>
</svg>
