<svg width="300" height="87" viewBox="0 0 300 87" fill="none" xmlns="http://www.w3.org/2000/svg">
<path d="M62.3931 87L47 87L62.3931 72L78 72L62.3931 87Z" fill="#68854D"/>
<path d="M183.897 86L169 86L183.897 71L199 71L183.897 86Z" fill="#032A56"/>
<path d="M92.3931 86L77 86L92.3931 71L108 71L92.3931 86Z" fill="#68854D"/>
<path d="M214.393 86L199 86L214.393 71L230 71L214.393 86Z" fill="#032A56"/>
<path d="M136.393 86L121 86L136.393 71L152 71L136.393 86Z" fill="#507FB5"/>
<path d="M14.8966 86L0 86L14.8966 71L30 71L14.8966 86Z" fill="#679FF5"/>
<path d="M254.897 86L240 86L254.897 71L270 71L254.897 86Z" fill="#679FF5"/>
<path d="M136.393 72L121 72L136.393 56L152 56L136.393 72Z" fill="#507FB5"/>
<path d="M14.8966 72L0 72L14.8966 56L30 56L14.8966 72Z" fill="#679FF5"/>
<path d="M254.897 72L240 72L254.897 56L270 56L254.897 72Z" fill="#679FF5"/>
<path d="M91.8966 72L77 72L91.8966 57L107 57L91.8966 72Z" fill="#68854D"/>
<path d="M213.897 71L199 71L213.897 56L229 56L213.897 71Z" fill="#032A56"/>
<path d="M165.897 71L151 71L165.897 56L181 56L165.897 71Z" fill="#507FB5"/>
<path d="M44.8966 71L30 71L44.8966 56L60 56L44.8966 71Z" fill="#679FF5"/>
<path d="M284.897 71L270 71L284.897 56L300 56L284.897 71Z" fill="#679FF5"/>
<path d="M62.3931 31L47 31L62.3931 16L78 16L62.3931 31Z" fill="#68854D"/>
<path d="M183.897 30L169 30L183.897 15L199 15L183.897 30Z" fill="#032A56"/>
<path d="M92.3931 30L77 30L92.3931 15L108 15L92.3931 30Z" fill="#68854D"/>
<path d="M214.393 30L199 30L214.393 15L230 15L214.393 30Z" fill="#032A56"/>
<path d="M136.393 30L121 30L136.393 15L152 15L136.393 30Z" fill="#507FB5"/>
<path d="M14.8966 30L0 30L14.8966 15L30 15L14.8966 30Z" fill="#679FF5"/>
<path d="M254.897 30L240 30L254.897 15L270 15L254.897 30Z" fill="#679FF5"/>
<path d="M136.393 16L121 16L136.393 6.72854e-07L152 1.35505e-06L136.393 16Z" fill="#507FB5"/>
<path d="M14.8966 16L0 16L14.8966 6.51149e-07L30 1.31134e-06L14.8966 16Z" fill="#679FF5"/>
<path d="M254.897 16L240 16L254.897 6.51149e-07L270 1.31134e-06L254.897 16Z" fill="#679FF5"/>
<path d="M91.8966 16L77 16L91.8966 1L107 1L91.8966 16Z" fill="#68854D"/>
<path d="M213.897 15L199 15L213.897 6.51149e-07L229 1.31134e-06L213.897 15Z" fill="#032A56"/>
<path d="M165.897 15L151 15L165.897 6.51149e-07L181 1.31134e-06L165.897 15Z" fill="#507FB5"/>
<path d="M44.8966 15L30 15L44.8966 6.51149e-07L60 1.31134e-06L44.8966 15Z" fill="#679FF5"/>
<path d="M284.897 15L270 15L284.897 6.51149e-07L300 1.31134e-06L284.897 15Z" fill="#679FF5"/>
</svg>
