<svg width="12" height="248" viewBox="0 0 12 248" fill="none" xmlns="http://www.w3.org/2000/svg">
<path d="M0.661377 25.9419V19.6035L6.13197 25.9419V32.3682L0.661377 25.9419Z" fill="white"/>
<path d="M1.05176 76.0883V69.75L6.52235 76.0883V82.5147L1.05176 76.0883Z" fill="white"/>
<path d="M1.05176 38.2504V31.9121L6.52235 38.2504V44.6768L1.05176 38.2504Z" fill="white"/>
<path d="M1.05176 88.3969V82.0586L6.52235 88.3969V94.8233L1.05176 88.3969Z" fill="white"/>
<path d="M1.05176 56.2585V50.1465L6.52235 56.2585V62.4553L1.05176 56.2585Z" fill="white"/>
<path d="M1.05176 6.11197V0L6.52235 6.11197V12.3088L1.05176 6.11197Z" fill="white"/>
<path d="M1.05176 105.494V99.3818L6.52235 105.494V111.691L1.05176 105.494Z" fill="white"/>
<path d="M6.13159 56.2585V50.1465L11.6022 56.2585V62.4553L6.13159 56.2585Z" fill="white"/>
<path d="M6.13159 6.11197V0L11.6022 6.11197V12.3088L6.13159 6.11197Z" fill="white"/>
<path d="M6.13159 105.494V99.3818L11.6022 105.494V111.691L6.13159 105.494Z" fill="white"/>
<path d="M6.13159 38.0241V31.9121L11.2114 38.0241V44.2209L6.13159 38.0241Z" fill="white"/>
<path d="M6.52271 88.3969V82.0586L11.6025 88.3969V94.8233L6.52271 88.3969Z" fill="white"/>
<path d="M6.52271 68.568V62.4561L11.6025 68.568V74.7649L6.52271 68.568Z" fill="white"/>
<path d="M6.52271 18.4206V12.3086L11.6025 18.4206V24.6174L6.52271 18.4206Z" fill="white"/>
<path d="M6.52271 117.803V111.691L11.6025 117.803V124L6.52271 117.803Z" fill="white"/>
<path d="M0.661377 149.942V143.604L6.13197 149.942V156.368L0.661377 149.942Z" fill="white"/>
<path d="M1.05176 200.088V193.75L6.52235 200.088V206.515L1.05176 200.088Z" fill="white"/>
<path d="M1.05176 162.25V155.912L6.52235 162.25V168.677L1.05176 162.25Z" fill="white"/>
<path d="M1.05176 212.397V206.059L6.52235 212.397V218.823L1.05176 212.397Z" fill="white"/>
<path d="M1.05176 180.258V174.146L6.52235 180.258V186.455L1.05176 180.258Z" fill="white"/>
<path d="M1.05176 130.112V124L6.52235 130.112V136.309L1.05176 130.112Z" fill="white"/>
<path d="M1.05176 229.494V223.382L6.52235 229.494V235.691L1.05176 229.494Z" fill="white"/>
<path d="M6.13159 180.258V174.146L11.6022 180.258V186.455L6.13159 180.258Z" fill="white"/>
<path d="M6.13159 130.112V124L11.6022 130.112V136.309L6.13159 130.112Z" fill="white"/>
<path d="M6.13159 229.494V223.382L11.6022 229.494V235.691L6.13159 229.494Z" fill="white"/>
<path d="M6.13159 162.024V155.912L11.2114 162.024V168.221L6.13159 162.024Z" fill="white"/>
<path d="M6.52271 212.397V206.059L11.6025 212.397V218.823L6.52271 212.397Z" fill="white"/>
<path d="M6.52271 192.568V186.456L11.6025 192.568V198.765L6.52271 192.568Z" fill="white"/>
<path d="M6.52271 142.421V136.309L11.6025 142.421V148.617L6.52271 142.421Z" fill="white"/>
<path d="M6.52271 241.803V235.691L11.6025 241.803V248L6.52271 241.803Z" fill="white"/>
</svg>
