<svg width="207" height="404" viewBox="0 0 207 404" fill="none" xmlns="http://www.w3.org/2000/svg">
<path d="M51 50.1517V0L0 50.1517V101L51 50.1517Z" fill="#3768B1" fill-opacity="0.15"/>
<path d="M51 151.152V101L0 151.152V202L51 151.152Z" fill="#3768B1" fill-opacity="0.15"/>
<path d="M51 353.152V303L0 353.152V404L51 353.152Z" fill="#3768B1" fill-opacity="0.15"/>
<path d="M103 50.1517V0L52 50.1517V101L103 50.1517Z" fill="#3768B1" fill-opacity="0.15"/>
<path d="M103 151.152V101L52 151.152V202L103 151.152Z" fill="#3768B1" fill-opacity="0.15"/>
<path d="M102 252.152V202L51 252.152V303L102 252.152Z" fill="#3768B1" fill-opacity="0.15"/>
<path d="M155 151.152V101L104 151.152V202L155 151.152Z" fill="#3768B1" fill-opacity="0.15"/>
<path d="M155 353.152V303L104 353.152V404L155 353.152Z" fill="#3768B1" fill-opacity="0.15"/>
<path d="M207 50.1517V0L156 50.1517V101L207 50.1517Z" fill="#3768B1" fill-opacity="0.15"/>
<path d="M206 252.152V202L155 252.152V303L206 252.152Z" fill="#3768B1" fill-opacity="0.15"/>
<path d="M207 353.152V303L156 353.152V404L207 353.152Z" fill="#3768B1" fill-opacity="0.15"/>
</svg>
