<svg width="219" height="52" viewBox="0 0 219 52" fill="none" xmlns="http://www.w3.org/2000/svg">
<path d="M44.3091 0.751055C67.368 -1.81105 108.06 0.751055 75.0543 31.4963C80.0278 21.5493 99.4697 0.751055 44.3091 0.751055Z" fill="white"/>
<path d="M43.1602 50.9374C20.1012 53.4995 -20.591 50.9374 12.4149 20.1922C7.44141 30.1392 -12.0004 50.9374 43.1602 50.9374Z" fill="white"/>
<rect x="28.0322" y="6.62793" width="28.0324" height="1.80854" rx="0.3" fill="white"/>
<rect x="53.3518" y="13.8633" width="18.9897" height="0.904272" rx="0.3" fill="white"/>
<rect x="10.8513" y="13.8633" width="18.9897" height="0.904272" rx="0.3" fill="white"/>
<rect x="28.0322" y="44.374" width="28.0324" height="1.80854" rx="0.3" fill="white"/>
<rect x="53.3518" y="37.373" width="18.9897" height="0.904272" rx="0.3" fill="white"/>
<rect x="10.8513" y="37.373" width="18.9897" height="0.904272" rx="0.3" fill="white"/>
<rect x="30.7451" y="9.3418" width="22.6068" height="1.80854" rx="0.3" fill="white"/>
<rect x="55.1604" y="15.6719" width="15.3726" height="0.904272" rx="0.3" fill="white"/>
<rect x="12.6597" y="15.6719" width="15.3726" height="0.904272" rx="0.3" fill="white"/>
<rect x="30.7451" y="41.8955" width="22.6068" height="1.80854" rx="0.3" fill="white"/>
<rect x="55.1604" y="35.5664" width="15.3726" height="0.904272" rx="0.3" fill="white"/>
<rect x="12.6597" y="35.5664" width="15.3726" height="0.904272" rx="0.3" fill="white"/>
<rect width="1.80854" height="27.1282" rx="0.3" transform="matrix(-1 0 0 1 37.0752 12.959)" fill="white"/>
<rect width="0.904272" height="17.1812" rx="0.3" transform="matrix(-1 0 0 1 59.6816 17.4805)" fill="white"/>
<rect width="0.904272" height="17.1812" rx="0.3" transform="matrix(-1 0 0 1 17.1809 17.4805)" fill="white"/>
<rect width="1.80854" height="27.1282" rx="0.3" transform="matrix(-1 0 0 1 39.7878 12.959)" fill="white"/>
<rect width="0.904272" height="17.1812" rx="0.3" transform="matrix(-1 0 0 1 61.4902 17.4805)" fill="white"/>
<rect width="0.904272" height="17.1812" rx="0.3" transform="matrix(-1 0 0 1 18.9895 17.4805)" fill="white"/>
<rect width="1.80854" height="27.1282" rx="0.3" transform="matrix(-1 0 0 1 42.5005 12.959)" fill="white"/>
<rect width="0.904272" height="17.1812" rx="0.3" transform="matrix(-1 0 0 1 63.2988 17.4805)" fill="white"/>
<rect width="0.904272" height="17.1812" rx="0.3" transform="matrix(-1 0 0 1 20.7981 17.4805)" fill="white"/>
<rect width="1.80854" height="27.1282" rx="0.3" transform="matrix(-1 0 0 1 45.2136 12.959)" fill="white"/>
<rect width="0.904272" height="17.1812" rx="0.3" transform="matrix(-1 0 0 1 65.1074 17.4805)" fill="white"/>
<rect width="0.904272" height="17.1812" rx="0.3" transform="matrix(-1 0 0 1 22.6064 17.4805)" fill="white"/>
<rect width="1.80854" height="27.1282" rx="0.3" transform="matrix(-1 0 0 1 47.9263 12.959)" fill="white"/>
<rect width="0.904272" height="17.1812" rx="0.3" transform="matrix(-1 0 0 1 66.916 17.4805)" fill="white"/>
<rect width="0.904272" height="17.1812" rx="0.3" transform="matrix(-1 0 0 1 24.415 17.4805)" fill="white"/>
<path d="M117.754 17.9496L117.642 18.8106C117.604 19.0999 117.481 19.3356 117.271 19.5176C117.061 19.6949 116.734 19.7836 116.291 19.7836H114.149L113.652 21.5476C113.829 21.5149 113.999 21.4916 114.163 21.4776C114.326 21.4636 114.482 21.4566 114.632 21.4566C115.08 21.4566 115.472 21.5266 115.808 21.6666C116.144 21.8066 116.424 22.0003 116.648 22.2476C116.876 22.4903 117.047 22.7773 117.159 23.1086C117.271 23.4353 117.327 23.7853 117.327 24.1586C117.327 24.7559 117.222 25.3066 117.012 25.8106C116.802 26.3099 116.512 26.7416 116.144 27.1056C115.775 27.4649 115.339 27.7473 114.835 27.9526C114.335 28.1533 113.796 28.2536 113.218 28.2536C112.91 28.2536 112.62 28.2186 112.35 28.1486C112.079 28.0786 111.827 27.9853 111.594 27.8686C111.365 27.7519 111.155 27.6166 110.964 27.4626C110.777 27.3086 110.609 27.1453 110.46 26.9726L111.216 26.1046C111.374 25.9273 111.561 25.8386 111.776 25.8386C111.906 25.8386 112.023 25.8759 112.126 25.9506C112.233 26.0253 112.347 26.1093 112.469 26.2026C112.595 26.2913 112.742 26.3729 112.91 26.4476C113.082 26.5223 113.299 26.5596 113.561 26.5596C113.869 26.5596 114.128 26.4989 114.338 26.3776C114.552 26.2516 114.723 26.0883 114.849 25.8876C114.979 25.6869 115.073 25.4583 115.129 25.2016C115.185 24.9449 115.213 24.6836 115.213 24.4176C115.213 24.0023 115.103 23.6803 114.884 23.4516C114.669 23.2229 114.361 23.1086 113.96 23.1086C113.544 23.1086 113.131 23.1949 112.721 23.3676L111.468 23.0176L112.903 17.9496H117.754ZM124.167 24.2566L123.67 21.3446C123.632 21.1626 123.59 20.9479 123.544 20.7006C123.502 20.4486 123.46 20.1779 123.418 19.8886C123.306 20.1826 123.194 20.4556 123.082 20.7076C122.974 20.9549 122.881 21.1719 122.802 21.3586L121.605 24.2566H124.167ZM127.198 28.1416H125.434C125.238 28.1416 125.084 28.0973 124.972 28.0086C124.864 27.9153 124.79 27.7939 124.748 27.6446L124.433 25.8106H120.968L120.212 27.6446C120.146 27.7706 120.041 27.8849 119.897 27.9876C119.757 28.0903 119.596 28.1416 119.414 28.1416H117.622L122.494 17.9426H124.832L127.198 28.1416ZM134.651 24.4806C134.581 25.0499 134.452 25.5656 134.266 26.0276C134.079 26.4896 133.832 26.8863 133.524 27.2176C133.216 27.5489 132.847 27.8056 132.418 27.9876C131.993 28.1649 131.505 28.2536 130.955 28.2536C130.707 28.2536 130.465 28.2396 130.227 28.2116C129.993 28.1836 129.751 28.1369 129.499 28.0716L129.667 26.7626C129.681 26.6459 129.72 26.5503 129.786 26.4756C129.856 26.3963 129.965 26.3566 130.115 26.3566C130.227 26.3566 130.353 26.3706 130.493 26.3986C130.633 26.4219 130.787 26.4336 130.955 26.4336C131.333 26.4336 131.643 26.2866 131.886 25.9926C132.128 25.6939 132.289 25.2086 132.369 24.5366L133.167 17.9426H135.449L134.651 24.4806ZM142.775 20.8826L141.893 28.1416H140.787C140.274 28.1416 140.017 27.9036 140.017 27.4276V26.9656C139.667 27.4043 139.291 27.7286 138.89 27.9386C138.489 28.1486 138.071 28.2536 137.637 28.2536C137.334 28.2536 137.058 28.1929 136.811 28.0716C136.564 27.9503 136.356 27.7729 136.188 27.5396C136.025 27.3016 135.908 27.0123 135.838 26.6716C135.768 26.3263 135.761 25.9319 135.817 25.4886L136.363 20.8826H138.533L137.987 25.4886C137.964 25.6846 137.954 25.8503 137.959 25.9856C137.968 26.1209 137.994 26.2306 138.036 26.3146C138.078 26.3939 138.134 26.4523 138.204 26.4896C138.279 26.5223 138.37 26.5386 138.477 26.5386C138.626 26.5386 138.78 26.4966 138.939 26.4126C139.098 26.3239 139.252 26.2026 139.401 26.0486C139.55 25.8899 139.688 25.6986 139.814 25.4746C139.945 25.2506 140.052 25.0009 140.136 24.7256L140.605 20.8826H142.775ZM145.978 22.3806C146.155 22.0679 146.344 21.7996 146.545 21.5756C146.746 21.3516 146.951 21.1789 147.161 21.0576C147.376 20.9316 147.593 20.8616 147.812 20.8476C148.036 20.8289 148.26 20.8709 148.484 20.9736L148.092 22.9826C147.826 22.8706 147.576 22.8193 147.343 22.8286C147.114 22.8379 146.902 22.9173 146.706 23.0666C146.515 23.2159 146.34 23.4399 146.181 23.7386C146.027 24.0373 145.894 24.4199 145.782 24.8866L145.39 28.1416H143.262L144.144 20.8826H145.264C145.488 20.8826 145.663 20.9363 145.789 21.0436C145.915 21.1463 145.978 21.3166 145.978 21.5546V22.3806ZM151.421 20.8826L150.553 28.1416H148.411L149.279 20.8826H151.421ZM151.827 18.8946C151.827 19.0673 151.79 19.2306 151.715 19.3846C151.64 19.5339 151.542 19.6669 151.421 19.7836C151.3 19.8956 151.16 19.9866 151.001 20.0566C150.847 20.1219 150.688 20.1546 150.525 20.1546C150.362 20.1546 150.205 20.1219 150.056 20.0566C149.907 19.9866 149.774 19.8956 149.657 19.7836C149.545 19.6669 149.454 19.5339 149.384 19.3846C149.314 19.2306 149.279 19.0673 149.279 18.8946C149.279 18.7219 149.314 18.5586 149.384 18.4046C149.454 18.2506 149.547 18.1153 149.664 17.9986C149.785 17.8819 149.921 17.7909 150.07 17.7256C150.219 17.6556 150.376 17.6206 150.539 17.6206C150.707 17.6206 150.868 17.6533 151.022 17.7186C151.176 17.7839 151.311 17.8749 151.428 17.9916C151.549 18.1083 151.645 18.2436 151.715 18.3976C151.79 18.5516 151.827 18.7173 151.827 18.8946ZM156.955 22.4086C156.89 22.4926 156.829 22.5533 156.773 22.5906C156.717 22.6279 156.642 22.6466 156.549 22.6466C156.456 22.6466 156.362 22.6256 156.269 22.5836C156.18 22.5416 156.082 22.4949 155.975 22.4436C155.872 22.3876 155.753 22.3386 155.618 22.2966C155.487 22.2546 155.336 22.2336 155.163 22.2336C154.841 22.2336 154.61 22.2966 154.47 22.4226C154.335 22.5439 154.267 22.7026 154.267 22.8986C154.267 23.0246 154.304 23.1319 154.379 23.2206C154.458 23.3093 154.561 23.3886 154.687 23.4586C154.813 23.5286 154.955 23.5939 155.114 23.6546C155.277 23.7106 155.443 23.7759 155.611 23.8506C155.779 23.9206 155.942 24.0023 156.101 24.0956C156.264 24.1889 156.409 24.3033 156.535 24.4386C156.661 24.5739 156.761 24.7349 156.836 24.9216C156.915 25.1083 156.955 25.3299 156.955 25.5866C156.955 25.9506 156.883 26.2959 156.738 26.6226C156.593 26.9446 156.386 27.2269 156.115 27.4696C155.844 27.7076 155.515 27.8989 155.128 28.0436C154.745 28.1836 154.314 28.2536 153.833 28.2536C153.604 28.2536 153.378 28.2303 153.154 28.1836C152.93 28.1369 152.718 28.0739 152.517 27.9946C152.321 27.9153 152.141 27.8219 151.978 27.7146C151.815 27.6026 151.682 27.4836 151.579 27.3576L152.111 26.5596C152.176 26.4663 152.251 26.3939 152.335 26.3426C152.424 26.2866 152.531 26.2586 152.657 26.2586C152.774 26.2586 152.874 26.2866 152.958 26.3426C153.042 26.3986 153.133 26.4593 153.231 26.5246C153.329 26.5899 153.446 26.6506 153.581 26.7066C153.716 26.7626 153.894 26.7906 154.113 26.7906C154.421 26.7906 154.65 26.7229 154.799 26.5876C154.948 26.4476 155.023 26.2843 155.023 26.0976C155.023 25.9529 154.983 25.8339 154.904 25.7406C154.829 25.6473 154.729 25.5679 154.603 25.5026C154.477 25.4326 154.335 25.3719 154.176 25.3206C154.017 25.2646 153.854 25.2039 153.686 25.1386C153.518 25.0733 153.355 24.9986 153.196 24.9146C153.037 24.8259 152.895 24.7163 152.769 24.5856C152.643 24.4549 152.54 24.2939 152.461 24.1026C152.386 23.9113 152.349 23.6803 152.349 23.4096C152.349 23.0736 152.41 22.7469 152.531 22.4296C152.657 22.1123 152.841 21.8323 153.084 21.5896C153.331 21.3423 153.637 21.1439 154.001 20.9946C154.365 20.8453 154.79 20.7706 155.275 20.7706C155.76 20.7706 156.192 20.8546 156.57 21.0226C156.953 21.1906 157.268 21.3959 157.515 21.6386L156.955 22.4086ZM158.364 26.5736C158.364 26.5409 158.364 26.5013 158.364 26.4546C158.364 26.4079 158.366 26.3426 158.371 26.2586C158.38 26.1699 158.392 26.0556 158.406 25.9156C158.425 25.7709 158.448 25.5819 158.476 25.3486L158.847 22.3806H158.266C158.168 22.3806 158.086 22.3456 158.021 22.2756C157.956 22.2009 157.935 22.0936 157.958 21.9536L158.056 21.1066L159.155 20.8826L159.764 19.1116C159.843 18.8876 160.002 18.7756 160.24 18.7756H161.416L161.15 20.8966H162.774L162.592 22.3806H160.968L160.618 25.2296C160.595 25.4209 160.576 25.5726 160.562 25.6846C160.548 25.7919 160.536 25.8759 160.527 25.9366C160.522 25.9926 160.52 26.0323 160.52 26.0556C160.52 26.0743 160.52 26.0859 160.52 26.0906C160.52 26.2259 160.55 26.3403 160.611 26.4336C160.676 26.5223 160.777 26.5666 160.912 26.5666C160.987 26.5666 161.047 26.5596 161.094 26.5456C161.145 26.5269 161.19 26.5083 161.227 26.4896C161.264 26.4663 161.299 26.4476 161.332 26.4336C161.365 26.4149 161.402 26.4056 161.444 26.4056C161.509 26.4056 161.556 26.4219 161.584 26.4546C161.617 26.4826 161.649 26.5293 161.682 26.5946L162.158 27.6236C161.869 27.8336 161.558 27.9923 161.227 28.0996C160.896 28.2023 160.562 28.2536 160.226 28.2536C159.946 28.2536 159.694 28.2163 159.47 28.1416C159.246 28.0623 159.052 27.9503 158.889 27.8056C158.73 27.6563 158.604 27.4789 158.511 27.2736C158.422 27.0683 158.373 26.8349 158.364 26.5736ZM167.961 22.4086C167.895 22.4926 167.835 22.5533 167.779 22.5906C167.723 22.6279 167.648 22.6466 167.555 22.6466C167.461 22.6466 167.368 22.6256 167.275 22.5836C167.186 22.5416 167.088 22.4949 166.981 22.4436C166.878 22.3876 166.759 22.3386 166.624 22.2966C166.493 22.2546 166.341 22.2336 166.169 22.2336C165.847 22.2336 165.616 22.2966 165.476 22.4226C165.34 22.5439 165.273 22.7026 165.273 22.8986C165.273 23.0246 165.31 23.1319 165.385 23.2206C165.464 23.3093 165.567 23.3886 165.693 23.4586C165.819 23.5286 165.961 23.5939 166.12 23.6546C166.283 23.7106 166.449 23.7759 166.617 23.8506C166.785 23.9206 166.948 24.0023 167.107 24.0956C167.27 24.1889 167.415 24.3033 167.541 24.4386C167.667 24.5739 167.767 24.7349 167.842 24.9216C167.921 25.1083 167.961 25.3299 167.961 25.5866C167.961 25.9506 167.888 26.2959 167.744 26.6226C167.599 26.9446 167.391 27.2269 167.121 27.4696C166.85 27.7076 166.521 27.8989 166.134 28.0436C165.751 28.1836 165.319 28.2536 164.839 28.2536C164.61 28.2536 164.384 28.2303 164.16 28.1836C163.936 28.1369 163.723 28.0739 163.523 27.9946C163.327 27.9153 163.147 27.8219 162.984 27.7146C162.82 27.6026 162.687 27.4836 162.585 27.3576L163.117 26.5596C163.182 26.4663 163.257 26.3939 163.341 26.3426C163.429 26.2866 163.537 26.2586 163.663 26.2586C163.779 26.2586 163.88 26.2866 163.964 26.3426C164.048 26.3986 164.139 26.4593 164.237 26.5246C164.335 26.5899 164.451 26.6506 164.587 26.7066C164.722 26.7626 164.899 26.7906 165.119 26.7906C165.427 26.7906 165.655 26.7229 165.805 26.5876C165.954 26.4476 166.029 26.2843 166.029 26.0976C166.029 25.9529 165.989 25.8339 165.91 25.7406C165.835 25.6473 165.735 25.5679 165.609 25.5026C165.483 25.4326 165.34 25.3719 165.182 25.3206C165.023 25.2646 164.86 25.2039 164.692 25.1386C164.524 25.0733 164.36 24.9986 164.202 24.9146C164.043 24.8259 163.901 24.7163 163.775 24.5856C163.649 24.4549 163.546 24.2939 163.467 24.1026C163.392 23.9113 163.355 23.6803 163.355 23.4096C163.355 23.0736 163.415 22.7469 163.537 22.4296C163.663 22.1123 163.847 21.8323 164.09 21.5896C164.337 21.3423 164.643 21.1439 165.007 20.9946C165.371 20.8453 165.795 20.7706 166.281 20.7706C166.766 20.7706 167.198 20.8546 167.576 21.0226C167.958 21.1906 168.273 21.3959 168.521 21.6386L167.961 22.4086ZM87.3855 43.3776C87.6422 43.3776 87.8639 43.3589 88.0505 43.3216C88.2419 43.2796 88.4052 43.2283 88.5405 43.1676C88.6759 43.1069 88.7902 43.0416 88.8835 42.9716C88.9769 42.8969 89.0609 42.8293 89.1355 42.7686C89.2102 42.7079 89.2802 42.6589 89.3455 42.6216C89.4109 42.5796 89.4809 42.5586 89.5555 42.5586C89.6302 42.5586 89.6909 42.5726 89.7375 42.6006C89.7889 42.6239 89.8262 42.6519 89.8495 42.6846L90.6475 43.6436C90.2042 44.1709 89.6769 44.5723 89.0655 44.8476C88.4589 45.1183 87.7682 45.2536 86.9935 45.2536C86.3495 45.2536 85.7779 45.1416 85.2785 44.9176C84.7839 44.6889 84.3662 44.3763 84.0255 43.9796C83.6849 43.5829 83.4259 43.1139 83.2485 42.5726C83.0759 42.0266 82.9895 41.4386 82.9895 40.8086C82.9895 40.2253 83.0549 39.6723 83.1855 39.1496C83.3162 38.6269 83.5005 38.1439 83.7385 37.7006C83.9765 37.2573 84.2612 36.8583 84.5925 36.5036C84.9285 36.1489 85.2995 35.8479 85.7055 35.6006C86.1115 35.3533 86.5479 35.1643 87.0145 35.0336C87.4812 34.8983 87.9689 34.8306 88.4775 34.8306C88.8602 34.8306 89.2079 34.8679 89.5205 34.9426C89.8379 35.0126 90.1225 35.1129 90.3745 35.2436C90.6312 35.3696 90.8599 35.5213 91.0605 35.6986C91.2612 35.8759 91.4362 36.0719 91.5855 36.2866L90.7875 37.2106C90.7315 37.2759 90.6662 37.3343 90.5915 37.3856C90.5169 37.4369 90.4189 37.4626 90.2975 37.4626C90.2182 37.4626 90.1459 37.4439 90.0805 37.4066C90.0152 37.3693 89.9475 37.3249 89.8775 37.2736C89.8122 37.2176 89.7375 37.1569 89.6535 37.0916C89.5695 37.0263 89.4692 36.9679 89.3525 36.9166C89.2359 36.8606 89.0959 36.8139 88.9325 36.7766C88.7739 36.7393 88.5849 36.7206 88.3655 36.7206C87.9362 36.7206 87.5349 36.8116 87.1615 36.9936C86.7929 37.1756 86.4709 37.4369 86.1955 37.7776C85.9249 38.1136 85.7125 38.5243 85.5585 39.0096C85.4045 39.4903 85.3275 40.0293 85.3275 40.6266C85.3275 41.0606 85.3789 41.4479 85.4815 41.7886C85.5889 42.1293 85.7335 42.4186 85.9155 42.6566C86.0975 42.8899 86.3145 43.0696 86.5665 43.1956C86.8185 43.3169 87.0915 43.3776 87.3855 43.3776ZM94.1917 43.6436C94.4344 43.6436 94.6514 43.5713 94.8427 43.4266C95.0341 43.2773 95.1951 43.0766 95.3257 42.8246C95.4611 42.5679 95.5637 42.2716 95.6337 41.9356C95.7084 41.5949 95.7457 41.2333 95.7457 40.8506C95.7457 40.3233 95.6734 39.9476 95.5287 39.7236C95.3887 39.4949 95.1577 39.3806 94.8357 39.3806C94.5931 39.3806 94.3761 39.4553 94.1847 39.6046C93.9934 39.7493 93.8301 39.9476 93.6947 40.1996C93.5641 40.4516 93.4614 40.7479 93.3867 41.0886C93.3167 41.4293 93.2817 41.7909 93.2817 42.1736C93.2817 42.6916 93.3517 43.0673 93.4917 43.3006C93.6364 43.5293 93.8697 43.6436 94.1917 43.6436ZM93.9957 45.2536C93.5897 45.2536 93.2094 45.1859 92.8547 45.0506C92.5047 44.9153 92.1991 44.7193 91.9377 44.4626C91.6811 44.2013 91.4781 43.8816 91.3287 43.5036C91.1841 43.1209 91.1117 42.6823 91.1117 42.1876C91.1117 41.5436 91.2167 40.9533 91.4267 40.4166C91.6414 39.8753 91.9284 39.4086 92.2877 39.0166C92.6471 38.6246 93.0624 38.3189 93.5337 38.0996C94.0097 37.8803 94.5091 37.7706 95.0317 37.7706C95.4377 37.7706 95.8157 37.8383 96.1657 37.9736C96.5157 38.1089 96.8191 38.3073 97.0757 38.5686C97.3371 38.8253 97.5424 39.1449 97.6917 39.5276C97.8411 39.9056 97.9157 40.3419 97.9157 40.8366C97.9157 41.4713 97.8084 42.0593 97.5937 42.6006C97.3837 43.1373 97.0991 43.6039 96.7397 44.0006C96.3804 44.3926 95.9627 44.7006 95.4867 44.9246C95.0154 45.1439 94.5184 45.2536 93.9957 45.2536ZM101.155 39.1356C101.505 38.6689 101.887 38.3259 102.303 38.1066C102.718 37.8826 103.147 37.7706 103.591 37.7706C103.889 37.7706 104.162 37.8313 104.41 37.9526C104.662 38.0739 104.869 38.2513 105.033 38.4846C105.201 38.7179 105.32 39.0073 105.39 39.3526C105.46 39.6933 105.467 40.0853 105.411 40.5286L104.865 45.1416H102.695L103.241 40.5286C103.264 40.3326 103.271 40.1669 103.262 40.0316C103.257 39.8963 103.234 39.7889 103.192 39.7096C103.15 39.6303 103.091 39.5743 103.017 39.5416C102.942 39.5043 102.853 39.4856 102.751 39.4856C102.592 39.4856 102.426 39.5346 102.254 39.6326C102.081 39.7306 101.915 39.8706 101.757 40.0526C101.603 40.2299 101.46 40.4469 101.33 40.7036C101.199 40.9556 101.096 41.2356 101.022 41.5436L100.623 45.1416H98.4525L99.3205 37.8826H100.441C100.665 37.8826 100.84 37.9363 100.966 38.0436C101.092 38.1463 101.155 38.3166 101.155 38.5546V39.1356ZM111.154 39.4086C111.089 39.4926 111.028 39.5533 110.972 39.5906C110.916 39.6279 110.841 39.6466 110.748 39.6466C110.655 39.6466 110.561 39.6256 110.468 39.5836C110.379 39.5416 110.281 39.4949 110.174 39.4436C110.071 39.3876 109.952 39.3386 109.817 39.2966C109.686 39.2546 109.535 39.2336 109.362 39.2336C109.04 39.2336 108.809 39.2966 108.669 39.4226C108.534 39.5439 108.466 39.7026 108.466 39.8986C108.466 40.0246 108.503 40.1319 108.578 40.2206C108.657 40.3093 108.76 40.3886 108.886 40.4586C109.012 40.5286 109.154 40.5939 109.313 40.6546C109.476 40.7106 109.642 40.7759 109.81 40.8506C109.978 40.9206 110.141 41.0023 110.3 41.0956C110.463 41.1889 110.608 41.3033 110.734 41.4386C110.86 41.5739 110.96 41.7349 111.035 41.9216C111.114 42.1083 111.154 42.3299 111.154 42.5866C111.154 42.9506 111.082 43.2959 110.937 43.6226C110.792 43.9446 110.585 44.2269 110.314 44.4696C110.043 44.7076 109.714 44.8989 109.327 45.0436C108.944 45.1836 108.513 45.2536 108.032 45.2536C107.803 45.2536 107.577 45.2303 107.353 45.1836C107.129 45.1369 106.917 45.0739 106.716 44.9946C106.52 44.9153 106.34 44.8219 106.177 44.7146C106.014 44.6026 105.881 44.4836 105.778 44.3576L106.31 43.5596C106.375 43.4663 106.45 43.3939 106.534 43.3426C106.623 43.2866 106.73 43.2586 106.856 43.2586C106.973 43.2586 107.073 43.2866 107.157 43.3426C107.241 43.3986 107.332 43.4593 107.43 43.5246C107.528 43.5899 107.645 43.6506 107.78 43.7066C107.915 43.7626 108.093 43.7906 108.312 43.7906C108.62 43.7906 108.849 43.7229 108.998 43.5876C109.147 43.4476 109.222 43.2843 109.222 43.0976C109.222 42.9529 109.182 42.8339 109.103 42.7406C109.028 42.6473 108.928 42.5679 108.802 42.5026C108.676 42.4326 108.534 42.3719 108.375 42.3206C108.216 42.2646 108.053 42.2039 107.885 42.1386C107.717 42.0733 107.554 41.9986 107.395 41.9146C107.236 41.8259 107.094 41.7163 106.968 41.5856C106.842 41.4549 106.739 41.2939 106.66 41.1026C106.585 40.9113 106.548 40.6803 106.548 40.4096C106.548 40.0736 106.609 39.7469 106.73 39.4296C106.856 39.1123 107.04 38.8323 107.283 38.5896C107.53 38.3423 107.836 38.1439 108.2 37.9946C108.564 37.8453 108.989 37.7706 109.474 37.7706C109.959 37.7706 110.391 37.8546 110.769 38.0226C111.152 38.1906 111.467 38.3959 111.714 38.6386L111.154 39.4086ZM119.136 37.8826L118.254 45.1416H117.148C116.635 45.1416 116.378 44.9036 116.378 44.4276V43.9656C116.028 44.4043 115.653 44.7286 115.251 44.9386C114.85 45.1486 114.432 45.2536 113.998 45.2536C113.695 45.2536 113.42 45.1929 113.172 45.0716C112.925 44.9503 112.717 44.7729 112.549 44.5396C112.386 44.3016 112.269 44.0123 112.199 43.6716C112.129 43.3263 112.122 42.9319 112.178 42.4886L112.724 37.8826H114.894L114.348 42.4886C114.325 42.6846 114.316 42.8503 114.32 42.9856C114.33 43.1209 114.355 43.2306 114.397 43.3146C114.439 43.3939 114.495 43.4523 114.565 43.4896C114.64 43.5223 114.731 43.5386 114.838 43.5386C114.988 43.5386 115.142 43.4966 115.3 43.4126C115.459 43.3239 115.613 43.2026 115.762 43.0486C115.912 42.8899 116.049 42.6986 116.175 42.4746C116.306 42.2506 116.413 42.0009 116.497 41.7256L116.966 37.8826H119.136ZM119.623 45.1416L120.897 34.6626H123.039L121.765 45.1416H119.623ZM123.788 43.5736C123.788 43.5409 123.788 43.5013 123.788 43.4546C123.788 43.4079 123.79 43.3426 123.795 43.2586C123.804 43.1699 123.816 43.0556 123.83 42.9156C123.849 42.7709 123.872 42.5819 123.9 42.3486L124.271 39.3806H123.69C123.592 39.3806 123.51 39.3456 123.445 39.2756C123.38 39.2009 123.359 39.0936 123.382 38.9536L123.48 38.1066L124.579 37.8826L125.188 36.1116C125.267 35.8876 125.426 35.7756 125.664 35.7756H126.84L126.574 37.8966H128.198L128.016 39.3806H126.392L126.042 42.2296C126.019 42.4209 126 42.5726 125.986 42.6846C125.972 42.7919 125.96 42.8759 125.951 42.9366C125.946 42.9926 125.944 43.0323 125.944 43.0556C125.944 43.0743 125.944 43.0859 125.944 43.0906C125.944 43.2259 125.974 43.3403 126.035 43.4336C126.1 43.5223 126.201 43.5666 126.336 43.5666C126.411 43.5666 126.471 43.5596 126.518 43.5456C126.569 43.5269 126.614 43.5083 126.651 43.4896C126.688 43.4663 126.723 43.4476 126.756 43.4336C126.789 43.4149 126.826 43.4056 126.868 43.4056C126.933 43.4056 126.98 43.4219 127.008 43.4546C127.041 43.4826 127.073 43.5293 127.106 43.5946L127.582 44.6236C127.293 44.8336 126.982 44.9923 126.651 45.0996C126.32 45.2023 125.986 45.2536 125.65 45.2536C125.37 45.2536 125.118 45.2163 124.894 45.1416C124.67 45.0623 124.476 44.9503 124.313 44.8056C124.154 44.6563 124.028 44.4789 123.935 44.2736C123.846 44.0683 123.797 43.8349 123.788 43.5736ZM132.786 39.2616C132.432 39.2616 132.107 39.3409 131.813 39.4996C131.524 39.6583 131.274 39.8753 131.064 40.1506C130.854 40.4213 130.691 40.7386 130.574 41.1026C130.462 41.4619 130.406 41.8469 130.406 42.2576C130.406 42.4909 130.425 42.6893 130.462 42.8526C130.5 43.0159 130.549 43.1489 130.609 43.2516C130.675 43.3496 130.749 43.4219 130.833 43.4686C130.922 43.5153 131.018 43.5386 131.12 43.5386C131.279 43.5386 131.433 43.4803 131.582 43.3636C131.732 43.2423 131.872 43.0789 132.002 42.8736C132.138 42.6683 132.261 42.4279 132.373 42.1526C132.485 41.8773 132.581 41.5833 132.66 41.2706L132.919 39.2616H132.786ZM132.45 43.9306C132.156 44.3413 131.825 44.6656 131.456 44.9036C131.092 45.1369 130.691 45.2536 130.252 45.2536C129.991 45.2536 129.739 45.2023 129.496 45.0996C129.254 44.9923 129.039 44.8336 128.852 44.6236C128.666 44.4089 128.516 44.1383 128.404 43.8116C128.292 43.4803 128.236 43.0906 128.236 42.6426C128.236 41.9846 128.355 41.3616 128.593 40.7736C128.836 40.1809 129.172 39.6629 129.601 39.2196C130.035 38.7763 130.549 38.4239 131.141 38.1626C131.734 37.9013 132.385 37.7706 133.094 37.7706C133.44 37.7706 133.79 37.7939 134.144 37.8406C134.499 37.8873 134.849 37.9713 135.194 38.0926L134.312 45.1416H133.15C133.015 45.1416 132.901 45.1253 132.807 45.0926C132.719 45.0553 132.646 45.0063 132.59 44.9456C132.539 44.8849 132.502 44.8126 132.478 44.7286C132.46 44.6446 132.45 44.5536 132.45 44.4556V43.9306ZM138.383 39.1356C138.733 38.6689 139.116 38.3259 139.531 38.1066C139.946 37.8826 140.376 37.7706 140.819 37.7706C141.118 37.7706 141.391 37.8313 141.638 37.9526C141.89 38.0739 142.098 38.2513 142.261 38.4846C142.429 38.7179 142.548 39.0073 142.618 39.3526C142.688 39.6933 142.695 40.0853 142.639 40.5286L142.093 45.1416H139.923L140.469 40.5286C140.492 40.3326 140.499 40.1669 140.49 40.0316C140.485 39.8963 140.462 39.7889 140.42 39.7096C140.378 39.6303 140.32 39.5743 140.245 39.5416C140.17 39.5043 140.082 39.4856 139.979 39.4856C139.82 39.4856 139.655 39.5346 139.482 39.6326C139.309 39.7306 139.144 39.8706 138.985 40.0526C138.831 40.2299 138.689 40.4469 138.558 40.7036C138.427 40.9556 138.325 41.2356 138.25 41.5436L137.851 45.1416H135.681L136.549 37.8826H137.669C137.893 37.8826 138.068 37.9363 138.194 38.0436C138.32 38.1463 138.383 38.3166 138.383 38.5546V39.1356ZM149.146 43.8676C148.912 44.1243 148.688 44.3413 148.474 44.5186C148.259 44.6959 148.037 44.8383 147.809 44.9456C147.58 45.0529 147.335 45.1299 147.074 45.1766C146.817 45.2279 146.532 45.2536 146.22 45.2536C145.795 45.2536 145.412 45.1813 145.072 45.0366C144.731 44.8919 144.439 44.6866 144.197 44.4206C143.959 44.1546 143.774 43.8326 143.644 43.4546C143.513 43.0766 143.448 42.6519 143.448 42.1806C143.448 41.5879 143.543 41.0256 143.735 40.4936C143.931 39.9616 144.201 39.4949 144.547 39.0936C144.897 38.6923 145.31 38.3749 145.786 38.1416C146.262 37.9036 146.784 37.7846 147.354 37.7846C147.839 37.7846 148.254 37.8686 148.6 38.0366C148.95 38.1999 149.262 38.4589 149.538 38.8136L148.838 39.6186C148.786 39.6699 148.728 39.7166 148.663 39.7586C148.597 39.7959 148.525 39.8146 148.446 39.8146C148.352 39.8146 148.273 39.7959 148.208 39.7586C148.147 39.7166 148.079 39.6746 148.005 39.6326C147.93 39.5859 147.839 39.5439 147.732 39.5066C147.624 39.4646 147.484 39.4436 147.312 39.4436C147.097 39.4436 146.887 39.5066 146.682 39.6326C146.481 39.7539 146.301 39.9313 146.143 40.1646C145.984 40.3979 145.856 40.6849 145.758 41.0256C145.664 41.3663 145.618 41.7536 145.618 42.1876C145.618 42.4303 145.646 42.6426 145.702 42.8246C145.758 43.0019 145.835 43.1513 145.933 43.2726C146.031 43.3893 146.145 43.4779 146.276 43.5386C146.406 43.5993 146.546 43.6296 146.696 43.6296C146.92 43.6296 147.099 43.5993 147.235 43.5386C147.375 43.4733 147.496 43.4033 147.599 43.3286C147.701 43.2539 147.797 43.1863 147.886 43.1256C147.974 43.0603 148.082 43.0276 148.208 43.0276C148.278 43.0276 148.345 43.0463 148.411 43.0836C148.476 43.1163 148.534 43.1583 148.586 43.2096L149.146 43.8676ZM156.948 37.8826L152.244 47.0316C152.095 47.3069 151.871 47.4446 151.572 47.4446H149.948L151.607 44.4906L149.808 37.8826H151.642C151.796 37.8826 151.91 37.9199 151.985 37.9946C152.064 38.0693 152.118 38.1579 152.146 38.2606L152.776 41.3896C152.804 41.5249 152.83 41.6603 152.853 41.7956C152.876 41.9309 152.895 42.0663 152.909 42.2016C152.97 42.0616 153.03 41.9239 153.091 41.7886C153.152 41.6486 153.215 41.5109 153.28 41.3756L154.624 38.2606C154.68 38.1533 154.762 38.0646 154.869 37.9946C154.976 37.9199 155.086 37.8826 155.198 37.8826H156.948ZM164.621 39.8986H168.023L167.491 44.1616C167.229 44.3529 166.959 44.5186 166.679 44.6586C166.399 44.7939 166.105 44.9059 165.797 44.9946C165.493 45.0833 165.171 45.1486 164.831 45.1906C164.495 45.2326 164.135 45.2536 163.753 45.2536C163.123 45.2536 162.546 45.1393 162.024 44.9106C161.506 44.6773 161.06 44.3576 160.687 43.9516C160.318 43.5456 160.031 43.0649 159.826 42.5096C159.625 41.9543 159.525 41.3523 159.525 40.7036C159.525 40.1389 159.588 39.6023 159.714 39.0936C159.844 38.5803 160.029 38.1066 160.267 37.6726C160.505 37.2386 160.789 36.8466 161.121 36.4966C161.457 36.1466 161.828 35.8479 162.234 35.6006C162.644 35.3533 163.085 35.1643 163.557 35.0336C164.028 34.8983 164.523 34.8306 165.041 34.8306C165.475 34.8306 165.867 34.8703 166.217 34.9496C166.571 35.0289 166.889 35.1363 167.169 35.2716C167.449 35.4023 167.698 35.5563 167.918 35.7336C168.137 35.9063 168.331 36.0859 168.499 36.2726L167.757 37.1896C167.635 37.3529 167.491 37.4533 167.323 37.4906C167.155 37.5233 166.982 37.4836 166.805 37.3716C166.641 37.2596 166.487 37.1639 166.343 37.0846C166.198 37.0006 166.051 36.9329 165.902 36.8816C165.752 36.8256 165.594 36.7859 165.426 36.7626C165.262 36.7346 165.078 36.7206 164.873 36.7206C164.429 36.7206 164.023 36.8163 163.655 37.0076C163.286 37.1943 162.969 37.4603 162.703 37.8056C162.437 38.1463 162.229 38.5569 162.08 39.0376C161.935 39.5183 161.863 40.0479 161.863 40.6266C161.863 41.0746 161.916 41.4783 162.024 41.8376C162.136 42.1923 162.292 42.4933 162.493 42.7406C162.693 42.9833 162.934 43.1699 163.214 43.3006C163.494 43.4313 163.804 43.4966 164.145 43.4966C164.425 43.4966 164.677 43.4733 164.901 43.4266C165.125 43.3753 165.339 43.3053 165.545 43.2166L165.741 41.5506H164.873C164.733 41.5506 164.625 41.5156 164.551 41.4456C164.481 41.3709 164.453 41.2753 164.467 41.1586L164.621 39.8986ZM171.285 39.3806C171.462 39.0679 171.651 38.7996 171.852 38.5756C172.052 38.3516 172.258 38.1789 172.468 38.0576C172.682 37.9316 172.899 37.8616 173.119 37.8476C173.343 37.8289 173.567 37.8709 173.791 37.9736L173.399 39.9826C173.133 39.8706 172.883 39.8193 172.65 39.8286C172.421 39.8379 172.209 39.9173 172.013 40.0666C171.821 40.2159 171.646 40.4399 171.488 40.7386C171.334 41.0373 171.201 41.4199 171.089 41.8866L170.697 45.1416H168.569L169.451 37.8826H170.571C170.795 37.8826 170.97 37.9363 171.096 38.0436C171.222 38.1463 171.285 38.3166 171.285 38.5546V39.3806ZM176.688 43.6436C176.93 43.6436 177.147 43.5713 177.339 43.4266C177.53 43.2773 177.691 43.0766 177.822 42.8246C177.957 42.5679 178.06 42.2716 178.13 41.9356C178.204 41.5949 178.242 41.2333 178.242 40.8506C178.242 40.3233 178.169 39.9476 178.025 39.7236C177.885 39.4949 177.654 39.3806 177.332 39.3806C177.089 39.3806 176.872 39.4553 176.681 39.6046C176.489 39.7493 176.326 39.9476 176.191 40.1996C176.06 40.4516 175.957 40.7479 175.883 41.0886C175.813 41.4293 175.778 41.7909 175.778 42.1736C175.778 42.6916 175.848 43.0673 175.988 43.3006C176.132 43.5293 176.366 43.6436 176.688 43.6436ZM176.492 45.2536C176.086 45.2536 175.705 45.1859 175.351 45.0506C175.001 44.9153 174.695 44.7193 174.434 44.4626C174.177 44.2013 173.974 43.8816 173.825 43.5036C173.68 43.1209 173.608 42.6823 173.608 42.1876C173.608 41.5436 173.713 40.9533 173.923 40.4166C174.137 39.8753 174.424 39.4086 174.784 39.0166C175.143 38.6246 175.558 38.3189 176.03 38.0996C176.506 37.8803 177.005 37.7706 177.528 37.7706C177.934 37.7706 178.312 37.8383 178.662 37.9736C179.012 38.1089 179.315 38.3073 179.572 38.5686C179.833 38.8253 180.038 39.1449 180.188 39.5276C180.337 39.9056 180.412 40.3419 180.412 40.8366C180.412 41.4713 180.304 42.0593 180.09 42.6006C179.88 43.1373 179.595 43.6039 179.236 44.0006C178.876 44.3926 178.459 44.7006 177.983 44.9246C177.511 45.1439 177.014 45.2536 176.492 45.2536ZM188.166 37.8826L187.284 45.1416H186.178C185.664 45.1416 185.408 44.9036 185.408 44.4276V43.9656C185.058 44.4043 184.682 44.7286 184.281 44.9386C183.879 45.1486 183.462 45.2536 183.028 45.2536C182.724 45.2536 182.449 45.1929 182.202 45.0716C181.954 44.9503 181.747 44.7729 181.579 44.5396C181.415 44.3016 181.299 44.0123 181.229 43.6716C181.159 43.3263 181.152 42.9319 181.208 42.4886L181.754 37.8826H183.924L183.378 42.4886C183.354 42.6846 183.345 42.8503 183.35 42.9856C183.359 43.1209 183.385 43.2306 183.427 43.3146C183.469 43.3939 183.525 43.4523 183.595 43.4896C183.669 43.5223 183.76 43.5386 183.868 43.5386C184.017 43.5386 184.171 43.4966 184.33 43.4126C184.488 43.3239 184.642 43.2026 184.792 43.0486C184.941 42.8899 185.079 42.6986 185.205 42.4746C185.335 42.2506 185.443 42.0009 185.527 41.7256L185.996 37.8826H188.166ZM190.991 43.3566C191.126 43.4639 191.275 43.5409 191.439 43.5876C191.607 43.6343 191.765 43.6576 191.915 43.6576C192.167 43.6576 192.398 43.5736 192.608 43.4056C192.822 43.2376 193.007 43.0183 193.161 42.7476C193.315 42.4723 193.434 42.1596 193.518 41.8096C193.606 41.4596 193.651 41.1026 193.651 40.7386C193.651 40.2766 193.583 39.9406 193.448 39.7306C193.312 39.5206 193.133 39.4156 192.909 39.4156C192.759 39.4156 192.603 39.4739 192.44 39.5906C192.281 39.7026 192.125 39.8566 191.971 40.0526C191.821 40.2486 191.679 40.4796 191.544 40.7456C191.413 41.0116 191.301 41.2963 191.208 41.5996L190.991 43.3566ZM191.369 39.2126C191.705 38.7646 192.073 38.4123 192.475 38.1556C192.881 37.8989 193.315 37.7706 193.777 37.7706C194.075 37.7706 194.348 37.8243 194.596 37.9316C194.843 38.0343 195.055 38.1976 195.233 38.4216C195.415 38.6456 195.555 38.9326 195.653 39.2826C195.755 39.6279 195.807 40.0409 195.807 40.5216C195.807 41.1563 195.709 41.7606 195.513 42.3346C195.321 42.9039 195.062 43.4056 194.736 43.8396C194.409 44.2736 194.031 44.6189 193.602 44.8756C193.177 45.1276 192.731 45.2536 192.265 45.2536C191.966 45.2536 191.695 45.2046 191.453 45.1066C191.215 45.0086 191.005 44.8779 190.823 44.7146L190.487 47.4446H188.373L189.535 37.8826H190.655C190.879 37.8826 191.054 37.9363 191.18 38.0436C191.306 38.1463 191.369 38.3166 191.369 38.5546V39.2126Z" fill="white"/>
</svg>
