<svg width="292" height="80" viewBox="0 0 292 80" fill="none" xmlns="http://www.w3.org/2000/svg">
<path d="M67.8799 1.15059C103.205 -2.77446 165.544 1.15059 114.98 48.2512C122.6 33.0128 152.384 1.15059 67.8799 1.15059Z" fill="white"/>
<path d="M66.1196 78.034C30.7942 81.959 -31.5448 78.034 19.019 30.9334C11.3998 46.1718 -18.3844 78.034 66.1196 78.034Z" fill="white"/>
<rect x="42.9443" y="10.1533" width="42.9447" height="2.77062" rx="0.3" fill="white"/>
<rect x="81.7334" y="21.2373" width="29.0915" height="1.38531" rx="0.3" fill="white"/>
<rect x="16.6235" y="21.2373" width="29.0915" height="1.38531" rx="0.3" fill="white"/>
<rect x="42.9443" y="67.9795" width="42.9447" height="2.77062" rx="0.3" fill="white"/>
<rect x="81.7334" y="57.2539" width="29.0915" height="1.38531" rx="0.3" fill="white"/>
<rect x="16.6235" y="57.2539" width="29.0915" height="1.38531" rx="0.3" fill="white"/>
<rect x="47.1006" y="14.3105" width="34.6328" height="2.77062" rx="0.3" fill="white"/>
<rect x="84.5044" y="24.0088" width="23.5503" height="1.38531" rx="0.3" fill="white"/>
<rect x="19.3945" y="24.0088" width="23.5503" height="1.38531" rx="0.3" fill="white"/>
<rect x="47.1006" y="64.1826" width="34.6328" height="2.77062" rx="0.3" fill="white"/>
<rect x="84.5044" y="54.4873" width="23.5503" height="1.38531" rx="0.3" fill="white"/>
<rect x="19.3945" y="54.4873" width="23.5503" height="1.38531" rx="0.3" fill="white"/>
<rect width="2.77062" height="41.5593" rx="0.3" transform="matrix(-1 0 0 1 56.7979 19.8525)" fill="white"/>
<rect width="1.38531" height="26.3209" rx="0.3" transform="matrix(-1 0 0 1 91.4297 26.7803)" fill="white"/>
<rect width="1.38531" height="26.3209" rx="0.3" transform="matrix(-1 0 0 1 26.3203 26.7803)" fill="white"/>
<rect width="2.77062" height="41.5593" rx="0.3" transform="matrix(-1 0 0 1 60.9541 19.8525)" fill="white"/>
<rect width="1.38531" height="26.3209" rx="0.3" transform="matrix(-1 0 0 1 94.2012 26.7803)" fill="white"/>
<rect width="1.38531" height="26.3209" rx="0.3" transform="matrix(-1 0 0 1 29.0908 26.7803)" fill="white"/>
<rect width="2.77062" height="41.5593" rx="0.3" transform="matrix(-1 0 0 1 65.1094 19.8525)" fill="white"/>
<rect width="1.38531" height="26.3209" rx="0.3" transform="matrix(-1 0 0 1 96.9717 26.7803)" fill="white"/>
<rect width="1.38531" height="26.3209" rx="0.3" transform="matrix(-1 0 0 1 31.8623 26.7803)" fill="white"/>
<rect width="2.77062" height="41.5593" rx="0.3" transform="matrix(-1 0 0 1 69.2651 19.8525)" fill="white"/>
<rect width="1.38531" height="26.3209" rx="0.3" transform="matrix(-1 0 0 1 99.7427 26.7803)" fill="white"/>
<rect width="1.38531" height="26.3209" rx="0.3" transform="matrix(-1 0 0 1 34.6328 26.7803)" fill="white"/>
<rect width="2.77062" height="41.5593" rx="0.3" transform="matrix(-1 0 0 1 73.4219 19.8525)" fill="white"/>
<rect width="1.38531" height="26.3209" rx="0.3" transform="matrix(-1 0 0 1 102.513 26.7803)" fill="white"/>
<rect width="1.38531" height="26.3209" rx="0.3" transform="matrix(-1 0 0 1 37.4033 26.7803)" fill="white"/>
<path d="M161.909 31.24C160.729 31.24 159.579 31.02 158.459 30.58C157.339 30.14 156.469 29.61 155.849 28.99L158.099 25.51C158.459 25.95 158.969 26.32 159.629 26.62C160.309 26.9 160.959 27.04 161.579 27.04C162.039 27.04 162.469 26.94 162.869 26.74C163.269 26.54 163.589 26.24 163.829 25.84C164.069 25.44 164.189 24.95 164.189 24.37C164.189 23.73 164.059 23.17 163.799 22.69C163.559 22.21 163.199 21.84 162.719 21.58C162.259 21.3 161.709 21.16 161.069 21.16C160.449 21.16 159.859 21.25 159.299 21.43C158.739 21.59 158.079 21.87 157.319 22.27H157.289V11.11H167.219V15.31H161.039V18.52L160.529 17.62C160.809 17.58 161.079 17.55 161.339 17.53C161.599 17.51 161.859 17.5 162.119 17.5C163.519 17.5 164.699 17.81 165.659 18.43C166.639 19.05 167.389 19.87 167.909 20.89C168.429 21.91 168.689 23.02 168.689 24.22C168.689 25.54 168.389 26.73 167.789 27.79C167.189 28.85 166.369 29.69 165.329 30.31C164.309 30.93 163.169 31.24 161.909 31.24ZM170.537 31L180.497 8.05H180.737L190.697 31H185.657L179.297 14.86L182.447 12.7L174.827 31H170.537ZM177.347 23.02H183.977L185.507 26.68H175.997L177.347 23.02ZM203.671 8.92H208.021V26.8H218.401V31H203.671V8.92ZM220.4 31L230.36 8.05H230.6L240.56 31H235.52L229.16 14.86L232.31 12.7L224.69 31H220.4ZM227.21 23.02H233.84L235.37 26.68H225.86L227.21 23.02ZM238.607 9.07H243.707L248.417 22.93L247.727 22.63L251.837 12.4L253.847 18.37L247.487 32.02L238.607 9.07ZM249.677 9.07H253.997L259.427 22.48L258.647 22.36L262.697 9.07H267.377L258.857 31.96L249.677 9.07ZM142.192 38.92H155.992V43.12H146.542V48.13H154.732V52.33H146.542V61H142.192V38.92ZM160.18 38.92H164.53V61H160.18V38.92ZM176.919 38.92C178.299 38.92 179.529 39.1 180.609 39.46C181.689 39.8 182.589 40.3 183.309 40.96C184.049 41.6 184.609 42.38 184.989 43.3C185.369 44.2 185.559 45.22 185.559 46.36C185.559 47.26 185.419 48.16 185.139 49.06C184.879 49.96 184.439 50.78 183.819 51.52C183.219 52.26 182.419 52.86 181.419 53.32C180.419 53.76 179.179 53.98 177.699 53.98H174.579V61H170.229V38.92H176.919ZM177.669 49.78C178.329 49.78 178.879 49.67 179.319 49.45C179.759 49.23 180.099 48.95 180.339 48.61C180.599 48.27 180.779 47.92 180.879 47.56C180.999 47.18 181.059 46.83 181.059 46.51C181.059 46.27 181.019 45.97 180.939 45.61C180.879 45.23 180.739 44.85 180.519 44.47C180.299 44.09 179.959 43.77 179.499 43.51C179.059 43.25 178.459 43.12 177.699 43.12H174.579V49.78H177.669ZM181.749 52.48L187.209 61H182.139L176.559 52.6L181.749 52.48ZM190.795 61V38.02H190.825L203.095 55.42L201.235 55L213.475 38.02H213.535V61H209.185V47.83L209.455 50.08L201.985 60.7H201.925L194.245 50.08L194.995 48.01V61H190.795ZM228.998 38.92H233.348V56.8H243.728V61H228.998V38.92ZM248.217 38.92H252.567V56.8H262.947V61H248.217V38.92ZM274.126 38.92C275.946 38.92 277.486 39.23 278.746 39.85C280.006 40.45 280.966 41.31 281.626 42.43C282.286 43.53 282.616 44.84 282.616 46.36C282.616 47.26 282.476 48.17 282.196 49.09C281.936 49.99 281.506 50.81 280.906 51.55C280.326 52.29 279.536 52.89 278.536 53.35C277.556 53.79 276.346 54.01 274.906 54.01H271.786V61H267.436V38.92H274.126ZM274.876 49.78C275.536 49.78 276.086 49.67 276.526 49.45C276.966 49.21 277.306 48.92 277.546 48.58C277.806 48.22 277.986 47.85 278.086 47.47C278.206 47.09 278.266 46.76 278.266 46.48C278.266 46.26 278.226 45.97 278.146 45.61C278.086 45.23 277.946 44.85 277.726 44.47C277.506 44.09 277.166 43.77 276.706 43.51C276.266 43.25 275.666 43.12 274.906 43.12H271.786V49.78H274.876Z" fill="white"/>
</svg>
