<svg width="300" height="138" viewBox="0 0 300 138" fill="none" xmlns="http://www.w3.org/2000/svg">
<path d="M11.383 54.3125L8.47699 53.6211L9.47299 44.9375H19.246V47.832H12.473L12.062 51.4297C12.273 51.3047 12.605 51.168 13.059 51.0195C13.512 50.8633 14.02 50.7852 14.582 50.7852C15.418 50.7852 16.16 50.9141 16.809 51.1719C17.457 51.4297 18.004 51.8047 18.449 52.2969C18.902 52.7812 19.242 53.3789 19.469 54.0898C19.703 54.8008 19.82 55.6094 19.82 56.5156C19.82 57.2656 19.703 57.9844 19.469 58.6719C19.234 59.3516 18.875 59.9609 18.391 60.5C17.914 61.0312 17.309 61.4531 16.574 61.7656C15.84 62.0781 14.977 62.2344 13.984 62.2344C13.234 62.2344 12.508 62.1211 11.805 61.8945C11.102 61.668 10.469 61.3398 9.90599 60.9102C9.35199 60.4727 8.90999 59.9414 8.58199 59.3164C8.26199 58.6914 8.09798 57.9883 8.08998 57.207H11.746C11.785 57.6602 11.898 58.0508 12.086 58.3789C12.273 58.6992 12.527 58.9492 12.848 59.1289C13.168 59.3008 13.539 59.3867 13.961 59.3867C14.367 59.3867 14.711 59.3086 14.992 59.1523C15.273 58.9883 15.496 58.7656 15.66 58.4844C15.832 58.2031 15.957 57.875 16.035 57.5C16.113 57.125 16.152 56.7227 16.152 56.293C16.152 55.8477 16.102 55.4492 16 55.0977C15.898 54.7383 15.742 54.4336 15.531 54.1836C15.32 53.9258 15.051 53.7305 14.723 53.5977C14.402 53.457 14.016 53.3867 13.562 53.3867C12.969 53.3867 12.504 53.4844 12.168 53.6797C11.832 53.875 11.57 54.0859 11.383 54.3125ZM29.348 48.1836L24.941 62H20.863L27.18 44.9375H29.758L29.348 48.1836ZM33.004 62L28.586 48.1836L28.129 44.9375H30.742L37.082 62H33.004ZM32.816 55.6484V58.6016H23.922V55.6484H32.816ZM55.609 59.0469V62H46.996V59.0469H55.609ZM48.297 44.9375V62H44.477V44.9375H48.297ZM64.012 58.9766V53.5391C64.012 53.1562 63.953 52.8281 63.836 52.5547C63.719 52.2812 63.535 52.0664 63.285 51.9102C63.035 51.7539 62.711 51.6758 62.312 51.6758C61.977 51.6758 61.684 51.7344 61.434 51.8516C61.191 51.9688 61.004 52.1367 60.871 52.3555C60.746 52.5742 60.684 52.8438 60.684 53.1641H57.027C57.027 52.5938 57.156 52.0625 57.414 51.5703C57.672 51.0781 58.039 50.6445 58.516 50.2695C59 49.8945 59.578 49.6055 60.25 49.4023C60.922 49.1914 61.676 49.0859 62.512 49.0859C63.504 49.0859 64.387 49.2539 65.16 49.5898C65.941 49.918 66.559 50.4141 67.012 51.0781C67.465 51.7344 67.691 52.5625 67.691 53.5625V58.8711C67.691 59.6367 67.734 60.2383 67.82 60.6758C67.914 61.1055 68.047 61.4805 68.219 61.8008V62H64.527C64.355 61.6328 64.227 61.1797 64.141 60.6406C64.055 60.0938 64.012 59.5391 64.012 58.9766ZM64.469 54.2656L64.492 56.2812H62.676C62.27 56.2812 61.918 56.332 61.621 56.4336C61.332 56.5352 61.098 56.6758 60.918 56.8555C60.738 57.0273 60.605 57.2305 60.52 57.4648C60.441 57.6914 60.402 57.9414 60.402 58.2148C60.402 58.4727 60.465 58.707 60.59 58.918C60.715 59.1211 60.887 59.2812 61.105 59.3984C61.324 59.5156 61.578 59.5742 61.867 59.5742C62.344 59.5742 62.75 59.4805 63.086 59.293C63.43 59.1055 63.695 58.8789 63.883 58.6133C64.07 58.3398 64.164 58.0859 64.164 57.8516L65.043 59.375C64.902 59.6875 64.73 60.0117 64.527 60.3477C64.324 60.6758 64.066 60.9844 63.754 61.2734C63.441 61.5547 63.062 61.7852 62.617 61.9648C62.18 62.1445 61.652 62.2344 61.035 62.2344C60.238 62.2344 59.516 62.0742 58.867 61.7539C58.219 61.4258 57.699 60.9766 57.309 60.4062C56.926 59.8359 56.734 59.1797 56.734 58.4375C56.734 57.7734 56.855 57.1836 57.098 56.668C57.34 56.1523 57.703 55.7148 58.188 55.3555C58.68 54.9961 59.297 54.7266 60.039 54.5469C60.781 54.3594 61.648 54.2656 62.641 54.2656H64.469ZM73.832 58.4727L76.316 49.3203H78.625L77.84 53.3984L75.355 62H73.469L73.832 58.4727ZM72.695 49.3203L74.359 58.4375L74.535 62H72.285L69.168 49.3203H72.695ZM80.875 58.2617L82.527 49.3203H86.055L82.961 62H80.711L80.875 58.2617ZM78.906 49.3203L81.414 58.4258L81.777 62H79.867L77.406 53.4102L76.656 49.3203H78.906ZM97.609 44.9375V62H93.789V44.9375H97.609ZM104.324 52.1328V55.0859H96.543V52.1328H104.324ZM105.074 44.9375V47.9023H96.543V44.9375H105.074ZM110.605 49.3203V62H106.938V49.3203H110.605ZM106.715 46.0391C106.715 45.5078 106.902 45.0742 107.277 44.7383C107.652 44.3945 108.145 44.2227 108.754 44.2227C109.363 44.2227 109.855 44.3945 110.23 44.7383C110.613 45.0742 110.805 45.5078 110.805 46.0391C110.805 46.5625 110.613 46.9961 110.23 47.3398C109.855 47.6758 109.363 47.8438 108.754 47.8438C108.145 47.8438 107.652 47.6758 107.277 47.3398C106.902 46.9961 106.715 46.5625 106.715 46.0391ZM116.91 52.2734V62H113.254V49.3203H116.688L116.91 52.2734ZM120.695 49.2266L120.637 52.6367C120.48 52.6133 120.277 52.5938 120.027 52.5781C119.777 52.5547 119.562 52.543 119.383 52.543C118.914 52.543 118.508 52.6016 118.164 52.7188C117.828 52.8281 117.547 52.9922 117.32 53.2109C117.102 53.4297 116.938 53.7031 116.828 54.0312C116.719 54.3516 116.664 54.7227 116.664 55.1445L115.973 54.8047C115.973 53.9688 116.055 53.2031 116.219 52.5078C116.383 51.8125 116.621 51.2109 116.934 50.7031C117.246 50.1875 117.629 49.7891 118.082 49.5078C118.535 49.2266 119.051 49.0859 119.629 49.0859C119.816 49.0859 120.008 49.0977 120.203 49.1211C120.398 49.1445 120.562 49.1797 120.695 49.2266ZM125.863 51.9805V62H122.207V49.3203H125.641L125.863 51.9805ZM125.395 55.2148L124.469 55.2383C124.469 54.3477 124.574 53.5312 124.785 52.7891C125.004 52.0391 125.32 51.3867 125.734 50.832C126.148 50.2773 126.66 49.8477 127.27 49.543C127.887 49.2383 128.598 49.0859 129.402 49.0859C129.965 49.0859 130.477 49.1719 130.938 49.3438C131.398 49.5078 131.793 49.7695 132.121 50.1289C132.457 50.4805 132.715 50.9414 132.895 51.5117C133.074 52.0742 133.164 52.75 133.164 53.5391V62H129.508V53.9844C129.508 53.4219 129.438 52.9961 129.297 52.707C129.164 52.4102 128.969 52.207 128.711 52.0977C128.453 51.9883 128.145 51.9336 127.785 51.9336C127.395 51.9336 127.047 52.0195 126.742 52.1914C126.445 52.3555 126.195 52.5859 125.992 52.8828C125.789 53.1797 125.637 53.5273 125.535 53.9258C125.441 54.3242 125.395 54.7539 125.395 55.2148ZM132.789 55.0273L131.629 55.1211C131.629 54.2617 131.73 53.4648 131.934 52.7305C132.137 51.9961 132.441 51.3594 132.848 50.8203C133.254 50.2734 133.758 49.8477 134.359 49.543C134.969 49.2383 135.676 49.0859 136.48 49.0859C137.074 49.0859 137.613 49.1719 138.098 49.3438C138.59 49.5156 139.012 49.793 139.363 50.1758C139.723 50.5586 140 51.0625 140.195 51.6875C140.391 52.3047 140.488 53.0625 140.488 53.9609V62H136.809V53.9609C136.809 53.4062 136.738 52.9844 136.598 52.6953C136.465 52.4062 136.27 52.207 136.012 52.0977C135.762 51.9883 135.461 51.9336 135.109 51.9336C134.719 51.9336 134.379 52.0156 134.09 52.1797C133.801 52.3359 133.559 52.5547 133.363 52.8359C133.168 53.1094 133.023 53.4336 132.93 53.8086C132.836 54.1836 132.789 54.5898 132.789 55.0273ZM160.234 59.0469V62H151.621V59.0469H160.234ZM152.922 44.9375V62H149.102V44.9375H152.922ZM173.242 59.0469V62H164.629V59.0469H173.242ZM165.93 44.9375V62H162.109V44.9375H165.93ZM181.844 56.0703H177.555V53.1055H181.844C182.477 53.1055 182.984 53 183.367 52.7891C183.758 52.5781 184.043 52.2891 184.223 51.9219C184.41 51.5469 184.504 51.125 184.504 50.6562C184.504 50.1719 184.41 49.7227 184.223 49.3086C184.043 48.8867 183.758 48.5469 183.367 48.2891C182.984 48.0312 182.477 47.9023 181.844 47.9023H178.938V62H175.117V44.9375H181.844C183.203 44.9375 184.367 45.1836 185.336 45.6758C186.312 46.168 187.059 46.8438 187.574 47.7031C188.098 48.5547 188.359 49.5312 188.359 50.6328C188.359 51.7344 188.098 52.6914 187.574 53.5039C187.059 54.3164 186.312 54.9492 185.336 55.4023C184.367 55.8477 183.203 56.0703 181.844 56.0703ZM15.064 88.5425V90H9.40198V88.5425H15.064ZM9.92198 79.3359V90H8.08398V79.3359H9.92198ZM14.324 83.7891V85.2246H9.40198V83.7891H14.324ZM15.027 79.3359V80.8008H9.40198V79.3359H15.027ZM17.964 79.3359L20.228 83.2251L22.491 79.3359H24.607L21.385 84.6167L24.688 90H22.549L20.228 86.0376L17.906 90H15.76L19.07 84.6167L15.84 79.3359H17.964ZM30.093 86.0229H27.317V84.5654H30.093C30.577 84.5654 30.967 84.4873 31.265 84.3311C31.563 84.1748 31.78 83.96 31.917 83.6865C32.059 83.4082 32.129 83.0908 32.129 82.7344C32.129 82.3975 32.059 82.0825 31.917 81.7896C31.78 81.4917 31.563 81.2524 31.265 81.0718C30.967 80.8911 30.577 80.8008 30.093 80.8008H27.881V90H26.043V79.3359H30.093C30.918 79.3359 31.619 79.4824 32.195 79.7754C32.776 80.0635 33.218 80.4639 33.521 80.9766C33.824 81.4844 33.975 82.0654 33.975 82.7197C33.975 83.4082 33.824 83.999 33.521 84.4922C33.218 84.9854 32.776 85.3638 32.195 85.6274C31.619 85.8911 30.918 86.0229 30.093 86.0229ZM42.603 88.5425V90H36.941V88.5425H42.603ZM37.461 79.3359V90H35.623V79.3359H37.461ZM41.863 83.7891V85.2246H36.941V83.7891H41.863ZM42.566 79.3359V80.8008H36.941V79.3359H42.566ZM44.104 79.3359H47.876C48.687 79.3359 49.378 79.458 49.949 79.7021C50.521 79.9463 50.958 80.3076 51.26 80.7861C51.568 81.2598 51.722 81.8457 51.722 82.5439C51.722 83.0762 51.624 83.5449 51.429 83.9502C51.233 84.3555 50.958 84.6973 50.601 84.9756C50.245 85.249 49.82 85.4614 49.327 85.6128L48.77 85.8838H45.379L45.364 84.4263H47.906C48.345 84.4263 48.711 84.3481 49.004 84.1919C49.297 84.0356 49.517 83.8232 49.664 83.5547C49.815 83.2812 49.891 82.9736 49.891 82.6318C49.891 82.2607 49.817 81.9385 49.671 81.665C49.529 81.3867 49.31 81.1743 49.012 81.0278C48.714 80.8765 48.335 80.8008 47.876 80.8008H45.943V90H44.104V79.3359ZM50.191 90L47.686 85.21L49.612 85.2026L52.154 89.9048V90H50.191ZM57.442 79.3359V90H55.618V79.3359H57.442ZM60.789 79.3359V80.8008H52.3V79.3359H60.789ZM64.158 79.3359V90H62.32V79.3359H64.158ZM72.054 87.2534C72.054 87.0337 72.02 86.8384 71.951 86.6675C71.888 86.4966 71.773 86.3403 71.607 86.1987C71.441 86.0571 71.207 85.9204 70.904 85.7886C70.606 85.6519 70.225 85.5127 69.761 85.3711C69.253 85.2148 68.785 85.0415 68.355 84.8511C67.93 84.6558 67.559 84.4312 67.242 84.1772C66.924 83.9185 66.678 83.623 66.502 83.291C66.326 82.9541 66.238 82.5659 66.238 82.1265C66.238 81.6919 66.329 81.2964 66.509 80.9399C66.695 80.5835 66.956 80.2759 67.293 80.0171C67.635 79.7534 68.038 79.5508 68.501 79.4092C68.965 79.2627 69.478 79.1895 70.04 79.1895C70.831 79.1895 71.512 79.3359 72.083 79.6289C72.659 79.9219 73.101 80.3149 73.409 80.8081C73.721 81.3013 73.877 81.8457 73.877 82.4414H72.054C72.054 82.0898 71.978 81.7798 71.827 81.5112C71.68 81.2378 71.456 81.0229 71.153 80.8667C70.855 80.7104 70.477 80.6323 70.018 80.6323C69.583 80.6323 69.222 80.6982 68.934 80.8301C68.646 80.9619 68.431 81.1401 68.289 81.3647C68.147 81.5894 68.077 81.8433 68.077 82.1265C68.077 82.3267 68.123 82.5098 68.216 82.6758C68.309 82.8369 68.45 82.9883 68.641 83.1299C68.831 83.2666 69.07 83.396 69.358 83.5181C69.646 83.6401 69.986 83.7573 70.376 83.8696C70.967 84.0454 71.482 84.2407 71.922 84.4556C72.361 84.6655 72.728 84.9048 73.021 85.1733C73.313 85.4419 73.533 85.7471 73.68 86.0889C73.826 86.4258 73.899 86.8091 73.899 87.2388C73.899 87.688 73.809 88.0933 73.628 88.4546C73.448 88.811 73.189 89.1162 72.852 89.3701C72.52 89.6191 72.12 89.812 71.651 89.9487C71.187 90.0806 70.669 90.1465 70.098 90.1465C69.585 90.1465 69.08 90.0781 68.582 89.9414C68.089 89.8047 67.64 89.5972 67.234 89.3188C66.829 89.0356 66.507 88.6841 66.268 88.2642C66.028 87.8394 65.909 87.3438 65.909 86.7773H67.747C67.747 87.124 67.806 87.4194 67.923 87.6636C68.045 87.9077 68.213 88.1079 68.428 88.2642C68.643 88.4155 68.892 88.5278 69.175 88.6011C69.463 88.6743 69.771 88.7109 70.098 88.7109C70.528 88.7109 70.887 88.6499 71.175 88.5278C71.468 88.4058 71.688 88.2349 71.834 88.0151C71.98 87.7954 72.054 87.5415 72.054 87.2534ZM82.505 88.5425V90H76.844V88.5425H82.505ZM77.364 79.3359V90H75.525V79.3359H77.364ZM81.766 83.7891V85.2246H76.844V83.7891H81.766ZM82.469 79.3359V80.8008H76.844V79.3359H82.469ZM91.119 84.7412V86.1475H87.244V84.7412H91.119ZM103.555 88.5425V90H97.894V88.5425H103.555ZM98.414 79.3359V90H96.575V79.3359H98.414ZM102.815 83.7891V85.2246H97.894V83.7891H102.815ZM103.519 79.3359V80.8008H97.894V79.3359H103.519ZM106.456 79.3359L108.719 83.2251L110.982 79.3359H113.099L109.876 84.6167L113.179 90H111.041L108.719 86.0376L106.397 90H104.251L107.562 84.6167L104.332 79.3359H106.456ZM118.584 86.0229H115.809V84.5654H118.584C119.068 84.5654 119.458 84.4873 119.756 84.3311C120.054 84.1748 120.271 83.96 120.408 83.6865C120.55 83.4082 120.621 83.0908 120.621 82.7344C120.621 82.3975 120.55 82.0825 120.408 81.7896C120.271 81.4917 120.054 81.2524 119.756 81.0718C119.458 80.8911 119.068 80.8008 118.584 80.8008H116.373V90H114.534V79.3359H118.584C119.41 79.3359 120.11 79.4824 120.687 79.7754C121.268 80.0635 121.709 80.4639 122.012 80.9766C122.315 81.4844 122.466 82.0654 122.466 82.7197C122.466 83.4082 122.315 83.999 122.012 84.4922C121.709 84.9854 121.268 85.3638 120.687 85.6274C120.11 85.8911 119.41 86.0229 118.584 86.0229ZM131.094 88.5425V90H125.433V88.5425H131.094ZM125.953 79.3359V90H124.114V79.3359H125.953ZM130.354 83.7891V85.2246H125.433V83.7891H130.354ZM131.058 79.3359V80.8008H125.433V79.3359H131.058ZM132.596 79.3359H136.368C137.178 79.3359 137.869 79.458 138.44 79.7021C139.012 79.9463 139.449 80.3076 139.751 80.7861C140.059 81.2598 140.213 81.8457 140.213 82.5439C140.213 83.0762 140.115 83.5449 139.92 83.9502C139.725 84.3555 139.449 84.6973 139.092 84.9756C138.736 85.249 138.311 85.4614 137.818 85.6128L137.261 85.8838H133.87L133.855 84.4263H136.397C136.836 84.4263 137.203 84.3481 137.496 84.1919C137.789 84.0356 138.008 83.8232 138.155 83.5547C138.306 83.2812 138.382 82.9736 138.382 82.6318C138.382 82.2607 138.309 81.9385 138.162 81.665C138.021 81.3867 137.801 81.1743 137.503 81.0278C137.205 80.8765 136.827 80.8008 136.368 80.8008H134.434V90H132.596V79.3359ZM138.682 90L136.177 85.21L138.104 85.2026L140.645 89.9048V90H138.682ZM144.007 79.3359V90H142.168V79.3359H144.007ZM153.272 88.5425V90H147.61V88.5425H153.272ZM148.13 79.3359V90H146.292V79.3359H148.13ZM152.532 83.7891V85.2246H147.61V83.7891H152.532ZM153.235 79.3359V80.8008H147.61V79.3359H153.235ZM163.233 79.3359V90H161.395L156.612 82.3608V90H154.773V79.3359H156.612L161.409 86.9897V79.3359H163.233ZM171.722 86.5283H173.553C173.494 87.2266 173.299 87.8491 172.967 88.396C172.635 88.938 172.168 89.3652 171.568 89.6777C170.967 89.9902 170.237 90.1465 169.378 90.1465C168.719 90.1465 168.125 90.0293 167.598 89.7949C167.071 89.5557 166.619 89.2188 166.243 88.7842C165.867 88.3447 165.579 87.8149 165.379 87.1948C165.184 86.5747 165.086 85.8813 165.086 85.1147V84.2285C165.086 83.4619 165.186 82.7686 165.386 82.1484C165.591 81.5283 165.884 80.9985 166.265 80.5591C166.646 80.1147 167.103 79.7754 167.635 79.541C168.172 79.3066 168.775 79.1895 169.444 79.1895C170.293 79.1895 171.011 79.3457 171.597 79.6582C172.183 79.9707 172.637 80.4028 172.959 80.9546C173.287 81.5063 173.487 82.1387 173.56 82.8516H171.729C171.68 82.3926 171.573 81.9995 171.407 81.6724C171.246 81.3452 171.006 81.0962 170.689 80.9253C170.372 80.7495 169.957 80.6616 169.444 80.6616C169.024 80.6616 168.658 80.7397 168.345 80.896C168.033 81.0522 167.771 81.2817 167.562 81.5845C167.352 81.8872 167.193 82.2607 167.085 82.7051C166.983 83.1445 166.932 83.6475 166.932 84.2139V85.1147C166.932 85.6519 166.978 86.1401 167.071 86.5796C167.168 87.0142 167.315 87.3877 167.51 87.7002C167.71 88.0127 167.964 88.2544 168.272 88.4253C168.58 88.5962 168.948 88.6816 169.378 88.6816C169.9 88.6816 170.323 88.5986 170.645 88.4326C170.972 88.2666 171.219 88.0249 171.385 87.7075C171.556 87.3853 171.668 86.9922 171.722 86.5283ZM182.203 88.5425V90H176.541V88.5425H182.203ZM177.061 79.3359V90H175.223V79.3359H177.061ZM181.463 83.7891V85.2246H176.541V83.7891H181.463ZM182.166 79.3359V80.8008H176.541V79.3359H182.166ZM190.816 84.7412V86.1475H186.941V84.7412H190.816ZM203.252 88.5425V90H197.591V88.5425H203.252ZM198.111 79.3359V90H196.272V79.3359H198.111ZM202.513 83.7891V85.2246H197.591V83.7891H202.513ZM203.216 79.3359V80.8008H197.591V79.3359H203.216ZM206.153 79.3359L208.416 83.2251L210.679 79.3359H212.796L209.573 84.6167L212.876 90H210.738L208.416 86.0376L206.094 90H203.948L207.259 84.6167L204.029 79.3359H206.153ZM220.34 86.5283H222.171C222.112 87.2266 221.917 87.8491 221.585 88.396C221.253 88.938 220.787 89.3652 220.186 89.6777C219.585 89.9902 218.855 90.1465 217.996 90.1465C217.337 90.1465 216.744 90.0293 216.216 89.7949C215.689 89.5557 215.237 89.2188 214.861 88.7842C214.485 88.3447 214.197 87.8149 213.997 87.1948C213.802 86.5747 213.704 85.8813 213.704 85.1147V84.2285C213.704 83.4619 213.804 82.7686 214.004 82.1484C214.209 81.5283 214.502 80.9985 214.883 80.5591C215.264 80.1147 215.721 79.7754 216.253 79.541C216.79 79.3066 217.393 79.1895 218.062 79.1895C218.912 79.1895 219.629 79.3457 220.215 79.6582C220.801 79.9707 221.255 80.4028 221.578 80.9546C221.905 81.5063 222.105 82.1387 222.178 82.8516H220.347C220.298 82.3926 220.191 81.9995 220.025 81.6724C219.864 81.3452 219.625 81.0962 219.307 80.9253C218.99 80.7495 218.575 80.6616 218.062 80.6616C217.642 80.6616 217.276 80.7397 216.963 80.896C216.651 81.0522 216.39 81.2817 216.18 81.5845C215.97 81.8872 215.811 82.2607 215.704 82.7051C215.601 83.1445 215.55 83.6475 215.55 84.2139V85.1147C215.55 85.6519 215.596 86.1401 215.689 86.5796C215.787 87.0142 215.933 87.3877 216.128 87.7002C216.329 88.0127 216.583 88.2544 216.89 88.4253C217.198 88.5962 217.566 88.6816 217.996 88.6816C218.519 88.6816 218.941 88.5986 219.263 88.4326C219.59 88.2666 219.837 88.0249 220.003 87.7075C220.174 87.3853 220.286 86.9922 220.34 86.5283ZM230.821 88.5425V90H225.159V88.5425H230.821ZM225.679 79.3359V90H223.841V79.3359H225.679ZM230.081 83.7891V85.2246H225.159V83.7891H230.081ZM230.784 79.3359V80.8008H225.159V79.3359H230.784ZM239.002 88.5425V90H233.648V88.5425H239.002ZM234.161 79.3359V90H232.322V79.3359H234.161ZM247.103 88.5425V90H241.749V88.5425H247.103ZM242.261 79.3359V90H240.423V79.3359H242.261ZM255.503 88.5425V90H249.842V88.5425H255.503ZM250.362 79.3359V90H248.523V79.3359H250.362ZM254.764 83.7891V85.2246H249.842V83.7891H254.764ZM255.467 79.3359V80.8008H249.842V79.3359H255.467ZM265.464 79.3359V90H263.626L258.843 82.3608V90H257.005V79.3359H258.843L263.641 86.9897V79.3359H265.464ZM273.953 86.5283H275.784C275.726 87.2266 275.53 87.8491 275.198 88.396C274.866 88.938 274.4 89.3652 273.799 89.6777C273.199 89.9902 272.469 90.1465 271.609 90.1465C270.95 90.1465 270.357 90.0293 269.83 89.7949C269.302 89.5557 268.851 89.2188 268.475 88.7842C268.099 88.3447 267.811 87.8149 267.61 87.1948C267.415 86.5747 267.317 85.8813 267.317 85.1147V84.2285C267.317 83.4619 267.417 82.7686 267.618 82.1484C267.823 81.5283 268.116 80.9985 268.497 80.5591C268.877 80.1147 269.334 79.7754 269.866 79.541C270.403 79.3066 271.006 79.1895 271.675 79.1895C272.525 79.1895 273.243 79.3457 273.829 79.6582C274.415 79.9707 274.869 80.4028 275.191 80.9546C275.518 81.5063 275.718 82.1387 275.792 82.8516H273.96C273.912 82.3926 273.804 81.9995 273.638 81.6724C273.477 81.3452 273.238 81.0962 272.92 80.9253C272.603 80.7495 272.188 80.6616 271.675 80.6616C271.255 80.6616 270.889 80.7397 270.577 80.896C270.264 81.0522 270.003 81.2817 269.793 81.5845C269.583 81.8872 269.424 82.2607 269.317 82.7051C269.214 83.1445 269.163 83.6475 269.163 84.2139V85.1147C269.163 85.6519 269.209 86.1401 269.302 86.5796C269.4 87.0142 269.546 87.3877 269.742 87.7002C269.942 88.0127 270.196 88.2544 270.503 88.4253C270.811 88.5962 271.18 88.6816 271.609 88.6816C272.132 88.6816 272.554 88.5986 272.876 88.4326C273.204 88.2666 273.45 88.0249 273.616 87.7075C273.787 87.3853 273.899 86.9922 273.953 86.5283ZM284.434 88.5425V90H278.772V88.5425H284.434ZM279.292 79.3359V90H277.454V79.3359H279.292ZM283.694 83.7891V85.2246H278.772V83.7891H283.694ZM284.397 79.3359V80.8008H278.772V79.3359H284.397Z" fill="white"/>
</svg>
