<svg width="1270" height="561" viewBox="0 0 1270 561" fill="none" xmlns="http://www.w3.org/2000/svg">
<path d="M0 92.3586V0L94 92.3586V186L0 92.3586Z" fill="#2A2E53"/>
<path d="M761 92.3586V0L855 92.3586V186L761 92.3586Z" fill="#2A2E53"/>
<path d="M286 92.3586V0L380 92.3586V186L286 92.3586Z" fill="#2A2E53"/>
<path d="M951 92.3586V0L1045 92.3586V186L951 92.3586Z" fill="#2A2E53"/>
<path d="M665 280.359V188L759 280.359V374L665 280.359Z" fill="#2A2E53"/>
<path d="M380 280.359V188L474 280.359V374L380 280.359Z" fill="#2A2E53"/>
<path d="M189 280.359V188L283 280.359V374L189 280.359Z" fill="#2A2E53"/>
<path d="M1045 280.359V188L1139 280.359V374L1045 280.359Z" fill="#2A2E53"/>
<path d="M96 92.3586V0L190 92.3586V186L96 92.3586Z" fill="#2A2E53"/>
<path d="M476 92.3586V0L570 92.3586V186L476 92.3586Z" fill="#2A2E53"/>
<path d="M0 280.359V188L94 280.359V374L0 280.359Z" fill="#2A2E53"/>
<path d="M1176 185.359V93L1270 185.359V279L1176 185.359Z" fill="#2A2E53"/>
<path d="M284 467.359V375L378 467.359V561L284 467.359Z" fill="#2A2E53"/>
<path d="M189 467.359V375L283 467.359V561L189 467.359Z" fill="#2A2E53"/>
<path d="M475 467.359V375L569 467.359V561L475 467.359Z" fill="#2A2E53"/>
<path d="M950 467.359V375L1044 467.359V561L950 467.359Z" fill="#2A2E53"/>
</svg>
