<svg width="183" height="108" viewBox="0 0 183 108" fill="none" xmlns="http://www.w3.org/2000/svg">
<path d="M92.5815 1.56928C140.762 -3.78408 225.786 1.56928 156.822 65.8096C167.214 45.026 207.836 1.56928 92.5815 1.56928Z" fill="white"/>
<path d="M90.1807 106.431C42.0004 111.784 -43.0236 106.431 25.9403 42.1904C15.5485 62.974 -25.0741 106.431 90.1807 106.431Z" fill="white"/>
<rect x="58.5718" y="13.8486" width="58.5721" height="3.77884" rx="0.3" fill="white"/>
<rect x="111.477" y="28.9668" width="39.6779" height="1.88942" rx="0.3" fill="white"/>
<rect x="22.6733" y="28.9668" width="39.6779" height="1.88942" rx="0.3" fill="white"/>
<rect x="58.5718" y="92.7178" width="58.5721" height="3.77884" rx="0.3" fill="white"/>
<rect x="111.477" y="78.0889" width="39.6779" height="1.88942" rx="0.3" fill="white"/>
<rect x="22.6733" y="78.0889" width="39.6779" height="1.88942" rx="0.3" fill="white"/>
<rect x="64.2407" y="19.5186" width="47.2356" height="3.77884" rx="0.3" fill="white"/>
<rect x="115.256" y="32.7451" width="32.1202" height="1.88942" rx="0.3" fill="white"/>
<rect x="26.4521" y="32.7451" width="32.1202" height="1.88942" rx="0.3" fill="white"/>
<rect x="64.2407" y="87.5381" width="47.2356" height="3.77884" rx="0.3" fill="white"/>
<rect x="115.256" y="74.3145" width="32.1202" height="1.88942" rx="0.3" fill="white"/>
<rect x="26.4521" y="74.3145" width="32.1202" height="1.88942" rx="0.3" fill="white"/>
<rect width="3.77884" height="56.6827" rx="0.3" transform="matrix(-1 0 0 1 77.4668 27.0771)" fill="white"/>
<rect width="1.88942" height="35.899" rx="0.3" transform="matrix(-1 0 0 1 124.701 36.5244)" fill="white"/>
<rect width="1.88942" height="35.899" rx="0.3" transform="matrix(-1 0 0 1 35.8984 36.5244)" fill="white"/>
<rect width="3.77884" height="56.6827" rx="0.3" transform="matrix(-1 0 0 1 83.1353 27.0771)" fill="white"/>
<rect width="1.88942" height="35.899" rx="0.3" transform="matrix(-1 0 0 1 128.48 36.5244)" fill="white"/>
<rect width="1.88942" height="35.899" rx="0.3" transform="matrix(-1 0 0 1 39.6772 36.5244)" fill="white"/>
<rect width="3.77884" height="56.6827" rx="0.3" transform="matrix(-1 0 0 1 88.8027 27.0771)" fill="white"/>
<rect width="1.88942" height="35.899" rx="0.3" transform="matrix(-1 0 0 1 132.259 36.5244)" fill="white"/>
<rect width="1.88942" height="35.899" rx="0.3" transform="matrix(-1 0 0 1 43.457 36.5244)" fill="white"/>
<rect width="3.77884" height="56.6827" rx="0.3" transform="matrix(-1 0 0 1 94.4707 27.0771)" fill="white"/>
<rect width="1.88942" height="35.899" rx="0.3" transform="matrix(-1 0 0 1 136.039 36.5244)" fill="white"/>
<rect width="1.88942" height="35.899" rx="0.3" transform="matrix(-1 0 0 1 47.2354 36.5244)" fill="white"/>
<rect width="3.77884" height="56.6827" rx="0.3" transform="matrix(-1 0 0 1 100.14 27.0771)" fill="white"/>
<rect width="1.88942" height="35.899" rx="0.3" transform="matrix(-1 0 0 1 139.818 36.5244)" fill="white"/>
<rect width="1.88942" height="35.899" rx="0.3" transform="matrix(-1 0 0 1 51.0142 36.5244)" fill="white"/>
</svg>
