<svg width="92" height="120" viewBox="0 0 92 120" fill="none" xmlns="http://www.w3.org/2000/svg">
<rect width="91.4691" height="5.17749" rx="0.3" fill="white"/>
<rect width="91.4691" height="5.17749" rx="0.3" transform="matrix(1 0 0 -1 0 119.082)" fill="#0178CB"/>
<rect x="8.62915" y="8.62695" width="74.2107" height="5.17749" rx="0.3" fill="white"/>
<rect width="74.2107" height="5.17749" rx="0.3" transform="matrix(1 0 0 -1 8.62915 110.455)" fill="#0178CB"/>
<rect width="5.17749" height="82.8399" rx="0.3" transform="matrix(-1 0 0 1 39.6941 17.2598)" fill="url(#paint0_linear_747_1103)"/>
<rect width="5.17749" height="82.8399" rx="0.3" transform="matrix(-1 0 0 1 31.0649 17.2598)" fill="url(#paint1_linear_747_1103)"/>
<rect width="5.17749" height="82.8399" rx="0.3" transform="matrix(-1 0 0 1 48.3232 17.2598)" fill="url(#paint2_linear_747_1103)"/>
<rect width="5.17749" height="82.8399" rx="0.3" transform="matrix(-1 0 0 1 56.9524 17.2598)" fill="url(#paint3_linear_747_1103)"/>
<rect width="5.17749" height="82.8399" rx="0.3" transform="matrix(-1 0 0 1 65.5813 17.2598)" fill="url(#paint4_linear_747_1103)"/>
<defs>
<linearGradient id="paint0_linear_747_1103" x1="2.58875" y1="0" x2="2.58875" y2="82.8399" gradientUnits="userSpaceOnUse">
<stop offset="0.4999" stop-color="white"/>
<stop offset="0.5" stop-color="#0178CB"/>
</linearGradient>
<linearGradient id="paint1_linear_747_1103" x1="2.58875" y1="0" x2="2.58875" y2="82.8399" gradientUnits="userSpaceOnUse">
<stop offset="0.4999" stop-color="white"/>
<stop offset="0.5" stop-color="#0178CB"/>
</linearGradient>
<linearGradient id="paint2_linear_747_1103" x1="2.58875" y1="0" x2="2.58875" y2="82.8399" gradientUnits="userSpaceOnUse">
<stop offset="0.4999" stop-color="white"/>
<stop offset="0.5" stop-color="#0178CB"/>
</linearGradient>
<linearGradient id="paint3_linear_747_1103" x1="2.58875" y1="0" x2="2.58875" y2="82.8399" gradientUnits="userSpaceOnUse">
<stop offset="0.4999" stop-color="white"/>
<stop offset="0.5" stop-color="#0178CB"/>
</linearGradient>
<linearGradient id="paint4_linear_747_1103" x1="2.58875" y1="0" x2="2.58875" y2="82.8399" gradientUnits="userSpaceOnUse">
<stop offset="0.4999" stop-color="white"/>
<stop offset="0.5" stop-color="#0178CB"/>
</linearGradient>
</defs>
</svg>
