<svg width="603" height="386" viewBox="0 0 603 386" fill="none" xmlns="http://www.w3.org/2000/svg">
<path d="M166.5 305L0 104.5C105.6 217.3 258.667 184.5 320.5 137.5L166.5 305Z" fill="#610000"/>
<path d="M143 18.0001C82 -37 36.9397 47.0001 82 112.5C127.06 178 158.973 180 185.5 129C256.5 -7.49992 198.702 68.223 143 18.0001Z" fill="#610000"/>
<path d="M429.105 282.148V305H353.422V282.148H429.105ZM362.992 162.812V305H333.695V162.812H362.992ZM419.242 220.723V242.988H353.422V220.723H419.242ZM429.008 162.812V185.762H353.422V162.812H429.008ZM501.859 242.598H465.336L465.141 222.48H495.805C501.208 222.48 505.635 221.797 509.086 220.43C512.536 218.997 515.108 216.947 516.801 214.277C518.559 211.543 519.438 208.223 519.438 204.316C519.438 199.889 518.591 196.309 516.898 193.574C515.271 190.84 512.699 188.854 509.184 187.617C505.733 186.38 501.273 185.762 495.805 185.762H475.492V305H446.195V162.812H495.805C504.073 162.812 511.462 163.594 517.973 165.156C524.548 166.719 530.115 169.095 534.672 172.285C539.229 175.475 542.712 179.512 545.121 184.395C547.53 189.212 548.734 194.941 548.734 201.582C548.734 207.441 547.4 212.845 544.73 217.793C542.126 222.741 537.992 226.777 532.328 229.902C526.729 233.027 519.405 234.753 510.355 235.078L501.859 242.598ZM500.59 305H457.328L468.754 282.148H500.59C505.733 282.148 509.932 281.335 513.188 279.707C516.443 278.014 518.852 275.736 520.414 272.871C521.977 270.007 522.758 266.719 522.758 263.008C522.758 258.841 522.042 255.228 520.609 252.168C519.242 249.108 517.029 246.764 513.969 245.137C510.909 243.444 506.872 242.598 501.859 242.598H473.637L473.832 222.48H508.988L515.727 230.391C524.385 230.26 531.352 231.79 536.625 234.98C541.964 238.105 545.837 242.174 548.246 247.188C550.72 252.201 551.957 257.572 551.957 263.301C551.957 272.415 549.971 280.098 546 286.348C542.029 292.533 536.202 297.188 528.52 300.312C520.902 303.438 511.592 305 500.59 305Z" fill="#63A9FC"/>
<circle cx="138" cy="88" r="29" fill="#63A9FC"/>
</svg>
