<svg width="888" height="379" viewBox="0 0 888 379" fill="none" xmlns="http://www.w3.org/2000/svg">
<path d="M29.9922 0.8125V143H0.695312V0.8125H29.9922ZM86.6328 61.5547V84.4062H21.9844V61.5547H86.6328ZM93.4688 0.8125V23.7617H21.9844V0.8125H93.4688ZM110.461 0.8125H163.488C174.361 0.8125 183.703 2.4401 191.516 5.69531C199.393 8.95052 205.448 13.7682 209.68 20.1484C213.911 26.5286 216.027 34.3737 216.027 43.6836C216.027 51.3008 214.725 57.8438 212.121 63.3125C209.582 68.7161 205.969 73.2409 201.281 76.8867C196.659 80.4674 191.223 83.332 184.973 85.4805L175.695 90.3633H129.602L129.406 67.5117H163.684C168.827 67.5117 173.091 66.6003 176.477 64.7773C179.862 62.9544 182.401 60.4154 184.094 57.1602C185.852 53.9049 186.73 50.1289 186.73 45.832C186.73 41.2747 185.884 37.3359 184.191 34.0156C182.499 30.6953 179.927 28.1562 176.477 26.3984C173.026 24.6406 168.697 23.7617 163.488 23.7617H139.758V143H110.461V0.8125ZM189.953 143L157.531 79.6211L188.488 79.4258L221.301 141.633V143H189.953ZM269.738 0.8125V143H240.539V0.8125H269.738ZM350.891 70.9297V93H295.715V70.9297H350.891ZM471.496 120.148V143H395.812V120.148H471.496ZM405.383 0.8125V143H376.086V0.8125H405.383ZM461.633 58.7227V80.9883H395.812V58.7227H461.633ZM471.398 0.8125V23.7617H395.812V0.8125H471.398ZM579.992 120.148V143H508.41V120.148H579.992ZM517.883 0.8125V143H488.586V0.8125H517.883Z" fill="#797979"/>
<path d="M96.1055 354.148V377H20.4219V354.148H96.1055ZM29.9922 234.812V377H0.695312V234.812H29.9922ZM86.2422 292.723V314.988H20.4219V292.723H86.2422ZM96.0078 234.812V257.762H20.4219V234.812H96.0078ZM178.723 234.812V377H149.523V234.812H178.723ZM222.473 234.812V257.762H106.457V234.812H222.473ZM333.996 292.723V315.574H259.777V292.723H333.996ZM268.469 234.812V377H239.172V234.812H268.469ZM354.895 234.812V377H325.695V234.812H354.895ZM411.535 234.812V377H382.336V234.812H411.535ZM555.773 302.586V309.324C555.773 320.132 554.309 329.832 551.379 338.426C548.449 347.02 544.315 354.344 538.977 360.398C533.638 366.388 527.258 370.978 519.836 374.168C512.479 377.358 504.309 378.953 495.324 378.953C486.405 378.953 478.234 377.358 470.812 374.168C463.456 370.978 457.076 366.388 451.672 360.398C446.268 354.344 442.069 347.02 439.074 338.426C436.145 329.832 434.68 320.132 434.68 309.324V302.586C434.68 291.714 436.145 282.013 439.074 273.484C442.004 264.891 446.138 257.566 451.477 251.512C456.88 245.457 463.26 240.835 470.617 237.645C478.039 234.454 486.21 232.859 495.129 232.859C504.113 232.859 512.284 234.454 519.641 237.645C527.062 240.835 533.443 245.457 538.781 251.512C544.185 257.566 548.352 264.891 551.281 273.484C554.276 282.013 555.773 291.714 555.773 302.586ZM526.184 309.324V302.391C526.184 294.839 525.5 288.198 524.133 282.469C522.766 276.74 520.747 271.922 518.078 268.016C515.409 264.109 512.154 261.18 508.312 259.227C504.471 257.208 500.077 256.199 495.129 256.199C490.181 256.199 485.786 257.208 481.945 259.227C478.169 261.18 474.947 264.109 472.277 268.016C469.673 271.922 467.688 276.74 466.32 282.469C464.953 288.198 464.27 294.839 464.27 302.391V309.324C464.27 316.811 464.953 323.452 466.32 329.246C467.688 334.975 469.706 339.826 472.375 343.797C475.044 347.703 478.299 350.665 482.141 352.684C485.982 354.702 490.376 355.711 495.324 355.711C500.272 355.711 504.667 354.702 508.508 352.684C512.349 350.665 515.572 347.703 518.176 343.797C520.78 339.826 522.766 334.975 524.133 329.246C525.5 323.452 526.184 316.811 526.184 309.324ZM632.238 326.316H596.008V303.465H632.238C637.837 303.465 642.395 302.553 645.91 300.73C649.426 298.842 651.997 296.238 653.625 292.918C655.253 289.598 656.066 285.854 656.066 281.688C656.066 277.456 655.253 273.517 653.625 269.871C651.997 266.225 649.426 263.296 645.91 261.082C642.395 258.868 637.837 257.762 632.238 257.762H606.164V377H576.867V234.812H632.238C643.371 234.812 652.909 236.831 660.852 240.867C668.859 244.839 674.979 250.34 679.211 257.371C683.443 264.402 685.559 272.443 685.559 281.492C685.559 290.672 683.443 298.615 679.211 305.32C674.979 312.026 668.859 317.202 660.852 320.848C652.909 324.493 643.371 326.316 632.238 326.316ZM736.926 234.812V377H707.727V234.812H736.926ZM823.938 259.129L785.266 377H754.113L806.945 234.812H826.77L823.938 259.129ZM856.066 377L817.297 259.129L814.172 234.812H834.191L887.316 377H856.066ZM854.309 324.07V347.02H779.211V324.07H854.309Z" fill="#63A410"/>
</svg>
