<svg width="1484" height="147" viewBox="0 0 1484 147" fill="none" xmlns="http://www.w3.org/2000/svg">
<path d="M29.9922 2.8125V145H0.695312V2.8125H29.9922ZM86.6328 63.5547V86.4062H21.9844V63.5547H86.6328ZM93.4688 2.8125V25.7617H21.9844V2.8125H93.4688ZM110.461 2.8125H163.488C174.361 2.8125 183.703 4.4401 191.516 7.69531C199.393 10.9505 205.448 15.7682 209.68 22.1484C213.911 28.5286 216.027 36.3737 216.027 45.6836C216.027 53.3008 214.725 59.8438 212.121 65.3125C209.582 70.7161 205.969 75.2409 201.281 78.8867C196.659 82.4674 191.223 85.332 184.973 87.4805L175.695 92.3633H129.602L129.406 69.5117H163.684C168.827 69.5117 173.091 68.6003 176.477 66.7773C179.862 64.9544 182.401 62.4154 184.094 59.1602C185.852 55.9049 186.73 52.1289 186.73 47.832C186.73 43.2747 185.884 39.3359 184.191 36.0156C182.499 32.6953 179.927 30.1562 176.477 28.3984C173.026 26.6406 168.697 25.7617 163.488 25.7617H139.758V145H110.461V2.8125ZM189.953 145L157.531 81.6211L188.488 81.4258L221.301 143.633V145H189.953ZM269.738 2.8125V145H240.539V2.8125H269.738ZM350.891 72.9297V95H295.715V72.9297H350.891ZM471.496 122.148V145H395.812V122.148H471.496ZM405.383 2.8125V145H376.086V2.8125H405.383ZM461.633 60.7227V82.9883H395.812V60.7227H461.633ZM471.398 2.8125V25.7617H395.812V2.8125H471.398ZM579.992 122.148V145H508.41V122.148H579.992ZM517.883 2.8125V145H488.586V2.8125H517.883Z" fill="#797979"/>
<path d="M692.199 122.148V145H616.516V122.148H692.199ZM626.086 2.8125V145H596.789V2.8125H626.086ZM682.336 60.7227V82.9883H616.516V60.7227H682.336ZM692.102 2.8125V25.7617H616.516V2.8125H692.102ZM774.816 2.8125V145H745.617V2.8125H774.816ZM818.566 2.8125V25.7617H702.551V2.8125H818.566ZM930.09 60.7227V83.5742H855.871V60.7227H930.09ZM864.562 2.8125V145H835.266V2.8125H864.562ZM950.988 2.8125V145H921.789V2.8125H950.988ZM1007.63 2.8125V145H978.43V2.8125H1007.63ZM1151.87 70.5859V77.3242C1151.87 88.1315 1150.4 97.832 1147.47 106.426C1144.54 115.02 1140.41 122.344 1135.07 128.398C1129.73 134.388 1123.35 138.978 1115.93 142.168C1108.57 145.358 1100.4 146.953 1091.42 146.953C1082.5 146.953 1074.33 145.358 1066.91 142.168C1059.55 138.978 1053.17 134.388 1047.77 128.398C1042.36 122.344 1038.16 115.02 1035.17 106.426C1032.24 97.832 1030.77 88.1315 1030.77 77.3242V70.5859C1030.77 59.7135 1032.24 50.013 1035.17 41.4844C1038.1 32.8906 1042.23 25.5664 1047.57 19.5117C1052.97 13.457 1059.35 8.83464 1066.71 5.64453C1074.13 2.45443 1082.3 0.859375 1091.22 0.859375C1100.21 0.859375 1108.38 2.45443 1115.73 5.64453C1123.16 8.83464 1129.54 13.457 1134.88 19.5117C1140.28 25.5664 1144.45 32.8906 1147.38 41.4844C1150.37 50.013 1151.87 59.7135 1151.87 70.5859ZM1122.28 77.3242V70.3906C1122.28 62.8385 1121.59 56.1979 1120.23 50.4688C1118.86 44.7396 1116.84 39.9219 1114.17 36.0156C1111.5 32.1094 1108.25 29.1797 1104.41 27.2266C1100.57 25.2083 1096.17 24.1992 1091.22 24.1992C1086.27 24.1992 1081.88 25.2083 1078.04 27.2266C1074.26 29.1797 1071.04 32.1094 1068.37 36.0156C1065.77 39.9219 1063.78 44.7396 1062.41 50.4688C1061.05 56.1979 1060.36 62.8385 1060.36 70.3906V77.3242C1060.36 84.8112 1061.05 91.4518 1062.41 97.2461C1063.78 102.975 1065.8 107.826 1068.47 111.797C1071.14 115.703 1074.39 118.665 1078.23 120.684C1082.08 122.702 1086.47 123.711 1091.42 123.711C1096.37 123.711 1100.76 122.702 1104.6 120.684C1108.44 118.665 1111.67 115.703 1114.27 111.797C1116.87 107.826 1118.86 102.975 1120.23 97.2461C1121.59 91.4518 1122.28 84.8112 1122.28 77.3242ZM1228.33 94.3164H1192.1V71.4648H1228.33C1233.93 71.4648 1238.49 70.5534 1242 68.7305C1245.52 66.8424 1248.09 64.2383 1249.72 60.918C1251.35 57.5977 1252.16 53.8542 1252.16 49.6875C1252.16 45.4557 1251.35 41.5169 1249.72 37.8711C1248.09 34.2253 1245.52 31.2956 1242 29.082C1238.49 26.8685 1233.93 25.7617 1228.33 25.7617H1202.26V145H1172.96V2.8125H1228.33C1239.46 2.8125 1249 4.83073 1256.95 8.86719C1264.95 12.8385 1271.07 18.3398 1275.3 25.3711C1279.54 32.4023 1281.65 40.4427 1281.65 49.4922C1281.65 58.6719 1279.54 66.6146 1275.3 73.3203C1271.07 80.026 1264.95 85.2018 1256.95 88.8477C1249 92.4935 1239.46 94.3164 1228.33 94.3164ZM1333.02 2.8125V145H1303.82V2.8125H1333.02ZM1420.03 27.1289L1381.36 145H1350.21L1403.04 2.8125H1422.86L1420.03 27.1289ZM1452.16 145L1413.39 27.1289L1410.27 2.8125H1430.29L1483.41 145H1452.16ZM1450.4 92.0703V115.02H1375.3V92.0703H1450.4Z" fill="#63A410"/>
</svg>
