<svg width="359" height="345" viewBox="0 0 359 345" fill="none" xmlns="http://www.w3.org/2000/svg">
<rect width="359" height="345" fill="#507FB5"/>
<rect width="24" height="345" fill="#650505"/>
<g opacity="0.5">
<rect x="296" y="276" width="46.6909" height="2.64288" rx="0.3" fill="white"/>
<rect width="46.6909" height="2.64288" rx="0.3" transform="matrix(1 0 0 -1 296 336.786)" fill="white"/>
<rect x="300.404" y="280.404" width="37.8813" height="2.64288" rx="0.3" fill="white"/>
<rect width="37.8813" height="2.64288" rx="0.3" transform="matrix(1 0 0 -1 300.404 332.383)" fill="white"/>
<rect width="2.64288" height="42.2861" rx="0.3" transform="matrix(-1 0 0 1 316.262 284.811)" fill="url(#paint0_linear_649_3617)"/>
<rect width="2.64288" height="42.2861" rx="0.3" transform="matrix(-1 0 0 1 311.857 284.811)" fill="url(#paint1_linear_649_3617)"/>
<rect width="2.64288" height="42.2861" rx="0.3" transform="matrix(-1 0 0 1 320.667 284.811)" fill="url(#paint2_linear_649_3617)"/>
<rect width="2.64288" height="42.2861" rx="0.3" transform="matrix(-1 0 0 1 325.071 284.811)" fill="url(#paint3_linear_649_3617)"/>
<rect width="2.64288" height="42.2861" rx="0.3" transform="matrix(-1 0 0 1 329.477 284.811)" fill="url(#paint4_linear_649_3617)"/>
</g>
<defs>
<linearGradient id="paint0_linear_649_3617" x1="1.32144" y1="0" x2="1.32144" y2="42.2861" gradientUnits="userSpaceOnUse">
<stop offset="1" stop-color="white"/>
</linearGradient>
<linearGradient id="paint1_linear_649_3617" x1="1.32144" y1="0" x2="1.32144" y2="42.2861" gradientUnits="userSpaceOnUse">
<stop offset="1" stop-color="white"/>
</linearGradient>
<linearGradient id="paint2_linear_649_3617" x1="1.32144" y1="0" x2="1.32144" y2="42.2861" gradientUnits="userSpaceOnUse">
<stop offset="1" stop-color="white"/>
</linearGradient>
<linearGradient id="paint3_linear_649_3617" x1="1.32144" y1="0" x2="1.32144" y2="42.2861" gradientUnits="userSpaceOnUse">
<stop offset="1" stop-color="white"/>
</linearGradient>
<linearGradient id="paint4_linear_649_3617" x1="1.32144" y1="0" x2="1.32144" y2="42.2861" gradientUnits="userSpaceOnUse">
<stop offset="1" stop-color="white"/>
</linearGradient>
</defs>
</svg>
