<svg width="361" height="345" viewBox="0 0 361 345" fill="none" xmlns="http://www.w3.org/2000/svg">
<rect x="1" width="360" height="345" fill="#507FB5"/>
<rect width="24" height="345" fill="#679FF5"/>
<g opacity="0.5">
<rect x="302" y="276" width="46.6909" height="2.64288" rx="0.3" fill="white"/>
<rect width="46.6909" height="2.64288" rx="0.3" transform="matrix(1 0 0 -1 302 336.786)" fill="white"/>
<rect x="306.404" y="280.404" width="37.8813" height="2.64288" rx="0.3" fill="white"/>
<rect width="37.8813" height="2.64288" rx="0.3" transform="matrix(1 0 0 -1 306.404 332.383)" fill="white"/>
<rect width="2.64288" height="42.2861" rx="0.3" transform="matrix(-1 0 0 1 322.262 284.811)" fill="url(#paint0_linear_649_3618)"/>
<rect width="2.64288" height="42.2861" rx="0.3" transform="matrix(-1 0 0 1 317.857 284.811)" fill="url(#paint1_linear_649_3618)"/>
<rect width="2.64288" height="42.2861" rx="0.3" transform="matrix(-1 0 0 1 326.667 284.811)" fill="url(#paint2_linear_649_3618)"/>
<rect width="2.64288" height="42.2861" rx="0.3" transform="matrix(-1 0 0 1 331.071 284.811)" fill="url(#paint3_linear_649_3618)"/>
<rect width="2.64288" height="42.2861" rx="0.3" transform="matrix(-1 0 0 1 335.477 284.811)" fill="url(#paint4_linear_649_3618)"/>
</g>
<defs>
<linearGradient id="paint0_linear_649_3618" x1="1.32144" y1="0" x2="1.32144" y2="42.2861" gradientUnits="userSpaceOnUse">
<stop offset="1" stop-color="white"/>
</linearGradient>
<linearGradient id="paint1_linear_649_3618" x1="1.32144" y1="0" x2="1.32144" y2="42.2861" gradientUnits="userSpaceOnUse">
<stop offset="1" stop-color="white"/>
</linearGradient>
<linearGradient id="paint2_linear_649_3618" x1="1.32144" y1="0" x2="1.32144" y2="42.2861" gradientUnits="userSpaceOnUse">
<stop offset="1" stop-color="white"/>
</linearGradient>
<linearGradient id="paint3_linear_649_3618" x1="1.32144" y1="0" x2="1.32144" y2="42.2861" gradientUnits="userSpaceOnUse">
<stop offset="1" stop-color="white"/>
</linearGradient>
<linearGradient id="paint4_linear_649_3618" x1="1.32144" y1="0" x2="1.32144" y2="42.2861" gradientUnits="userSpaceOnUse">
<stop offset="1" stop-color="white"/>
</linearGradient>
</defs>
</svg>
