<svg width="359" height="345" viewBox="0 0 359 345" fill="none" xmlns="http://www.w3.org/2000/svg">
<rect width="359" height="345" fill="#507FB5"/>
<rect width="24" height="345" fill="#68854D" fill-opacity="0.7"/>
<g opacity="0.5">
<rect x="297.993" y="274" width="46.6909" height="2.64288" rx="0.3" fill="white"/>
<rect width="46.6909" height="2.64288" rx="0.3" transform="matrix(1 0 0 -1 297.993 334.786)" fill="white"/>
<rect x="302.397" y="278.404" width="37.8813" height="2.64288" rx="0.3" fill="white"/>
<rect width="37.8813" height="2.64288" rx="0.3" transform="matrix(1 0 0 -1 302.397 330.383)" fill="white"/>
<rect width="2.64288" height="42.2861" rx="0.3" transform="matrix(-1 0 0 1 318.255 282.811)" fill="url(#paint0_linear_649_3619)"/>
<rect width="2.64288" height="42.2861" rx="0.3" transform="matrix(-1 0 0 1 313.851 282.811)" fill="url(#paint1_linear_649_3619)"/>
<rect width="2.64288" height="42.2861" rx="0.3" transform="matrix(-1 0 0 1 322.66 282.811)" fill="url(#paint2_linear_649_3619)"/>
<rect width="2.64288" height="42.2861" rx="0.3" transform="matrix(-1 0 0 1 327.064 282.811)" fill="url(#paint3_linear_649_3619)"/>
<rect width="2.64288" height="42.2861" rx="0.3" transform="matrix(-1 0 0 1 331.47 282.811)" fill="url(#paint4_linear_649_3619)"/>
</g>
<defs>
<linearGradient id="paint0_linear_649_3619" x1="1.32144" y1="0" x2="1.32144" y2="42.2861" gradientUnits="userSpaceOnUse">
<stop offset="1" stop-color="white"/>
</linearGradient>
<linearGradient id="paint1_linear_649_3619" x1="1.32144" y1="0" x2="1.32144" y2="42.2861" gradientUnits="userSpaceOnUse">
<stop offset="1" stop-color="white"/>
</linearGradient>
<linearGradient id="paint2_linear_649_3619" x1="1.32144" y1="0" x2="1.32144" y2="42.2861" gradientUnits="userSpaceOnUse">
<stop offset="1" stop-color="white"/>
</linearGradient>
<linearGradient id="paint3_linear_649_3619" x1="1.32144" y1="0" x2="1.32144" y2="42.2861" gradientUnits="userSpaceOnUse">
<stop offset="1" stop-color="white"/>
</linearGradient>
<linearGradient id="paint4_linear_649_3619" x1="1.32144" y1="0" x2="1.32144" y2="42.2861" gradientUnits="userSpaceOnUse">
<stop offset="1" stop-color="white"/>
</linearGradient>
</defs>
</svg>
