<svg width="366" height="147" viewBox="0 0 366 147" fill="none" xmlns="http://www.w3.org/2000/svg">
<path d="M72.2695 2.8125V145H43.0703V2.8125H72.2695ZM116.02 2.8125V25.7617H0.00390625V2.8125H116.02ZM212.406 97.832H241.605C241.02 107.402 238.383 115.898 233.695 123.32C229.073 130.742 222.595 136.536 214.262 140.703C205.993 144.87 196.033 146.953 184.379 146.953C175.264 146.953 167.094 145.391 159.867 142.266C152.641 139.076 146.456 134.518 141.312 128.594C136.234 122.669 132.361 115.508 129.691 107.109C127.022 98.7109 125.688 89.3034 125.688 78.8867V69.0234C125.688 58.6068 127.055 49.1992 129.789 40.8008C132.589 32.3372 136.56 25.1432 141.703 19.2188C146.911 13.2943 153.129 8.73698 160.355 5.54688C167.582 2.35677 175.655 0.761719 184.574 0.761719C196.423 0.761719 206.417 2.91016 214.555 7.20703C222.758 11.5039 229.105 17.4284 233.598 24.9805C238.155 32.5326 240.889 41.1263 241.801 50.7617H212.504C212.178 45.0326 211.039 40.1823 209.086 36.2109C207.133 32.1745 204.171 29.1471 200.199 27.1289C196.293 25.0456 191.085 24.0039 184.574 24.0039C179.691 24.0039 175.427 24.9154 171.781 26.7383C168.135 28.5612 165.076 31.3281 162.602 35.0391C160.128 38.75 158.272 43.4375 157.035 49.1016C155.863 54.7005 155.277 61.276 155.277 68.8281V78.8867C155.277 86.2435 155.831 92.7214 156.938 98.3203C158.044 103.854 159.737 108.542 162.016 112.383C164.359 116.159 167.354 119.023 171 120.977C174.711 122.865 179.171 123.809 184.379 123.809C190.499 123.809 195.544 122.832 199.516 120.879C203.487 118.926 206.514 116.029 208.598 112.188C210.746 108.346 212.016 103.561 212.406 97.832ZM321.488 2.8125V145H292.289V2.8125H321.488ZM365.238 2.8125V25.7617H249.223V2.8125H365.238Z" fill="#A41010"/>
</svg>
