<svg width="88" height="52" viewBox="0 0 88 52" fill="none" xmlns="http://www.w3.org/2000/svg">
<path d="M44.3092 0.751055C67.3681 -1.81105 108.06 0.751055 75.0544 31.4963C80.0279 21.5493 99.4698 0.751055 44.3092 0.751055Z" fill="#2A2E53"/>
<path d="M43.1602 50.9379C20.1013 53.5 -20.591 50.9379 12.415 20.1927C7.44147 30.1397 -12.0004 50.9379 43.1602 50.9379Z" fill="#2A2E53"/>
<rect x="28.0323" y="6.62842" width="28.0324" height="1.80854" rx="0.3" fill="#2A2E53"/>
<rect x="53.3519" y="13.8628" width="18.9897" height="0.904272" rx="0.3" fill="#2A2E53"/>
<rect x="10.8512" y="13.8628" width="18.9897" height="0.904272" rx="0.3" fill="#2A2E53"/>
<rect x="28.0323" y="44.3745" width="28.0324" height="1.80854" rx="0.3" fill="#2A2E53"/>
<rect x="53.3519" y="37.3735" width="18.9897" height="0.904272" rx="0.3" fill="#2A2E53"/>
<rect x="10.8512" y="37.3735" width="18.9897" height="0.904272" rx="0.3" fill="#2A2E53"/>
<rect x="30.7452" y="9.3418" width="22.6068" height="1.80854" rx="0.3" fill="#2A2E53"/>
<rect x="55.1605" y="15.6719" width="15.3726" height="0.904272" rx="0.3" fill="#2A2E53"/>
<rect x="12.6597" y="15.6719" width="15.3726" height="0.904272" rx="0.3" fill="#2A2E53"/>
<rect x="30.7452" y="41.8955" width="22.6068" height="1.80854" rx="0.3" fill="#2A2E53"/>
<rect x="55.1605" y="35.5659" width="15.3726" height="0.904272" rx="0.3" fill="#2A2E53"/>
<rect x="12.6597" y="35.5659" width="15.3726" height="0.904272" rx="0.3" fill="#2A2E53"/>
<rect width="1.80854" height="27.1282" rx="0.3" transform="matrix(-1 0 0 1 37.0752 12.9585)" fill="#2A2E53"/>
<rect width="0.904272" height="17.1812" rx="0.3" transform="matrix(-1 0 0 1 59.6816 17.4805)" fill="#2A2E53"/>
<rect width="0.904272" height="17.1812" rx="0.3" transform="matrix(-1 0 0 1 17.1808 17.4805)" fill="#2A2E53"/>
<rect width="1.80854" height="27.1282" rx="0.3" transform="matrix(-1 0 0 1 39.7878 12.9585)" fill="#2A2E53"/>
<rect width="0.904272" height="17.1812" rx="0.3" transform="matrix(-1 0 0 1 61.4903 17.4805)" fill="#2A2E53"/>
<rect width="0.904272" height="17.1812" rx="0.3" transform="matrix(-1 0 0 1 18.9894 17.4805)" fill="#2A2E53"/>
<rect width="1.80854" height="27.1282" rx="0.3" transform="matrix(-1 0 0 1 42.5005 12.9585)" fill="#2A2E53"/>
<rect width="0.904272" height="17.1812" rx="0.3" transform="matrix(-1 0 0 1 63.2987 17.4805)" fill="#2A2E53"/>
<rect width="0.904272" height="17.1812" rx="0.3" transform="matrix(-1 0 0 1 20.7981 17.4805)" fill="#2A2E53"/>
<rect width="1.80854" height="27.1282" rx="0.3" transform="matrix(-1 0 0 1 45.2136 12.9585)" fill="#2A2E53"/>
<rect width="0.904272" height="17.1812" rx="0.3" transform="matrix(-1 0 0 1 65.1074 17.4805)" fill="#2A2E53"/>
<rect width="0.904272" height="17.1812" rx="0.3" transform="matrix(-1 0 0 1 22.6066 17.4805)" fill="#2A2E53"/>
<rect width="1.80854" height="27.1282" rx="0.3" transform="matrix(-1 0 0 1 47.9263 12.9585)" fill="#2A2E53"/>
<rect width="0.904272" height="17.1812" rx="0.3" transform="matrix(-1 0 0 1 66.916 17.4805)" fill="#2A2E53"/>
<rect width="0.904272" height="17.1812" rx="0.3" transform="matrix(-1 0 0 1 24.415 17.4805)" fill="#2A2E53"/>
</svg>
