<svg width="311" height="178" viewBox="0 0 311 178" fill="none" xmlns="http://www.w3.org/2000/svg">
<path d="M164.405 2.54279C242.474 -6.13152 380.242 2.54278 268.497 106.634C268.497 67.9684 345.64 28.1249 164.405 2.54279Z" fill="#2A2E53"/>
<path d="M151.599 171.279C43.7562 190.228 -64.2379 171.279 47.5076 67.187C35.9439 115.229 -35.1535 171.279 151.599 171.279Z" fill="#2A2E53"/>
<rect x="111.266" y="15.625" width="93.7495" height="10.9374" rx="0.3" fill="#2A2E53"/>
<rect x="51.8911" y="43.75" width="64.0622" height="6.24997" rx="0.3" fill="#2A2E53"/>
<rect x="201.89" y="43.75" width="64.0622" height="6.24997" rx="0.3" fill="#2A2E53"/>
<rect x="111.266" y="151.562" width="93.7495" height="10.9374" rx="0.3" fill="#2A2E53"/>
<rect x="50.3286" y="126.562" width="64.0622" height="9.37496" rx="0.3" fill="#2A2E53"/>
<rect x="200.328" y="126.562" width="64.0622" height="9.37496" rx="0.3" fill="#2A2E53"/>
<rect x="120.641" y="29.6875" width="76.5621" height="10.9374" rx="0.3" fill="#2A2E53"/>
<rect x="56.5785" y="51.562" width="53.1247" height="4.68748" rx="0.3" fill="#2A2E53"/>
<rect x="206.578" y="51.562" width="53.1247" height="4.68748" rx="0.3" fill="#2A2E53"/>
<rect x="120.641" y="139.062" width="76.5621" height="10.9374" rx="0.3" fill="#2A2E53"/>
<rect x="56.5785" y="120.312" width="53.1247" height="4.68748" rx="0.3" fill="#2A2E53"/>
<rect x="206.578" y="120.312" width="53.1247" height="4.68748" rx="0.3" fill="#2A2E53"/>
<rect width="6.24997" height="57.8122" rx="0.3" transform="matrix(-1 0 0 1 70.6409 59.3745)" fill="#2A2E53"/>
<rect width="6.24997" height="57.8122" rx="0.3" transform="matrix(-1 0 0 1 220.64 59.3745)" fill="#2A2E53"/>
<rect width="6.24997" height="57.8122" rx="0.3" transform="matrix(-1 0 0 1 78.4534 59.3745)" fill="#2A2E53"/>
<rect width="6.24997" height="57.8122" rx="0.3" transform="matrix(-1 0 0 1 228.453 59.3745)" fill="#2A2E53"/>
<rect width="6.24997" height="57.8122" rx="0.3" transform="matrix(-1 0 0 1 86.2659 59.3745)" fill="#2A2E53"/>
<rect width="6.24997" height="57.8122" rx="0.3" transform="matrix(-1 0 0 1 236.265 59.3745)" fill="#2A2E53"/>
<rect width="10.9374" height="92.1871" rx="0.3" transform="matrix(-1 0 0 1 187.828 43.75)" fill="#2A2E53"/>
<rect width="10.9374" height="92.1871" rx="0.3" transform="matrix(-1 0 0 1 175.328 43.75)" fill="#2A2E53"/>
<rect width="9.37496" height="92.1871" rx="0.3" transform="matrix(-1 0 0 1 162.828 43.75)" fill="#2A2E53"/>
<rect width="10.9374" height="92.1871" rx="0.3" transform="matrix(-1 0 0 1 151.891 43.75)" fill="#2A2E53"/>
<rect width="10.9374" height="92.1871" rx="0.3" transform="matrix(-1 0 0 1 139.391 43.75)" fill="#2A2E53"/>
<rect width="6.24997" height="57.8122" rx="0.3" transform="matrix(-1 0 0 1 94.0783 59.3745)" fill="#2A2E53"/>
<rect width="6.24997" height="57.8122" rx="0.3" transform="matrix(-1 0 0 1 244.078 59.3745)" fill="#2A2E53"/>
<rect width="6.24997" height="57.8122" rx="0.3" transform="matrix(-1 0 0 1 101.891 59.3745)" fill="#2A2E53"/>
<rect width="6.24997" height="57.8122" rx="0.3" transform="matrix(-1 0 0 1 251.89 59.3745)" fill="#2A2E53"/>
</svg>
