<svg width="30" height="30" viewBox="0 0 30 30" fill="none" xmlns="http://www.w3.org/2000/svg">
<path d="M15 5.92285C12.1731 5.92285 9.87299 8.22301 9.87299 11.0499C9.87299 13.8767 12.1731 16.1769 15 16.1769C17.8269 16.1769 20.127 13.8767 20.127 11.0499C20.127 8.22301 17.8269 5.92285 15 5.92285Z" fill="#0178CB"/>
<path d="M13.8481 23.4281L13.8206 23.4029L13.1673 22.8118L11.63 21.4209L9.95843 21.6008L8.9355 21.7103L8.69298 21.7367L7.91198 21.8205L5.45245 27.0471L9.26128 27.0975L11.7266 30L14.5295 24.0445L13.8481 23.4281Z" fill="#0178CB"/>
<path d="M22.088 21.8205L21.307 21.7367L21.0645 21.7109L20.0416 21.6008L18.37 21.4209L16.8327 22.8118L16.1794 23.4029L16.1519 23.4281L15.4705 24.0445L18.2734 30L20.7387 27.0975L24.5476 27.0471L22.088 21.8205Z" fill="#0178CB"/>
<path d="M23.9793 11.0497L25.509 7.63523L22.2644 5.77207L21.4951 2.11031L17.7748 2.50986L15.0001 0L12.2253 2.50992L8.505 2.11037L7.73572 5.77207L4.49109 7.63518L6.0208 11.0497L4.49109 14.4642L7.73572 16.3273L8.505 19.989L8.78859 19.9586L9.8121 19.8484L10.835 19.7388L11.1093 19.7095H11.1098L12.2253 19.5894L13.0644 20.3481L13.9496 21.1491L14.2256 21.3987L14.631 21.7654L15.0001 22.0993L15.3692 21.7654L15.7746 21.3987L16.0506 21.1491L16.739 20.5269L16.7396 20.5263L17.7748 19.5895L19.5828 19.7834H19.5834L19.7674 19.8033L20.1881 19.8485H20.1886L21.2116 19.9586L21.4952 19.9891L22.2644 16.3273L25.5091 14.4642L23.9793 11.0497ZM15.0001 17.9344C11.2041 17.9344 8.11535 14.8462 8.11535 11.0497C8.11535 7.25373 11.2041 4.16496 15.0001 4.16496C18.796 4.16496 21.8848 7.25373 21.8848 11.0497C21.8848 14.8462 18.796 17.9344 15.0001 17.9344Z" fill="#0178CB"/>
</svg>
