<svg width="53" height="39" viewBox="0 0 53 39" fill="none" xmlns="http://www.w3.org/2000/svg">
<path d="M33.9531 20.3125C33.9531 21.658 33.0256 22.75 31.8828 22.75C30.74 22.75 29.8125 21.658 29.8125 20.3125C29.8125 18.967 30.74 17.875 31.8828 17.875C33.0256 17.875 33.9531 18.967 33.9531 20.3125ZM21.1172 17.875C19.9744 17.875 19.0469 18.967 19.0469 20.3125C19.0469 21.658 19.9744 22.75 21.1172 22.75C22.26 22.75 23.1875 21.658 23.1875 20.3125C23.1875 18.967 22.26 17.875 21.1172 17.875ZM26.5 31.4503C30.2017 31.4503 31.4688 27.625 31.4688 27.625H21.5312C21.5312 27.625 22.9341 31.4503 26.5 31.4503ZM46.375 22.0204C46.375 25.1485 44.891 29.7196 40.8812 30.4509C37.6366 36.1254 32.8037 39 26.5 39C20.1963 39 15.3634 36.1254 12.1188 30.4525C8.109 29.7196 6.625 25.1501 6.625 22.0204C6.625 18.5315 7.96491 15.3693 11.3337 15.158C12.084 6.87213 17.8693 1.625 26.5 1.625C35.1307 1.625 40.916 6.87213 41.6663 15.1596C45.0384 15.3693 46.375 18.5282 46.375 22.0204ZM42.0174 18.5819C41.5669 18.2926 40.9988 18.4129 40.7653 18.5152C39.6705 18.9914 38.4366 18.2049 38.4366 17.03C38.4366 14.846 37.9149 8.89362 32.706 6.21725C34.8657 8.4175 35.6094 12.3792 35.6094 14.625H14.7539C14.6048 15.6016 14.5634 16.4515 14.5634 17.03C14.5634 18.2049 13.3295 18.9914 12.2347 18.5152C11.9995 18.4129 11.4331 18.2926 10.9826 18.5819C9.15741 19.7454 9.66091 27.2366 13.197 27.3032C13.8048 27.3146 14.3597 27.6542 14.6379 28.1856C18.598 35.75 24.544 35.75 26.5 35.75C28.456 35.75 34.402 35.75 38.3621 28.1856C38.6403 27.6526 39.1952 27.3146 39.803 27.3032C43.3374 27.235 43.8442 19.7454 42.0174 18.5819ZM40.9922 7.61637C47.281 5.84025 41.6133 19.5536 53 19.5C49.2469 17.1129 51.521 10.6015 50.5156 6.23025C49.6577 2.50413 46.6599 1.625 44.7188 1.625C41.6133 1.625 39.5744 3.42225 38.7513 4.74825C39.6523 5.525 40.4307 6.73725 40.9922 7.61637ZM14.2487 4.74825C13.4256 3.42225 11.3867 1.625 8.28125 1.625C6.34013 1.625 3.34231 2.50413 2.48438 6.23025C1.47903 10.6015 3.75306 17.1129 0 19.5C11.3867 19.5536 5.71903 5.84025 12.0078 7.61637C12.5693 6.73725 13.3477 5.525 14.2487 4.74825Z" fill="#2A2E53"/>
</svg>
