<svg width="378" height="486" viewBox="0 0 378 486" fill="none" xmlns="http://www.w3.org/2000/svg">
<path d="M53 54.1241V0L108 54.1241V109L53 54.1241Z" fill="white"/>
<path d="M0 431.124V377L55 431.124V486L0 431.124Z" fill="white"/>
<path d="M109 419.124V365L164 419.124V474L109 419.124Z" fill="white"/>
<path d="M323 400.124V346L378 400.124V455L323 400.124Z" fill="white"/>
<path d="M268 291.124V237L323 291.124V346L268 291.124Z" fill="white"/>
<path d="M268 400.124V346L323 400.124V455L268 400.124Z" fill="white"/>
<path d="M323 163.124V109L378 163.124V218L323 163.124Z" fill="white"/>
<path d="M0 299.124V245L55 299.124V354L0 299.124Z" fill="white"/>
<path d="M0 180.124V126L55 180.124V235L0 180.124Z" fill="white"/>
<path d="M109 200.124V146L164 200.124V255L109 200.124Z" fill="white"/>
<path d="M163 308.124V254L219 308.124V363L163 308.124Z" fill="white"/>
<path d="M213 182.124V128L268 182.124V237L213 182.124Z" fill="white"/>
<path d="M109 310.124V256L164 310.124V365L109 310.124Z" fill="white"/>
</svg>
