<svg width="44" height="45" viewBox="0 0 44 45" fill="none" xmlns="http://www.w3.org/2000/svg">
<path d="M43.9908 45H40.3333C40.3333 39.18 40.5515 38.3438 37.1048 37.5262C31.8303 36.2812 26.8492 35.1056 25.0342 31.0425C24.3723 29.5594 23.9323 27.1144 25.6025 23.8912C29.3462 16.6594 30.2848 10.4569 28.1747 6.87375C25.7162 2.69437 18.2508 2.67188 15.7703 6.9375C13.6547 10.5694 14.6062 16.7381 18.381 23.8594C20.086 27.0694 19.6588 29.5219 19.0007 31.0125C17.2003 35.0963 12.2632 36.2606 7.03817 37.4925C3.4375 38.3438 3.66667 39.1237 3.66667 45H0.00916667L0 42.6731C0 37.9481 0.364833 35.22 5.82633 33.93C11.9955 32.4731 18.0877 31.1681 15.158 25.6463C6.48083 9.27938 12.683 0 22 0C31.1355 0 37.4935 8.93625 28.842 25.6463C25.9985 31.1363 31.867 32.4412 38.1737 33.93C43.6352 35.22 44 37.9481 44 42.6731L43.9908 45ZM33 39.375H23.8333V43.125H33V39.375Z" fill="#2A2E53"/>
</svg>
