<svg width="20" height="21" viewBox="0 0 20 21" fill="none" xmlns="http://www.w3.org/2000/svg">
<g clip-path="url(#clip0_326_61764)">
<path fill-rule="evenodd" clip-rule="evenodd" d="M0 10.5586C0 15.7789 3.4588 20.1197 7.98246 21V13.4164H5.58772V10.5H7.98246V8.16638C7.98246 5.54138 9.52547 4.08362 11.7079 4.08362C12.3991 4.08362 13.1447 4.2 13.836 4.31638V7H12.6123C11.4413 7 11.1754 7.64137 11.1754 8.45862V10.5H13.7298L13.3044 13.4164H11.1754V21C15.6991 20.1197 19.1579 15.7798 19.1579 10.5586C19.1579 4.75125 14.8474 0 9.57895 0C4.31053 0 0 4.75125 0 10.5586Z" fill="white"/>
</g>
<defs>
<clipPath id="clip0_326_61764">
<rect width="19.1579" height="21" fill="white"/>
</clipPath>
</defs>
</svg>
