<svg width="20" height="20" viewBox="0 0 20 20" fill="none" xmlns="http://www.w3.org/2000/svg">
<path d="M15.8333 0H4.16667C1.86583 0 0 1.86583 0 4.16667V15.8333C0 18.1342 1.86583 20 4.16667 20H15.8333C18.135 20 20 18.1342 20 15.8333V4.16667C20 1.86583 18.135 0 15.8333 0ZM7.2225 13.8892C5.07167 13.8892 3.33333 12.15 3.33333 10C3.33333 7.85 5.07167 6.11083 7.2225 6.11083C8.2725 6.11083 9.15 6.49417 9.82833 7.1275L8.7725 8.14417C8.48333 7.86667 7.9775 7.54417 7.2225 7.54417C5.895 7.54417 4.81167 8.64417 4.81167 10C4.81167 11.3558 5.895 12.4558 7.2225 12.4558C8.76167 12.4558 9.33917 11.35 9.42833 10.7783H7.2225V9.445H10.8942C10.9283 9.63917 10.9558 9.83417 10.9558 10.0892C10.955 12.3108 9.46667 13.8892 7.2225 13.8892ZM16.6667 10.5558H15V12.2225H13.8883V10.5558H12.2217V9.445H13.8883V7.77833H15V9.445H16.6667V10.5558Z" fill="white"/>
</svg>
