<svg width="320" height="77" viewBox="0 0 320 77" fill="none" xmlns="http://www.w3.org/2000/svg">
<g opacity="0.5">
<path d="M252.673 -7.15518e-07L269.042 0L252.673 15.9511L236.077 15.9511L252.673 -7.15518e-07Z" fill="#68854D"/>
<path d="M123.465 1.06348L139.306 1.06348L123.465 17.0146L107.404 17.0146L123.465 1.06348Z" fill="#032A56"/>
<path d="M220.771 1.06348L237.14 1.06348L220.771 17.0146L204.174 17.0146L220.771 1.06348Z" fill="#68854D"/>
<path d="M91.0351 1.06348L107.404 1.06348L91.0351 17.0146L74.4386 17.0146L91.0351 1.06348Z" fill="#032A56"/>
<path d="M173.981 1.06348L190.35 1.06348L173.981 17.0146L157.384 17.0146L173.981 1.06348Z" fill="#507FB5"/>
<path d="M303.181 1.06348L319.022 1.06348L303.181 17.0146L287.12 17.0146L303.181 1.06348Z" fill="#679FF5"/>
<path d="M47.9634 1.06348L63.8045 1.06348L47.9634 17.0146L31.9023 17.0146L47.9634 1.06348Z" fill="#679FF5"/>
<path d="M173.981 15.9512L190.35 15.9512L173.981 32.9657L157.384 32.9657L173.981 15.9512Z" fill="#507FB5"/>
<path d="M303.181 15.9512L319.022 15.9512L303.181 32.9657L287.12 32.9657L303.181 15.9512Z" fill="#679FF5"/>
<path d="M47.9634 15.9512L63.8045 15.9512L47.9634 32.9657L31.9023 32.9657L47.9634 15.9512Z" fill="#679FF5"/>
<path d="M221.299 15.9512L237.14 15.9512L221.299 31.9023L205.238 31.9023L221.299 15.9512Z" fill="#68854D"/>
<path d="M91.5631 17.0146L107.404 17.0146L91.5631 32.9658L75.502 32.9658L91.5631 17.0146Z" fill="#032A56"/>
<path d="M142.607 17.0146L158.448 17.0146L142.607 32.9658L126.546 32.9658L142.607 17.0146Z" fill="#507FB5"/>
<path d="M271.279 17.0146L287.12 17.0146L271.279 32.9658L255.218 32.9658L271.279 17.0146Z" fill="#679FF5"/>
<path d="M16.0611 17.0146L31.9022 17.0146L16.0611 32.9658L-2.54928e-05 32.9658L16.0611 17.0146Z" fill="#679FF5"/>
</g>
<g opacity="0.5">
<path d="M252.673 44L269.042 44L252.673 59.9511L236.077 59.9511L252.673 44Z" fill="#68854D"/>
<path d="M123.465 45.0635L139.306 45.0635L123.465 61.0146L107.404 61.0146L123.465 45.0635Z" fill="#032A56"/>
<path d="M220.771 45.0635L237.14 45.0635L220.771 61.0146L204.174 61.0146L220.771 45.0635Z" fill="#68854D"/>
<path d="M91.0351 45.0635L107.404 45.0635L91.0351 61.0146L74.4386 61.0146L91.0351 45.0635Z" fill="#032A56"/>
<path d="M173.981 45.0635L190.35 45.0635L173.981 61.0146L157.384 61.0146L173.981 45.0635Z" fill="#507FB5"/>
<path d="M303.181 45.0635L319.022 45.0635L303.181 61.0146L287.12 61.0146L303.181 45.0635Z" fill="#679FF5"/>
<path d="M47.9634 45.0635L63.8045 45.0635L47.9634 61.0146L31.9023 61.0146L47.9634 45.0635Z" fill="#679FF5"/>
<path d="M173.981 59.9512L190.35 59.9512L173.981 76.9657L157.384 76.9657L173.981 59.9512Z" fill="#507FB5"/>
<path d="M303.181 59.9512L319.022 59.9512L303.181 76.9657L287.12 76.9657L303.181 59.9512Z" fill="#679FF5"/>
<path d="M47.9634 59.9512L63.8045 59.9512L47.9634 76.9657L31.9023 76.9657L47.9634 59.9512Z" fill="#679FF5"/>
<path d="M221.299 59.9512L237.14 59.9512L221.299 75.9023L205.238 75.9023L221.299 59.9512Z" fill="#68854D"/>
<path d="M91.5631 61.0146L107.404 61.0146L91.5631 76.9658L75.502 76.9658L91.5631 61.0146Z" fill="#032A56"/>
<path d="M142.607 61.0146L158.448 61.0146L142.607 76.9658L126.546 76.9658L142.607 61.0146Z" fill="#507FB5"/>
<path d="M271.279 61.0146L287.12 61.0146L271.279 76.9658L255.218 76.9658L271.279 61.0146Z" fill="#679FF5"/>
<path d="M16.0611 61.0146L31.9022 61.0146L16.0611 76.9658L-2.54928e-05 76.9658L16.0611 61.0146Z" fill="#679FF5"/>
</g>
</svg>
