<svg width="53" height="53" viewBox="0 0 53 53" fill="none" xmlns="http://www.w3.org/2000/svg">
<g clip-path="url(#clip0_238_2372)">
<path d="M30.4465 37.1553H9.21398C8.48414 37.1553 7.89244 37.7469 7.89244 38.4768V43.7847C7.89244 44.5145 8.48414 45.1062 9.21398 45.1062H30.4465C31.1764 45.1062 31.7681 44.5145 31.7681 43.7847V38.4768C31.7681 37.7469 31.1765 37.1553 30.4465 37.1553Z" fill="#2A2E53"/>
<path d="M51.8349 34.1666L37.7478 20.0801L32.1255 25.7022L46.2125 39.7887C46.9875 40.5637 48.0056 40.9512 49.0237 40.9512C50.0417 40.9512 51.0598 40.5637 51.8348 39.7887C53.385 38.2386 53.385 35.7166 51.8349 34.1666Z" fill="#2A2E53"/>
<path d="M37.7678 16.3271L28.3935 6.95317L19.0035 16.3427L28.3779 25.7167L37.7678 16.3271Z" fill="#2A2E53"/>
<path d="M14.3176 17.2679L12.4331 19.1523C11.917 19.6684 11.917 20.5051 12.4331 21.0212L23.6935 32.281C23.9515 32.5391 24.2897 32.6681 24.6279 32.6681C24.966 32.6681 25.3043 32.5391 25.5623 32.281L27.4468 30.3966C27.9629 29.8805 27.9629 29.0438 27.4468 28.5278L16.1866 17.268C15.6705 16.7518 14.8337 16.7518 14.3176 17.2679Z" fill="#2A2E53"/>
<path d="M40.5758 15.4001C41.0919 15.9162 41.9286 15.9162 42.4447 15.4001L44.3292 13.5157C44.8453 12.9996 44.8453 12.163 44.3292 11.6469L33.069 0.387027C32.5531 -0.128965 31.7163 -0.129053 31.2001 0.387027L29.3156 2.27145C28.7995 2.78753 28.7995 3.6242 29.3156 4.14028L40.5758 15.4001Z" fill="#2A2E53"/>
</g>
<defs>
<clipPath id="clip0_238_2372">
<rect width="53" height="53" fill="white" transform="matrix(-1 0 0 1 53 0)"/>
</clipPath>
</defs>
</svg>
