<svg width="437" height="138" viewBox="0 0 437 138" fill="none" xmlns="http://www.w3.org/2000/svg">
<path d="M92.858 28H37.2465C37.0289 28 36.8525 28.1764 36.8525 28.394V31.2447C36.8525 31.4623 37.0289 31.6387 37.2465 31.6387H92.858C93.0756 31.6387 93.252 31.4623 93.252 31.2447V28.394C93.252 28.1764 93.0756 28 92.858 28Z" fill="white"/>
<path d="M125.606 42.5565H88.1879C87.9703 42.5565 87.7939 42.7329 87.7939 42.9505V43.9819C87.7939 44.1995 87.9703 44.3758 88.1879 44.3758H125.606C125.824 44.3758 126 44.1995 126 43.9819V42.9505C126 42.7329 125.824 42.5565 125.606 42.5565Z" fill="white"/>
<path d="M40.0971 42.5565H2.67915C2.46155 42.5565 2.28516 42.7329 2.28516 42.9505V43.9819C2.28516 44.1995 2.46155 44.3758 2.67915 44.3758H40.0971C40.3147 44.3758 40.4911 44.1995 40.4911 43.9819V42.9505C40.4911 42.7329 40.3147 42.5565 40.0971 42.5565Z" fill="white"/>
<path d="M92.858 103.943H37.2465C37.0289 103.943 36.8525 104.12 36.8525 104.337V107.188C36.8525 107.406 37.0289 107.582 37.2465 107.582H92.858C93.0756 107.582 93.252 107.406 93.252 107.188V104.337C93.252 104.12 93.0756 103.943 92.858 103.943Z" fill="white"/>
<path d="M125.606 89.8573H88.1879C87.9703 89.8573 87.7939 90.0337 87.7939 90.2513V91.2826C87.7939 91.5002 87.9703 91.6766 88.1879 91.6766H125.606C125.824 91.6766 126 91.5002 126 91.2826V90.2513C126 90.0337 125.824 89.8573 125.606 89.8573Z" fill="white"/>
<path d="M40.0971 89.8573H2.67915C2.46155 89.8573 2.28516 90.0337 2.28516 90.2513V91.2826C2.28516 91.5002 2.46155 91.6766 2.67915 91.6766H40.0971C40.3147 91.6766 40.4911 91.5002 40.4911 91.2826V90.2513C40.4911 90.0337 40.3147 89.8573 40.0971 89.8573Z" fill="white"/>
<path d="M87.3999 33.4597H42.7045C42.4869 33.4597 42.3105 33.6361 42.3105 33.8537V36.7044C42.3105 36.922 42.4869 37.0984 42.7045 37.0984H87.3999C87.6175 37.0984 87.7939 36.922 87.7939 36.7044V33.8537C87.7939 33.6361 87.6175 33.4597 87.3999 33.4597Z" fill="white"/>
<path d="M121.968 46.1964H91.8276C91.61 46.1964 91.4336 46.3728 91.4336 46.5904V47.6218C91.4336 47.8393 91.61 48.0157 91.8276 48.0157H121.968C122.186 48.0157 122.362 47.8393 122.362 47.6218V46.5904C122.362 46.3728 122.186 46.1964 121.968 46.1964Z" fill="white"/>
<path d="M36.4585 46.1964H6.31782C6.10022 46.1964 5.92383 46.3728 5.92383 46.5904V47.6218C5.92383 47.8393 6.10022 48.0157 6.31782 48.0157H36.4585C36.6761 48.0157 36.8525 47.8393 36.8525 47.6218V46.5904C36.8525 46.3728 36.6761 46.1964 36.4585 46.1964Z" fill="white"/>
<path d="M87.3999 98.9568H42.7045C42.4869 98.9568 42.3105 99.1332 42.3105 99.3508V102.201C42.3105 102.419 42.4869 102.595 42.7045 102.595H87.3999C87.6175 102.595 87.7939 102.419 87.7939 102.201V99.3508C87.7939 99.1332 87.6175 98.9568 87.3999 98.9568Z" fill="white"/>
<path d="M121.968 86.224H91.8276C91.61 86.224 91.4336 86.4004 91.4336 86.618V87.6493C91.4336 87.8669 91.61 88.0433 91.8276 88.0433H121.968C122.186 88.0433 122.362 87.8669 122.362 87.6493V86.618C122.362 86.4004 122.186 86.224 121.968 86.224Z" fill="white"/>
<path d="M36.4585 86.224H6.31782C6.10022 86.224 5.92383 86.4004 5.92383 86.618V87.6493C5.92383 87.8669 6.10022 88.0433 6.31782 88.0433H36.4585C36.6761 88.0433 36.8525 87.8669 36.8525 87.6493V86.618C36.8525 86.4004 36.6761 86.224 36.4585 86.224Z" fill="white"/>
<path d="M51.8017 40.7379H54.6524C54.87 40.7379 55.0464 40.9143 55.0464 41.1319V94.9239C55.0464 95.1415 54.87 95.3179 54.6524 95.3179H51.8017C51.5841 95.3179 51.4077 95.1415 51.4077 94.9239V41.1319C51.4077 40.9143 51.5841 40.7379 51.8017 40.7379Z" fill="white"/>
<path d="M99.103 49.8362H100.134C100.352 49.8362 100.528 50.0126 100.528 50.2302V84.0095C100.528 84.2271 100.352 84.4035 100.134 84.4035H99.103C98.8854 84.4035 98.709 84.2271 98.709 84.0095V50.2302C98.709 50.0126 98.8854 49.8362 99.103 49.8362Z" fill="white"/>
<path d="M13.5947 49.8362H14.626C14.8436 49.8362 15.02 50.0126 15.02 50.2302V84.0095C15.02 84.2271 14.8436 84.4035 14.626 84.4035H13.5947C13.3771 84.4035 13.2007 84.2271 13.2007 84.0095V50.2302C13.2007 50.0126 13.3771 49.8362 13.5947 49.8362Z" fill="white"/>
<path d="M57.2597 40.7379H60.1104C60.328 40.7379 60.5044 40.9143 60.5044 41.1319V94.9239C60.5044 95.1415 60.328 95.3179 60.1104 95.3179H57.2597C57.0421 95.3179 56.8657 95.1415 56.8657 94.9239V41.1319C56.8657 40.9143 57.0421 40.7379 57.2597 40.7379Z" fill="white"/>
<path d="M102.743 49.8362H103.774C103.992 49.8362 104.168 50.0126 104.168 50.2302V84.0095C104.168 84.2271 103.992 84.4035 103.774 84.4035H102.743C102.525 84.4035 102.349 84.2271 102.349 84.0095V50.2302C102.349 50.0126 102.525 49.8362 102.743 49.8362Z" fill="white"/>
<path d="M17.2334 49.8362H18.2647C18.4823 49.8362 18.6587 50.0126 18.6587 50.2302V84.0095C18.6587 84.2271 18.4823 84.4035 18.2647 84.4035H17.2334C17.0158 84.4035 16.8394 84.2271 16.8394 84.0095V50.2302C16.8394 50.0126 17.0158 49.8362 17.2334 49.8362Z" fill="white"/>
<path d="M62.7172 40.7379H65.5679C65.7855 40.7379 65.9619 40.9143 65.9619 41.1319V94.9239C65.9619 95.1415 65.7855 95.3179 65.5679 95.3179H62.7172C62.4996 95.3179 62.3232 95.1415 62.3232 94.9239V41.1319C62.3232 40.9143 62.4996 40.7379 62.7172 40.7379Z" fill="white"/>
<path d="M106.381 49.8362H107.413C107.63 49.8362 107.807 50.0126 107.807 50.2302V84.0095C107.807 84.2271 107.63 84.4035 107.413 84.4035H106.381C106.164 84.4035 105.987 84.2271 105.987 84.0095V50.2302C105.987 50.0126 106.164 49.8362 106.381 49.8362Z" fill="white"/>
<path d="M20.873 49.8362H21.9043C22.1219 49.8362 22.2983 50.0126 22.2983 50.2302V84.0095C22.2983 84.2271 22.1219 84.4035 21.9043 84.4035H20.873C20.6554 84.4035 20.479 84.2271 20.479 84.0095V50.2302C20.479 50.0126 20.6554 49.8362 20.873 49.8362Z" fill="white"/>
<path d="M68.1748 40.7379H71.0254C71.243 40.7379 71.4194 40.9143 71.4194 41.1319V94.9239C71.4194 95.1415 71.243 95.3179 71.0254 95.3179H68.1748C67.9572 95.3179 67.7808 95.1415 67.7808 94.9239V41.1319C67.7808 40.9143 67.9572 40.7379 68.1748 40.7379Z" fill="white"/>
<path d="M110.02 49.8362H111.052C111.269 49.8362 111.446 50.0126 111.446 50.2302V84.0095C111.446 84.2271 111.269 84.4035 111.052 84.4035H110.02C109.803 84.4035 109.626 84.2271 109.626 84.0095V50.2302C109.626 50.0126 109.803 49.8362 110.02 49.8362Z" fill="white"/>
<path d="M24.5117 49.8362H25.543C25.7606 49.8362 25.937 50.0126 25.937 50.2302V84.0095C25.937 84.2271 25.7606 84.4035 25.543 84.4035H24.5117C24.2941 84.4035 24.1177 84.2271 24.1177 84.0095V50.2302C24.1177 50.0126 24.2941 49.8362 24.5117 49.8362Z" fill="white"/>
<path d="M73.6337 40.7379H76.4844C76.702 40.7379 76.8784 40.9143 76.8784 41.1319V94.9239C76.8784 95.1415 76.702 95.3179 76.4844 95.3179H73.6337C73.4161 95.3179 73.2398 95.1415 73.2398 94.9239V41.1319C73.2398 40.9143 73.4161 40.7379 73.6337 40.7379Z" fill="white"/>
<path d="M113.659 49.8362H114.69C114.908 49.8362 115.084 50.0126 115.084 50.2302V84.0095C115.084 84.2271 114.908 84.4035 114.69 84.4035H113.659C113.442 84.4035 113.265 84.2271 113.265 84.0095V50.2302C113.265 50.0126 113.442 49.8362 113.659 49.8362Z" fill="white"/>
<path d="M28.1499 49.8362H29.1812C29.3988 49.8362 29.5752 50.0126 29.5752 50.2302V84.0095C29.5752 84.2271 29.3988 84.4035 29.1812 84.4035H28.1499C27.9323 84.4035 27.7559 84.2271 27.7559 84.0095V50.2302C27.7559 50.0126 27.9323 49.8362 28.1499 49.8362Z" fill="white"/>
<path d="M148.383 54.3125L145.477 53.6211L146.473 44.9375H156.246V47.832H149.473L149.062 51.4297C149.273 51.3047 149.605 51.168 150.059 51.0195C150.512 50.8633 151.02 50.7852 151.582 50.7852C152.418 50.7852 153.16 50.9141 153.809 51.1719C154.457 51.4297 155.004 51.8047 155.449 52.2969C155.902 52.7812 156.242 53.3789 156.469 54.0898C156.703 54.8008 156.82 55.6094 156.82 56.5156C156.82 57.2656 156.703 57.9844 156.469 58.6719C156.234 59.3516 155.875 59.9609 155.391 60.5C154.914 61.0312 154.309 61.4531 153.574 61.7656C152.84 62.0781 151.977 62.2344 150.984 62.2344C150.234 62.2344 149.508 62.1211 148.805 61.8945C148.102 61.668 147.469 61.3398 146.906 60.9102C146.352 60.4727 145.91 59.9414 145.582 59.3164C145.262 58.6914 145.098 57.9883 145.09 57.207H148.746C148.785 57.6602 148.898 58.0508 149.086 58.3789C149.273 58.6992 149.527 58.9492 149.848 59.1289C150.168 59.3008 150.539 59.3867 150.961 59.3867C151.367 59.3867 151.711 59.3086 151.992 59.1523C152.273 58.9883 152.496 58.7656 152.66 58.4844C152.832 58.2031 152.957 57.875 153.035 57.5C153.113 57.125 153.152 56.7227 153.152 56.293C153.152 55.8477 153.102 55.4492 153 55.0977C152.898 54.7383 152.742 54.4336 152.531 54.1836C152.32 53.9258 152.051 53.7305 151.723 53.5977C151.402 53.457 151.016 53.3867 150.562 53.3867C149.969 53.3867 149.504 53.4844 149.168 53.6797C148.832 53.875 148.57 54.0859 148.383 54.3125ZM166.348 48.1836L161.941 62H157.863L164.18 44.9375H166.758L166.348 48.1836ZM170.004 62L165.586 48.1836L165.129 44.9375H167.742L174.082 62H170.004ZM169.816 55.6484V58.6016H160.922V55.6484H169.816ZM192.609 59.0469V62H183.996V59.0469H192.609ZM185.297 44.9375V62H181.477V44.9375H185.297ZM201.012 58.9766V53.5391C201.012 53.1562 200.953 52.8281 200.836 52.5547C200.719 52.2812 200.535 52.0664 200.285 51.9102C200.035 51.7539 199.711 51.6758 199.312 51.6758C198.977 51.6758 198.684 51.7344 198.434 51.8516C198.191 51.9688 198.004 52.1367 197.871 52.3555C197.746 52.5742 197.684 52.8438 197.684 53.1641H194.027C194.027 52.5938 194.156 52.0625 194.414 51.5703C194.672 51.0781 195.039 50.6445 195.516 50.2695C196 49.8945 196.578 49.6055 197.25 49.4023C197.922 49.1914 198.676 49.0859 199.512 49.0859C200.504 49.0859 201.387 49.2539 202.16 49.5898C202.941 49.918 203.559 50.4141 204.012 51.0781C204.465 51.7344 204.691 52.5625 204.691 53.5625V58.8711C204.691 59.6367 204.734 60.2383 204.82 60.6758C204.914 61.1055 205.047 61.4805 205.219 61.8008V62H201.527C201.355 61.6328 201.227 61.1797 201.141 60.6406C201.055 60.0938 201.012 59.5391 201.012 58.9766ZM201.469 54.2656L201.492 56.2812H199.676C199.27 56.2812 198.918 56.332 198.621 56.4336C198.332 56.5352 198.098 56.6758 197.918 56.8555C197.738 57.0273 197.605 57.2305 197.52 57.4648C197.441 57.6914 197.402 57.9414 197.402 58.2148C197.402 58.4727 197.465 58.707 197.59 58.918C197.715 59.1211 197.887 59.2812 198.105 59.3984C198.324 59.5156 198.578 59.5742 198.867 59.5742C199.344 59.5742 199.75 59.4805 200.086 59.293C200.43 59.1055 200.695 58.8789 200.883 58.6133C201.07 58.3398 201.164 58.0859 201.164 57.8516L202.043 59.375C201.902 59.6875 201.73 60.0117 201.527 60.3477C201.324 60.6758 201.066 60.9844 200.754 61.2734C200.441 61.5547 200.062 61.7852 199.617 61.9648C199.18 62.1445 198.652 62.2344 198.035 62.2344C197.238 62.2344 196.516 62.0742 195.867 61.7539C195.219 61.4258 194.699 60.9766 194.309 60.4062C193.926 59.8359 193.734 59.1797 193.734 58.4375C193.734 57.7734 193.855 57.1836 194.098 56.668C194.34 56.1523 194.703 55.7148 195.188 55.3555C195.68 54.9961 196.297 54.7266 197.039 54.5469C197.781 54.3594 198.648 54.2656 199.641 54.2656H201.469ZM210.832 58.4727L213.316 49.3203H215.625L214.84 53.3984L212.355 62H210.469L210.832 58.4727ZM209.695 49.3203L211.359 58.4375L211.535 62H209.285L206.168 49.3203H209.695ZM217.875 58.2617L219.527 49.3203H223.055L219.961 62H217.711L217.875 58.2617ZM215.906 49.3203L218.414 58.4258L218.777 62H216.867L214.406 53.4102L213.656 49.3203H215.906ZM234.609 44.9375V62H230.789V44.9375H234.609ZM241.324 52.1328V55.0859H233.543V52.1328H241.324ZM242.074 44.9375V47.9023H233.543V44.9375H242.074ZM247.605 49.3203V62H243.938V49.3203H247.605ZM243.715 46.0391C243.715 45.5078 243.902 45.0742 244.277 44.7383C244.652 44.3945 245.145 44.2227 245.754 44.2227C246.363 44.2227 246.855 44.3945 247.23 44.7383C247.613 45.0742 247.805 45.5078 247.805 46.0391C247.805 46.5625 247.613 46.9961 247.23 47.3398C246.855 47.6758 246.363 47.8438 245.754 47.8438C245.145 47.8438 244.652 47.6758 244.277 47.3398C243.902 46.9961 243.715 46.5625 243.715 46.0391ZM253.91 52.2734V62H250.254V49.3203H253.688L253.91 52.2734ZM257.695 49.2266L257.637 52.6367C257.48 52.6133 257.277 52.5938 257.027 52.5781C256.777 52.5547 256.562 52.543 256.383 52.543C255.914 52.543 255.508 52.6016 255.164 52.7188C254.828 52.8281 254.547 52.9922 254.32 53.2109C254.102 53.4297 253.938 53.7031 253.828 54.0312C253.719 54.3516 253.664 54.7227 253.664 55.1445L252.973 54.8047C252.973 53.9688 253.055 53.2031 253.219 52.5078C253.383 51.8125 253.621 51.2109 253.934 50.7031C254.246 50.1875 254.629 49.7891 255.082 49.5078C255.535 49.2266 256.051 49.0859 256.629 49.0859C256.816 49.0859 257.008 49.0977 257.203 49.1211C257.398 49.1445 257.562 49.1797 257.695 49.2266ZM262.863 51.9805V62H259.207V49.3203H262.641L262.863 51.9805ZM262.395 55.2148L261.469 55.2383C261.469 54.3477 261.574 53.5312 261.785 52.7891C262.004 52.0391 262.32 51.3867 262.734 50.832C263.148 50.2773 263.66 49.8477 264.27 49.543C264.887 49.2383 265.598 49.0859 266.402 49.0859C266.965 49.0859 267.477 49.1719 267.938 49.3438C268.398 49.5078 268.793 49.7695 269.121 50.1289C269.457 50.4805 269.715 50.9414 269.895 51.5117C270.074 52.0742 270.164 52.75 270.164 53.5391V62H266.508V53.9844C266.508 53.4219 266.438 52.9961 266.297 52.707C266.164 52.4102 265.969 52.207 265.711 52.0977C265.453 51.9883 265.145 51.9336 264.785 51.9336C264.395 51.9336 264.047 52.0195 263.742 52.1914C263.445 52.3555 263.195 52.5859 262.992 52.8828C262.789 53.1797 262.637 53.5273 262.535 53.9258C262.441 54.3242 262.395 54.7539 262.395 55.2148ZM269.789 55.0273L268.629 55.1211C268.629 54.2617 268.73 53.4648 268.934 52.7305C269.137 51.9961 269.441 51.3594 269.848 50.8203C270.254 50.2734 270.758 49.8477 271.359 49.543C271.969 49.2383 272.676 49.0859 273.48 49.0859C274.074 49.0859 274.613 49.1719 275.098 49.3438C275.59 49.5156 276.012 49.793 276.363 50.1758C276.723 50.5586 277 51.0625 277.195 51.6875C277.391 52.3047 277.488 53.0625 277.488 53.9609V62H273.809V53.9609C273.809 53.4062 273.738 52.9844 273.598 52.6953C273.465 52.4062 273.27 52.207 273.012 52.0977C272.762 51.9883 272.461 51.9336 272.109 51.9336C271.719 51.9336 271.379 52.0156 271.09 52.1797C270.801 52.3359 270.559 52.5547 270.363 52.8359C270.168 53.1094 270.023 53.4336 269.93 53.8086C269.836 54.1836 269.789 54.5898 269.789 55.0273ZM297.234 59.0469V62H288.621V59.0469H297.234ZM289.922 44.9375V62H286.102V44.9375H289.922ZM310.242 59.0469V62H301.629V59.0469H310.242ZM302.93 44.9375V62H299.109V44.9375H302.93ZM318.844 56.0703H314.555V53.1055H318.844C319.477 53.1055 319.984 53 320.367 52.7891C320.758 52.5781 321.043 52.2891 321.223 51.9219C321.41 51.5469 321.504 51.125 321.504 50.6562C321.504 50.1719 321.41 49.7227 321.223 49.3086C321.043 48.8867 320.758 48.5469 320.367 48.2891C319.984 48.0312 319.477 47.9023 318.844 47.9023H315.938V62H312.117V44.9375H318.844C320.203 44.9375 321.367 45.1836 322.336 45.6758C323.312 46.168 324.059 46.8438 324.574 47.7031C325.098 48.5547 325.359 49.5312 325.359 50.6328C325.359 51.7344 325.098 52.6914 324.574 53.5039C324.059 54.3164 323.312 54.9492 322.336 55.4023C321.367 55.8477 320.203 56.0703 318.844 56.0703ZM152.064 88.5425V90H146.402V88.5425H152.064ZM146.922 79.3359V90H145.084V79.3359H146.922ZM151.324 83.7891V85.2246H146.402V83.7891H151.324ZM152.027 79.3359V80.8008H146.402V79.3359H152.027ZM154.964 79.3359L157.228 83.2251L159.491 79.3359H161.607L158.385 84.6167L161.688 90H159.549L157.228 86.0376L154.906 90H152.76L156.07 84.6167L152.84 79.3359H154.964ZM167.093 86.0229H164.317V84.5654H167.093C167.577 84.5654 167.967 84.4873 168.265 84.3311C168.563 84.1748 168.78 83.96 168.917 83.6865C169.059 83.4082 169.129 83.0908 169.129 82.7344C169.129 82.3975 169.059 82.0825 168.917 81.7896C168.78 81.4917 168.563 81.2524 168.265 81.0718C167.967 80.8911 167.577 80.8008 167.093 80.8008H164.881V90H163.043V79.3359H167.093C167.918 79.3359 168.619 79.4824 169.195 79.7754C169.776 80.0635 170.218 80.4639 170.521 80.9766C170.824 81.4844 170.975 82.0654 170.975 82.7197C170.975 83.4082 170.824 83.999 170.521 84.4922C170.218 84.9854 169.776 85.3638 169.195 85.6274C168.619 85.8911 167.918 86.0229 167.093 86.0229ZM179.603 88.5425V90H173.941V88.5425H179.603ZM174.461 79.3359V90H172.623V79.3359H174.461ZM178.863 83.7891V85.2246H173.941V83.7891H178.863ZM179.566 79.3359V80.8008H173.941V79.3359H179.566ZM181.104 79.3359H184.876C185.687 79.3359 186.378 79.458 186.949 79.7021C187.521 79.9463 187.958 80.3076 188.26 80.7861C188.568 81.2598 188.722 81.8457 188.722 82.5439C188.722 83.0762 188.624 83.5449 188.429 83.9502C188.233 84.3555 187.958 84.6973 187.601 84.9756C187.245 85.249 186.82 85.4614 186.327 85.6128L185.77 85.8838H182.379L182.364 84.4263H184.906C185.345 84.4263 185.711 84.3481 186.004 84.1919C186.297 84.0356 186.517 83.8232 186.664 83.5547C186.815 83.2812 186.891 82.9736 186.891 82.6318C186.891 82.2607 186.817 81.9385 186.671 81.665C186.529 81.3867 186.31 81.1743 186.012 81.0278C185.714 80.8765 185.335 80.8008 184.876 80.8008H182.943V90H181.104V79.3359ZM187.191 90L184.686 85.21L186.612 85.2026L189.154 89.9048V90H187.191ZM194.442 79.3359V90H192.618V79.3359H194.442ZM197.789 79.3359V80.8008H189.3V79.3359H197.789ZM201.158 79.3359V90H199.32V79.3359H201.158ZM209.054 87.2534C209.054 87.0337 209.02 86.8384 208.951 86.6675C208.888 86.4966 208.773 86.3403 208.607 86.1987C208.441 86.0571 208.207 85.9204 207.904 85.7886C207.606 85.6519 207.225 85.5127 206.761 85.3711C206.253 85.2148 205.785 85.0415 205.355 84.8511C204.93 84.6558 204.559 84.4312 204.242 84.1772C203.924 83.9185 203.678 83.623 203.502 83.291C203.326 82.9541 203.238 82.5659 203.238 82.1265C203.238 81.6919 203.329 81.2964 203.509 80.9399C203.695 80.5835 203.956 80.2759 204.293 80.0171C204.635 79.7534 205.038 79.5508 205.501 79.4092C205.965 79.2627 206.478 79.1895 207.04 79.1895C207.831 79.1895 208.512 79.3359 209.083 79.6289C209.659 79.9219 210.101 80.3149 210.409 80.8081C210.721 81.3013 210.877 81.8457 210.877 82.4414H209.054C209.054 82.0898 208.978 81.7798 208.827 81.5112C208.68 81.2378 208.456 81.0229 208.153 80.8667C207.855 80.7104 207.477 80.6323 207.018 80.6323C206.583 80.6323 206.222 80.6982 205.934 80.8301C205.646 80.9619 205.431 81.1401 205.289 81.3647C205.147 81.5894 205.077 81.8433 205.077 82.1265C205.077 82.3267 205.123 82.5098 205.216 82.6758C205.309 82.8369 205.45 82.9883 205.641 83.1299C205.831 83.2666 206.07 83.396 206.358 83.5181C206.646 83.6401 206.986 83.7573 207.376 83.8696C207.967 84.0454 208.482 84.2407 208.922 84.4556C209.361 84.6655 209.728 84.9048 210.021 85.1733C210.313 85.4419 210.533 85.7471 210.68 86.0889C210.826 86.4258 210.899 86.8091 210.899 87.2388C210.899 87.688 210.809 88.0933 210.628 88.4546C210.448 88.811 210.189 89.1162 209.852 89.3701C209.52 89.6191 209.12 89.812 208.651 89.9487C208.187 90.0806 207.669 90.1465 207.098 90.1465C206.585 90.1465 206.08 90.0781 205.582 89.9414C205.089 89.8047 204.64 89.5972 204.234 89.3188C203.829 89.0356 203.507 88.6841 203.268 88.2642C203.028 87.8394 202.909 87.3438 202.909 86.7773H204.747C204.747 87.124 204.806 87.4194 204.923 87.6636C205.045 87.9077 205.213 88.1079 205.428 88.2642C205.643 88.4155 205.892 88.5278 206.175 88.6011C206.463 88.6743 206.771 88.7109 207.098 88.7109C207.528 88.7109 207.887 88.6499 208.175 88.5278C208.468 88.4058 208.688 88.2349 208.834 88.0151C208.98 87.7954 209.054 87.5415 209.054 87.2534ZM219.505 88.5425V90H213.844V88.5425H219.505ZM214.364 79.3359V90H212.525V79.3359H214.364ZM218.766 83.7891V85.2246H213.844V83.7891H218.766ZM219.469 79.3359V80.8008H213.844V79.3359H219.469ZM228.119 84.7412V86.1475H224.244V84.7412H228.119ZM240.555 88.5425V90H234.894V88.5425H240.555ZM235.414 79.3359V90H233.575V79.3359H235.414ZM239.815 83.7891V85.2246H234.894V83.7891H239.815ZM240.519 79.3359V80.8008H234.894V79.3359H240.519ZM243.456 79.3359L245.719 83.2251L247.982 79.3359H250.099L246.876 84.6167L250.179 90H248.041L245.719 86.0376L243.397 90H241.251L244.562 84.6167L241.332 79.3359H243.456ZM255.584 86.0229H252.809V84.5654H255.584C256.068 84.5654 256.458 84.4873 256.756 84.3311C257.054 84.1748 257.271 83.96 257.408 83.6865C257.55 83.4082 257.621 83.0908 257.621 82.7344C257.621 82.3975 257.55 82.0825 257.408 81.7896C257.271 81.4917 257.054 81.2524 256.756 81.0718C256.458 80.8911 256.068 80.8008 255.584 80.8008H253.373V90H251.534V79.3359H255.584C256.41 79.3359 257.11 79.4824 257.687 79.7754C258.268 80.0635 258.709 80.4639 259.012 80.9766C259.315 81.4844 259.466 82.0654 259.466 82.7197C259.466 83.4082 259.315 83.999 259.012 84.4922C258.709 84.9854 258.268 85.3638 257.687 85.6274C257.11 85.8911 256.41 86.0229 255.584 86.0229ZM268.094 88.5425V90H262.433V88.5425H268.094ZM262.953 79.3359V90H261.114V79.3359H262.953ZM267.354 83.7891V85.2246H262.433V83.7891H267.354ZM268.058 79.3359V80.8008H262.433V79.3359H268.058ZM269.596 79.3359H273.368C274.178 79.3359 274.869 79.458 275.44 79.7021C276.012 79.9463 276.449 80.3076 276.751 80.7861C277.059 81.2598 277.213 81.8457 277.213 82.5439C277.213 83.0762 277.115 83.5449 276.92 83.9502C276.725 84.3555 276.449 84.6973 276.092 84.9756C275.736 85.249 275.311 85.4614 274.818 85.6128L274.261 85.8838H270.87L270.855 84.4263H273.397C273.836 84.4263 274.203 84.3481 274.496 84.1919C274.789 84.0356 275.008 83.8232 275.155 83.5547C275.306 83.2812 275.382 82.9736 275.382 82.6318C275.382 82.2607 275.309 81.9385 275.162 81.665C275.021 81.3867 274.801 81.1743 274.503 81.0278C274.205 80.8765 273.827 80.8008 273.368 80.8008H271.434V90H269.596V79.3359ZM275.682 90L273.177 85.21L275.104 85.2026L277.645 89.9048V90H275.682ZM281.007 79.3359V90H279.168V79.3359H281.007ZM290.272 88.5425V90H284.61V88.5425H290.272ZM285.13 79.3359V90H283.292V79.3359H285.13ZM289.532 83.7891V85.2246H284.61V83.7891H289.532ZM290.235 79.3359V80.8008H284.61V79.3359H290.235ZM300.233 79.3359V90H298.395L293.612 82.3608V90H291.773V79.3359H293.612L298.409 86.9897V79.3359H300.233ZM308.722 86.5283H310.553C310.494 87.2266 310.299 87.8491 309.967 88.396C309.635 88.938 309.168 89.3652 308.568 89.6777C307.967 89.9902 307.237 90.1465 306.378 90.1465C305.719 90.1465 305.125 90.0293 304.598 89.7949C304.071 89.5557 303.619 89.2188 303.243 88.7842C302.867 88.3447 302.579 87.8149 302.379 87.1948C302.184 86.5747 302.086 85.8813 302.086 85.1147V84.2285C302.086 83.4619 302.186 82.7686 302.386 82.1484C302.591 81.5283 302.884 80.9985 303.265 80.5591C303.646 80.1147 304.103 79.7754 304.635 79.541C305.172 79.3066 305.775 79.1895 306.444 79.1895C307.293 79.1895 308.011 79.3457 308.597 79.6582C309.183 79.9707 309.637 80.4028 309.959 80.9546C310.287 81.5063 310.487 82.1387 310.56 82.8516H308.729C308.68 82.3926 308.573 81.9995 308.407 81.6724C308.246 81.3452 308.006 81.0962 307.689 80.9253C307.372 80.7495 306.957 80.6616 306.444 80.6616C306.024 80.6616 305.658 80.7397 305.345 80.896C305.033 81.0522 304.771 81.2817 304.562 81.5845C304.352 81.8872 304.193 82.2607 304.085 82.7051C303.983 83.1445 303.932 83.6475 303.932 84.2139V85.1147C303.932 85.6519 303.978 86.1401 304.071 86.5796C304.168 87.0142 304.315 87.3877 304.51 87.7002C304.71 88.0127 304.964 88.2544 305.272 88.4253C305.58 88.5962 305.948 88.6816 306.378 88.6816C306.9 88.6816 307.323 88.5986 307.645 88.4326C307.972 88.2666 308.219 88.0249 308.385 87.7075C308.556 87.3853 308.668 86.9922 308.722 86.5283ZM319.203 88.5425V90H313.541V88.5425H319.203ZM314.061 79.3359V90H312.223V79.3359H314.061ZM318.463 83.7891V85.2246H313.541V83.7891H318.463ZM319.166 79.3359V80.8008H313.541V79.3359H319.166ZM327.816 84.7412V86.1475H323.941V84.7412H327.816ZM340.252 88.5425V90H334.591V88.5425H340.252ZM335.111 79.3359V90H333.272V79.3359H335.111ZM339.513 83.7891V85.2246H334.591V83.7891H339.513ZM340.216 79.3359V80.8008H334.591V79.3359H340.216ZM343.153 79.3359L345.416 83.2251L347.679 79.3359H349.796L346.573 84.6167L349.876 90H347.738L345.416 86.0376L343.094 90H340.948L344.259 84.6167L341.029 79.3359H343.153ZM357.34 86.5283H359.171C359.112 87.2266 358.917 87.8491 358.585 88.396C358.253 88.938 357.787 89.3652 357.186 89.6777C356.585 89.9902 355.855 90.1465 354.996 90.1465C354.337 90.1465 353.744 90.0293 353.216 89.7949C352.689 89.5557 352.237 89.2188 351.861 88.7842C351.485 88.3447 351.197 87.8149 350.997 87.1948C350.802 86.5747 350.704 85.8813 350.704 85.1147V84.2285C350.704 83.4619 350.804 82.7686 351.004 82.1484C351.209 81.5283 351.502 80.9985 351.883 80.5591C352.264 80.1147 352.721 79.7754 353.253 79.541C353.79 79.3066 354.393 79.1895 355.062 79.1895C355.912 79.1895 356.629 79.3457 357.215 79.6582C357.801 79.9707 358.255 80.4028 358.578 80.9546C358.905 81.5063 359.105 82.1387 359.178 82.8516H357.347C357.298 82.3926 357.191 81.9995 357.025 81.6724C356.864 81.3452 356.625 81.0962 356.307 80.9253C355.99 80.7495 355.575 80.6616 355.062 80.6616C354.642 80.6616 354.276 80.7397 353.963 80.896C353.651 81.0522 353.39 81.2817 353.18 81.5845C352.97 81.8872 352.811 82.2607 352.704 82.7051C352.601 83.1445 352.55 83.6475 352.55 84.2139V85.1147C352.55 85.6519 352.596 86.1401 352.689 86.5796C352.787 87.0142 352.933 87.3877 353.128 87.7002C353.329 88.0127 353.583 88.2544 353.89 88.4253C354.198 88.5962 354.566 88.6816 354.996 88.6816C355.519 88.6816 355.941 88.5986 356.263 88.4326C356.59 88.2666 356.837 88.0249 357.003 87.7075C357.174 87.3853 357.286 86.9922 357.34 86.5283ZM367.821 88.5425V90H362.159V88.5425H367.821ZM362.679 79.3359V90H360.841V79.3359H362.679ZM367.081 83.7891V85.2246H362.159V83.7891H367.081ZM367.784 79.3359V80.8008H362.159V79.3359H367.784ZM376.002 88.5425V90H370.648V88.5425H376.002ZM371.161 79.3359V90H369.322V79.3359H371.161ZM384.103 88.5425V90H378.749V88.5425H384.103ZM379.261 79.3359V90H377.423V79.3359H379.261ZM392.503 88.5425V90H386.842V88.5425H392.503ZM387.362 79.3359V90H385.523V79.3359H387.362ZM391.764 83.7891V85.2246H386.842V83.7891H391.764ZM392.467 79.3359V80.8008H386.842V79.3359H392.467ZM402.464 79.3359V90H400.626L395.843 82.3608V90H394.005V79.3359H395.843L400.641 86.9897V79.3359H402.464ZM410.953 86.5283H412.784C412.726 87.2266 412.53 87.8491 412.198 88.396C411.866 88.938 411.4 89.3652 410.799 89.6777C410.199 89.9902 409.469 90.1465 408.609 90.1465C407.95 90.1465 407.357 90.0293 406.83 89.7949C406.302 89.5557 405.851 89.2188 405.475 88.7842C405.099 88.3447 404.811 87.8149 404.61 87.1948C404.415 86.5747 404.317 85.8813 404.317 85.1147V84.2285C404.317 83.4619 404.417 82.7686 404.618 82.1484C404.823 81.5283 405.116 80.9985 405.497 80.5591C405.877 80.1147 406.334 79.7754 406.866 79.541C407.403 79.3066 408.006 79.1895 408.675 79.1895C409.525 79.1895 410.243 79.3457 410.829 79.6582C411.415 79.9707 411.869 80.4028 412.191 80.9546C412.518 81.5063 412.718 82.1387 412.792 82.8516H410.96C410.912 82.3926 410.804 81.9995 410.638 81.6724C410.477 81.3452 410.238 81.0962 409.92 80.9253C409.603 80.7495 409.188 80.6616 408.675 80.6616C408.255 80.6616 407.889 80.7397 407.577 80.896C407.264 81.0522 407.003 81.2817 406.793 81.5845C406.583 81.8872 406.424 82.2607 406.317 82.7051C406.214 83.1445 406.163 83.6475 406.163 84.2139V85.1147C406.163 85.6519 406.209 86.1401 406.302 86.5796C406.4 87.0142 406.546 87.3877 406.742 87.7002C406.942 88.0127 407.196 88.2544 407.503 88.4253C407.811 88.5962 408.18 88.6816 408.609 88.6816C409.132 88.6816 409.554 88.5986 409.876 88.4326C410.204 88.2666 410.45 88.0249 410.616 87.7075C410.787 87.3853 410.899 86.9922 410.953 86.5283ZM421.434 88.5425V90H415.772V88.5425H421.434ZM416.292 79.3359V90H414.454V79.3359H416.292ZM420.694 83.7891V85.2246H415.772V83.7891H420.694ZM421.397 79.3359V80.8008H415.772V79.3359H421.397Z" fill="white"/>
</svg>
