<svg width="42" height="42" viewBox="0 0 42 42" fill="none" xmlns="http://www.w3.org/2000/svg">
<g clip-path="url(#clip0_319_24124)">
<path fill-rule="evenodd" clip-rule="evenodd" d="M3.486 11.284C4.07575 10.115 5.0575 8.16375 5.63325 7C5.86075 6.54325 6.29475 6.27375 6.804 6.22825C9.19625 6.0095 14.2293 5.635 16.3048 5.4985C17.262 5.4355 17.969 5.57725 18.5815 6.19325L23.457 11.0933C23.8962 11.5343 24.143 12.131 24.1413 12.7523L24.1325 28.5635L29.288 32.8773L34.0462 27.6343C35.0805 26.4967 36.9548 26.873 37.4447 28.3325C39.0863 33.2622 42 42 42 42H21L28.1102 34.174L17.507 25.2997L14.4462 22.7378L17.8763 28.9625C18.0583 29.2915 18.1632 29.6555 18.1877 30.0265L18.8807 40.6052C18.9192 41.2247 18.4905 42 17.5035 42C16.8595 42 16.3013 41.5573 16.156 40.9307C15.6153 38.6155 14.3623 33.2325 14.0455 31.8693C13.9965 31.6593 13.8932 31.4685 13.748 31.311C12.7872 30.2768 8.9565 26.25 8.9565 26.25C8.9565 26.25 4.0495 37.9155 2.72475 41.1688C2.527 41.6535 2.07025 42 1.41575 42C0.60725 42 0 41.3315 0 40.5947C0 40.3393 3.05375 25.599 4.0635 20.2283C4.186 19.579 4.48175 18.9735 4.921 18.4783L6.811 16.3485L0.68075 11.2175C-0.2065 10.4738 0.9205 9.1315 1.80425 9.87525L3.486 11.284ZM15.4805 21.3202L18.6305 23.9575L22.0465 26.817L20.1897 16.408L15.4805 21.3202ZM5.04875 12.5913L7.973 15.0378L12.8573 9.53225L8.07975 9.212L5.04875 12.5913ZM25.4415 0C27.804 0 29.722 1.918 29.722 4.2805C29.722 6.643 27.804 8.55925 25.4415 8.55925C23.0807 8.55925 21.161 6.643 21.161 4.2805C21.161 1.918 23.0807 0 25.4415 0Z" fill="#2A2E53"/>
</g>
<defs>
<clipPath id="clip0_319_24124">
<rect width="42" height="42" fill="white"/>
</clipPath>
</defs>
</svg>
