<svg width="52" height="51" viewBox="0 0 52 51" fill="none" xmlns="http://www.w3.org/2000/svg">
<path d="M26 34H19.5V31.875H26V34ZM26.6868 23.375L28.5567 21.25H19.5V27.625H25.0575L25.4757 25.5871L25.506 25.5H21.6667V23.375H26.6868ZM36.2722 32.096L29.7397 26.4074L29.7245 26.4265L28.7083 34L36.2722 32.096ZM37.6783 30.481L52 14.0122L45.5 8.5L31.1567 24.8009L37.6783 30.481ZM15.1667 25.5H8.66667V27.625H15.1667V25.5ZM41.1667 38.25H4.33333V17H32.2963L36.036 12.75H0V42.5H45.5V27.9947L41.1667 32.9609V38.25ZM15.1667 21.25H8.66667V23.375H15.1667V21.25ZM8.66667 34H15.1667V31.875H8.66667V34Z" fill="#2A2E53"/>
</svg>
