<svg width="30" height="30" viewBox="0 0 30 30" fill="none" xmlns="http://www.w3.org/2000/svg">
<path d="M22.9102 29.0625C22.9102 27.6063 21.7297 26.4258 20.2734 26.4258H9.72656C8.27033 26.4258 7.08984 27.6063 7.08984 29.0625V30H22.9102V29.0625Z" fill="#0178CB"/>
<path d="M28.2422 7.08984V5.33203H17.4748C17.2093 4.58742 16.6235 4.00166 15.8789 3.73611V0H14.1211V3.73611C13.3765 4.00166 12.7907 4.58742 12.5252 5.33203H1.75781V7.08984H3.95531L0 16.7578C0 19.1808 1.9715 21.1523 4.39453 21.1523H6.15234C8.57537 21.1523 10.5469 19.1808 10.5469 16.7578L6.57369 7.08984H12.5252C12.7908 7.83445 13.3765 8.42021 14.1212 8.68576V21.2487C12.4035 21.6002 11.0447 22.9496 10.6945 24.668H19.3056C18.9554 22.9496 17.5966 21.6002 15.879 21.2487V8.68576C16.6236 8.42021 17.2093 7.83445 17.4749 7.08984H23.4085L19.4531 16.7578C19.4531 19.1808 21.4246 21.1523 23.8477 21.1523H25.6055C28.0285 21.1523 30 19.1808 30 16.7578L26.0268 7.08984H28.2422ZM8.34938 15.8789H2.1975L5.27344 8.49574L8.34938 15.8789ZM27.8025 15.8789H21.6506L24.7266 8.49574L27.8025 15.8789Z" fill="#0178CB"/>
</svg>
