<svg width="30" height="30" viewBox="0 0 30 30" fill="none" xmlns="http://www.w3.org/2000/svg">
<g clip-path="url(#clip0_518_1067)">
<path d="M14.9996 5.97305C15.3232 5.97305 15.5856 5.71067 15.5856 5.38711V2.40234C15.5856 2.07879 15.3232 1.81641 14.9996 1.81641C14.676 1.81641 14.4137 2.07873 14.4137 2.40234V5.38711C14.4138 5.71067 14.6761 5.97305 14.9996 5.97305Z" fill="#0178CB"/>
<path d="M10.5946 6.93507C10.706 7.11184 10.8962 7.20864 11.0908 7.20864C11.1976 7.20864 11.3057 7.17946 11.4026 7.11835C11.6764 6.94585 11.7584 6.58403 11.5859 6.31022L10.0248 3.83317C9.8522 3.55942 9.49038 3.47733 9.21669 3.64989C8.94294 3.82239 8.86091 4.1842 9.03341 4.45801L10.5946 6.93507Z" fill="#0178CB"/>
<path d="M18.5989 7.11847C18.6959 7.17947 18.8039 7.20859 18.9105 7.20859C19.1051 7.20859 19.2955 7.11168 19.4069 6.93478L20.9664 4.45773C21.1388 4.18386 21.0566 3.82217 20.7827 3.64967C20.5088 3.47734 20.1472 3.55961 19.9747 3.83336L18.4152 6.31041C18.2428 6.58433 18.3251 6.94603 18.5989 7.11847V7.11847Z" fill="#0178CB"/>
<path d="M29.8111 15.6112L28.793 13.8127C28.6335 13.531 28.276 13.4319 27.9945 13.5914C27.7129 13.7509 27.6139 14.1083 27.7733 14.3899L28.7909 16.1876C28.8419 16.278 28.8286 16.3651 28.8162 16.409C28.8042 16.4513 28.7713 16.5293 28.6852 16.5768L27.1162 17.4459C26.9768 17.5229 26.7948 17.4743 26.7188 17.3402L26.3202 16.6351C26.3186 16.632 26.3167 16.629 26.315 16.6259L22.1941 9.33722C22.1432 9.24751 22.1561 9.1615 22.1683 9.1182C22.18 9.0763 22.2127 8.9989 22.2989 8.95126L23.8698 8.08197C24.0109 8.0038 24.1884 8.05126 24.2656 8.18802L25.184 9.81066C25.3434 10.0923 25.701 10.1913 25.9825 10.032C26.2641 9.87259 26.3632 9.51505 26.2038 9.23345L25.2858 7.61152C24.8943 6.91742 24.0047 6.66845 23.3026 7.05652L21.7318 7.92582C21.3919 8.11367 21.1463 8.42415 21.0404 8.80027C20.9404 9.15488 20.9762 9.52507 21.1398 9.84997L20.2745 10.1008C19.9059 10.2074 19.6822 10.2652 19.558 10.2652C19.5575 10.2652 19.557 10.2652 19.5566 10.2652C19.4711 10.2649 19.3779 10.2323 19.1118 10.1315C18.9911 10.0858 18.8408 10.0289 18.656 9.96441L17.1229 9.42845C16.275 9.13232 15.8926 9.14826 15.3385 9.19882L12.7243 9.43279C11.5326 9.53837 10.7728 9.8072 10.3534 10.2734L8.86356 9.84177C9.02387 9.51828 9.05827 9.15165 8.95924 8.80027C8.85331 8.42439 8.60792 8.11396 8.26837 7.92611L6.6984 7.0564C5.99575 6.66798 5.10565 6.91707 4.71407 7.61099L0.190396 15.6104C-0.00325585 15.9513 -0.0511855 16.3479 0.0555723 16.7271C0.161627 17.1036 0.407135 17.4144 0.746393 17.602L2.31635 18.4716C2.54083 18.5957 2.78469 18.6546 3.02534 18.6546C3.53657 18.6546 4.03356 18.3887 4.30069 17.917L4.46657 17.6236C4.91926 17.8229 5.29936 18.1124 5.5584 18.4552C5.3054 18.7508 5.14602 19.1157 5.10131 19.5126C5.04225 20.0374 5.19049 20.5523 5.51874 20.9627C5.84417 21.3697 6.30952 21.6264 6.82989 21.6869C6.77481 22.2073 6.92364 22.7172 7.24936 23.123C7.58604 23.544 8.06188 23.7895 8.55964 23.8475C8.50479 24.3671 8.65309 24.8765 8.97782 25.2826C9.30307 25.6904 9.76854 25.9477 10.2894 26.0082C10.2343 26.529 10.3831 27.0392 10.7089 27.4451C11.0971 27.9305 11.6703 28.1832 12.2489 28.1831C12.6808 28.1831 13.1158 28.0423 13.479 27.7522L14.7058 26.7706C14.8033 26.6928 14.8918 26.6068 14.9714 26.5143L15.6722 27.0741C16.0346 27.3633 16.4686 27.5038 16.9 27.5037C17.4789 27.5037 18.053 27.2507 18.4418 26.7648C18.6467 26.5086 18.7764 26.2163 18.835 25.9144C19.0399 25.9853 19.2562 26.022 19.4768 26.0219C19.5507 26.0219 19.6251 26.0178 19.6998 26.0095C20.2248 25.9512 20.6942 25.6931 21.0204 25.284C21.3467 24.8775 21.4956 24.3676 21.4405 23.8473C21.9379 23.7892 22.414 23.5437 22.7517 23.123C23.088 22.7025 23.223 22.1847 23.1702 21.6868C23.6902 21.6262 24.1554 21.3695 24.48 20.9635C24.8085 20.5542 24.9574 20.04 24.8992 19.5156C24.855 19.1175 24.6955 18.7514 24.4421 18.4549C24.7003 18.1123 25.0797 17.8224 25.5327 17.6233L25.6989 17.9173C25.9658 18.3887 26.4626 18.6546 26.974 18.6546C27.2147 18.6545 27.4588 18.5956 27.6835 18.4713L29.2526 17.6022C29.5917 17.4147 29.8371 17.1043 29.9436 16.7285C30.0509 16.3497 30.004 15.9531 29.8111 15.6112V15.6112ZM3.28081 17.34C3.20463 17.4745 3.02258 17.523 2.88378 17.4462L1.31387 16.5767C1.22815 16.5292 1.19546 16.4515 1.1835 16.4094C1.17126 16.3657 1.15819 16.2791 1.20987 16.1882L5.73424 8.18726C5.78604 8.09544 5.88366 8.044 5.98503 8.044C6.03436 8.044 6.08452 8.05613 6.13081 8.08173L7.7003 8.95115C7.70047 8.95126 7.70065 8.95138 7.70083 8.95144C7.78672 8.99896 7.81936 9.07636 7.8312 9.11826C7.84338 9.16156 7.85628 9.24757 7.80477 9.33828L3.28081 17.34ZM7.55663 20.3552C7.39139 20.4876 7.18274 20.5474 6.96952 20.5236C6.75618 20.5 6.56604 20.396 6.43397 20.2309C6.30161 20.0654 6.24196 19.8568 6.26592 19.6436C6.28977 19.4313 6.39378 19.2421 6.55983 19.11L8.75346 17.3565C9.09776 17.0817 9.60172 17.1382 9.87688 17.4819C10.0092 17.6473 10.0689 17.8555 10.045 18.068C10.0212 18.2799 9.91713 18.4689 9.75202 18.6002C9.74838 18.6031 9.74528 18.6063 9.74176 18.6093L7.55715 20.3548C7.55698 20.3549 7.5568 20.3551 7.55663 20.3552V20.3552ZM8.16389 22.3904C8.03165 22.2256 7.97188 22.0178 7.99549 21.8055C8.01911 21.593 8.12323 21.4029 8.28858 21.2703L8.28876 21.2702C8.28887 21.2701 8.28899 21.27 8.28911 21.27C8.28917 21.27 8.28917 21.2699 8.28922 21.2698L11.449 18.7454C11.7932 18.4705 12.2973 18.5266 12.5724 18.8707C12.7045 19.0359 12.7642 19.2439 12.7406 19.4564C12.7169 19.6691 12.6125 19.8591 12.4467 19.9916L9.28784 22.5151C8.94319 22.7901 8.43928 22.7346 8.16389 22.3904V22.3904ZM10.429 24.8449C10.2157 24.8212 10.0258 24.7171 9.89352 24.5513C9.76139 24.3861 9.70169 24.1781 9.7253 23.9657C9.74897 23.7532 9.85321 23.5633 10.0187 23.4308C10.0189 23.4307 10.019 23.4306 10.0191 23.4305L12.2057 21.6837C12.2083 21.6817 12.2111 21.68 12.2137 21.6779C12.5571 21.4031 13.061 21.459 13.3364 21.8023C13.4687 21.9677 13.5284 22.1763 13.5045 22.3895C13.4806 22.6018 13.3766 22.791 13.2106 22.9231L11.017 24.6765C10.8512 24.8089 10.6423 24.8684 10.429 24.8449V24.8449ZM14.268 25.3205C14.2442 25.5331 14.1401 25.7227 13.9743 25.8551L12.7474 26.837C12.4027 27.1121 11.8988 27.0567 11.6235 26.7124C11.4913 26.5477 11.4314 26.3398 11.455 26.1271C11.4787 25.9143 11.5827 25.7245 11.7477 25.5927C11.7479 25.5926 11.7481 25.5924 11.7483 25.5923L12.9749 24.6118C12.9756 24.6113 12.9763 24.6109 12.9769 24.6104C13.3213 24.3356 13.8252 24.3919 14.1004 24.7357C14.2322 24.9006 14.2917 25.1082 14.268 25.3205V25.3205ZM23.5655 20.2309C23.4334 20.396 23.2432 20.5 23.0299 20.5236C22.8168 20.5476 22.6081 20.4876 22.4428 20.3552C22.4428 20.3551 22.4427 20.3551 22.4425 20.355C22.4425 20.355 22.4424 20.3549 22.4423 20.3548L20.8745 19.1022C20.6216 18.9001 20.2529 18.9414 20.051 19.1942C19.849 19.4469 19.8902 19.8157 20.143 20.0176L21.7103 21.2699C22.0541 21.5452 22.1108 22.0482 21.8372 22.3903C21.5611 22.7344 21.0571 22.7903 20.713 22.5148L19.0124 21.1576C18.7595 20.9558 18.3908 20.9973 18.1889 21.2501C17.9871 21.503 18.0285 21.8717 18.2815 22.0736L19.9813 23.4301C20.147 23.5627 20.2512 23.7529 20.2749 23.9657C20.2985 24.178 20.2387 24.3858 20.1054 24.5519C19.9736 24.7171 19.7836 24.8211 19.5704 24.8449C19.3569 24.8684 19.1481 24.8088 18.9829 24.677L18.1367 24.0002C18.1353 23.9991 18.134 23.9978 18.1325 23.9967L17.4175 23.4251L17.2839 23.3182C17.0311 23.1161 16.6624 23.1571 16.4604 23.4098C16.4351 23.4414 16.4136 23.4748 16.3959 23.5095C16.3111 23.6753 16.3125 23.8698 16.3921 24.0329C16.429 24.1084 16.482 24.1774 16.552 24.2333L17.4028 24.9138C17.7444 25.1896 17.8002 25.6909 17.5268 26.0327C17.2515 26.3767 16.7475 26.4329 16.4034 26.1584L15.4381 25.3872C15.4783 24.8857 15.3297 24.3966 15.0154 24.0036C14.82 23.7595 14.5777 23.5746 14.3117 23.4505C14.5067 23.18 14.6305 22.8622 14.6689 22.5205C14.728 21.9957 14.5797 21.4808 14.2509 21.0696C14.0555 20.8261 13.8135 20.6416 13.548 20.5178C13.7433 20.2465 13.8671 19.928 13.9052 19.5859C13.9635 19.0623 13.8151 18.5483 13.4875 18.1386C12.9237 17.4337 11.9703 17.2194 11.1767 17.5562C11.1132 17.2645 10.9834 16.9894 10.7918 16.7498C10.1134 15.9021 8.87112 15.7634 8.02204 16.4408L6.45313 17.6949C6.09835 17.2422 5.61606 16.8667 5.04583 16.5989L8.27311 10.8907L9.99143 11.3885C9.99928 11.4805 10.0142 11.5771 10.0391 11.6796C10.455 13.3898 12.0297 14.1867 14.1486 13.7597C15.934 13.4005 16.669 13.9356 18.1328 15.0016C18.2847 15.1122 18.4425 15.2271 18.6076 15.3454C19.6604 16.1006 20.7854 16.9884 21.5397 17.5901L23.4416 19.1101C23.6069 19.242 23.7109 19.4318 23.7345 19.6447C23.7581 19.8575 23.6983 20.0654 23.5655 20.2309V20.2309ZM23.5473 17.6946L22.2709 16.6745C21.5062 16.0645 20.3653 15.1643 19.2904 14.3931C19.1275 14.2764 18.9722 14.1633 18.8227 14.0544C17.3048 12.9491 16.2077 12.1504 13.9174 12.611C13.2164 12.7523 11.5462 12.9175 11.1778 11.4029C11.1259 11.1891 11.1787 11.1157 11.2011 11.0843C11.2794 10.9751 11.5947 10.7093 12.828 10.6L15.445 10.3658C15.8714 10.3269 16.0854 10.3074 16.7362 10.5347L18.2695 11.0707C18.4399 11.1302 18.5762 11.1818 18.6965 11.2274C19.4348 11.5071 19.6305 11.507 20.6004 11.2263L21.7307 10.8987L24.9537 16.5993C24.3833 16.8669 23.9015 17.242 23.5473 17.6946Z" fill="#0178CB"/>
<path d="M26.9865 12.3983C27.3101 12.3983 27.5724 12.1351 27.5724 11.8115C27.5724 11.4879 27.3101 11.2256 26.9865 11.2256C26.663 11.2256 26.4006 11.488 26.4006 11.8115V11.8132C26.4006 12.1368 26.663 12.3983 26.9865 12.3983Z" fill="#0178CB"/>
</g>
<defs>
<clipPath id="clip0_518_1067">
<rect width="30" height="30" fill="white"/>
</clipPath>
</defs>
</svg>
