<svg width="20" height="20" viewBox="0 0 20 20" fill="none" xmlns="http://www.w3.org/2000/svg">
<path d="M8.33333 7.7775L12.7775 9.99583L8.33333 12.2225V7.7775ZM20 4.16667V15.8333C20 18.1342 18.135 20 15.8333 20H4.16667C1.86583 20 0 18.1342 0 15.8333V4.16667C0 1.86583 1.86583 0 4.16667 0H15.8333C18.135 0 20 1.86583 20 4.16667ZM16.6667 10C16.65 6.56417 16.3975 5.25 14.2308 5.1025C12.2283 4.96583 7.76917 4.96667 5.77 5.1025C3.605 5.25 3.35 6.55833 3.33333 10C3.35 13.4358 3.6025 14.75 5.76917 14.8975C7.76833 15.0333 12.2275 15.0342 14.23 14.8975C16.395 14.75 16.65 13.4417 16.6667 10Z" fill="white"/>
</svg>
